/* XPM */
static char *dummy[]={
"32 32 630 2",
"fn c #7e6d53",
"a3 c #807461",
"c2 c #827057",
"eh c #877457",
"#s c #87755a",
"et c #87765c",
"#Q c #887456",
"gF c #89775c",
"#u c #8a867f",
".7 c #8a8681",
"cb c #8a8783",
"cK c #8a8784",
".5 c #8a8884",
"dn c #8b8882",
"fw c #8c7655",
"ap c #8c8986",
"cN c #8c8a86",
"ah c #8d8984",
".6 c #8d8a86",
"b# c #8d8b87",
"cw c #8e8b86",
"bl c #8f7c60",
"cS c #8f8980",
"ct c #8f8b81",
"f3 c #90645b",
"f5 c #90655b",
".4 c #90897a",
"cu c #908b82",
"by c #908b83",
"#v c #908c84",
"f4 c #91655b",
"br c #917c5e",
"b6 c #91887b",
"aM c #918c83",
"dI c #918d86",
"a4 c #918e89",
"#B c #918f8b",
"g0 c #927c5b",
"cR c #928f8b",
"bK c #92908d",
"am c #937b56",
"bu c #937b57",
"#Y c #937c5a",
"bw c #937d5b",
"aj c #937d5e",
"c# c #937f61",
"bM c #938061",
"cJ c #93836a",
"#2 c #938f87",
"bq c #93908c",
"bt c #947c58",
"#0 c #947d5b",
"aG c #947d5c",
"bS c #947e5d",
"#Z c #947e5f",
"aH c #947e60",
"bL c #948065",
"eg c #948a7c",
"bx c #949088",
"dJ c #94908b",
"c4 c #94918e",
"fs c #95675d",
"bv c #957a53",
"aJ c #957a54",
"bR c #957d5a",
"fo c #957d5b",
"a9 c #957e5b",
"b8 c #957f5d",
"eG c #957f5e",
"bO c #957f5f",
"b9 c #958469",
"d5 c #95897a",
"c6 c #958f85",
"cQ c #95908c",
"b4 c #967a54",
"bG c #967e5b",
"a5 c #967e5c",
"bU c #968977",
"eH c #977b55",
"fm c #977c54",
"b5 c #977c55",
"fI c #977e5e",
"aK c #97805d",
"bP c #978366",
"#t c #978772",
"b7 c #978975",
"#X c #979187",
"d4 c #979188",
"aF c #97938b",
"#T c #987c55",
"eE c #987c56",
".u c #987d55",
"bz c #987d56",
"eO c #987d57",
"eu c #987d58",
"eD c #987e58",
"#U c #987e59",
"eB c #987e5a",
"gg c #987f5b",
"gf c #987f5c",
"ep c #987f5d",
"gh c #98805e",
"fv c #988365",
"bN c #98886c",
"#x c #98938b",
"fi c #99655c",
"#M c #997d56",
"#L c #997d57",
".X c #997e57",
".v c #997e58",
".N c #997e59",
"fc c #997f57",
".x c #997f59",
"a6 c #997f5a",
"bZ c #997f5b",
"eC c #997f5c",
"eF c #997f5d",
"gp c #99805b",
".M c #99805c",
"bW c #99805d",
"eo c #99805e",
"c0 c #99805f",
"ab c #99815c",
"bX c #99815d",
"fr c #99815f",
"en c #998160",
"ge c #998261",
"ci c #998262",
"bp c #998466",
"#V c #998870",
"do c #998a73",
"cO c #99938a",
"cL c #999693",
"c5 c #999792",
"ft c #9a665b",
"gn c #9a6c5e",
"hH c #9a7e57",
"hF c #9a7e58",
"#r c #9a7f57",
"go c #9a7f58",
".w c #9a7f59",
"#K c #9a7f5a",
"dz c #9a7f5b",
"aA c #9a8058",
"bE c #9a8059",
"a# c #9a805a",
"bC c #9a805b",
"bH c #9a805c",
"cs c #9a805d",
"bV c #9a805e",
"b0 c #9a815c",
"d. c #9a815d",
"bY c #9a815f",
"bn c #9a825e",
".L c #9a825f",
"eP c #9a8260",
"eN c #9a8261",
"gd c #9a8262",
"eA c #9a8361",
"c1 c #9a8363",
"eq c #9a8364",
"e3 c #9a8365",
"ey c #9a8463",
"cd c #9a8465",
"cY c #9a8466",
"cj c #9a8567",
"#w c #9a9389",
"#W c #9a968f",
"bT c #9a978f",
"b. c #9a9792",
"gl c #9b675b",
"fN c #9b7261",
"af c #9b7f59",
"eR c #9b7f5a",
"hG c #9b8059",
"aa c #9b805a",
"g2 c #9b805b",
".A c #9b815a",
"bA c #9b815b",
"b2 c #9b815c",
"#R c #9b815d",
".B c #9b815e",
".V c #9b825d",
"dA c #9b825e",
".O c #9b825f",
"#5 c #9b8260",
"dg c #9b8360",
"ad c #9b8361",
".K c #9b8362",
"e4 c #9b8363",
"ez c #9b8364",
"f0 c #9b8463",
"at c #9b8464",
".C c #9b8465",
"el c #9b8466",
"c9 c #9b8564",
"fG c #9b8565",
"dm c #9b8566",
"em c #9b8567",
"dP c #9b8568",
"d6 c #9b8667",
"gz c #9b8668",
"dO c #9b8669",
"cc c #9b866a",
"cZ c #9b876b",
"cD c #9b876c",
".8 c #9b9183",
"#y c #9b9791",
"cv c #9b9891",
"cP c #9b9893",
"f6 c #9c665b",
"gB c #9c685b",
"gi c #9c7c5f",
"aB c #9c805a",
"aD c #9c815a",
"bF c #9c815b",
"aC c #9c815c",
"bB c #9c815d",
"ew c #9c825f",
"b1 c #9c8260",
"ax c #9c835e",
"d3 c #9c835f",
"#6 c #9c8360",
"hD c #9c8361",
".P c #9c8362",
"c. c #9c8461",
"a1 c #9c8462",
"fF c #9c8463",
"da c #9c8464",
"d# c #9c8465",
"#7 c #9c8563",
"ek c #9c8564",
"fl c #9c8565",
"aw c #9c8566",
"ei c #9c8567",
"f2 c #9c8568",
"e2 c #9c8667",
"av c #9c8668",
"ac c #9c8669",
"e1 c #9c8768",
"dS c #9c876b",
"au c #9c886d",
"cf c #9c886e",
"cE c #9c896f",
"cB c #9c8970",
"eb c #9c8971",
"cC c #9c8a71",
"cT c #9c8a72",
"#P c #9d815b",
"ht c #9d825a",
"cI c #9d825c",
"ga c #9d825d",
"#S c #9d825e",
"gv c #9d835d",
"gu c #9d835e",
"ag c #9d835f",
".U c #9d8360",
"dB c #9d8361",
"cq c #9d845e",
"bD c #9d845f",
"ba c #9d8461",
"a. c #9d8462",
".W c #9d8562",
"fS c #9d8563",
"df c #9d8564",
"dK c #9d8565",
"eM c #9d8669",
"hJ c #9d8767",
"fk c #9d8768",
"as c #9d8769",
"c7 c #9d876a",
"e5 c #9d886c",
"dT c #9d896d",
"ch c #9d896f",
"hy c #9d8970",
"cm c #9d8a70",
"gw c #9d8a71",
"ce c #9d8a72",
"cz c #9d8a73",
"hx c #9d8b72",
"cX c #9d8b73",
"dN c #9d8b74",
"aP c #9d8b75",
"cG c #9d8c75",
"cx c #9d8c76",
"#A c #9d9890",
"#1 c #9d9991",
"ao c #9d9992",
"cM c #9d9a96",
"gU c #9e6d5f",
"bi c #9e825c",
"hv c #9e825d",
"hu c #9e835d",
"cr c #9e835e",
"ae c #9e835f",
"hw c #9e845e",
"fd c #9e845f",
"a2 c #9e8460",
"bd c #9e8461",
"bs c #9e8560",
"#N c #9e8561",
"es c #9e8562",
"dy c #9e8563",
"bc c #9e8564",
"bI c #9e8664",
"bb c #9e8665",
"bo c #9e8666",
"cp c #9e8667",
"dc c #9e8766",
"de c #9e8767",
"bm c #9e8769",
"dd c #9e8869",
"dp c #9e886a",
"c8 c #9e886b",
"eK c #9e886c",
".H c #9e886d",
"cH c #9e896d",
"ar c #9e8a6e",
"#9 c #9e8a6f",
".J c #9e8a70",
"dR c #9e8a71",
"dY c #9e8a72",
"#4 c #9e8b70",
"gA c #9e8b71",
"cn c #9e8b73",
"hz c #9e8c74",
"aq c #9e8c75",
"cg c #9e8c77",
"cU c #9e8d77",
"cV c #9e8d78",
"aQ c #9e8d79",
"e. c #9e8e79",
"e# c #9e8e7a",
"f7 c #9f665b",
"hn c #9f685b",
"ay c #9f845f",
".T c #9f8460",
"al c #9f8560",
".S c #9f8561",
"#O c #9f8662",
"fB c #9f8663",
"bJ c #9f8664",
"d2 c #9f8665",
"ef c #9f8764",
"hI c #9f8766",
"dj c #9f8767",
"he c #9f8768",
"dt c #9f8869",
"hi c #9f886b",
"hB c #9f8870",
"dv c #9f8968",
"aS c #9f896b",
"db c #9f896c",
".I c #9f8a6f",
"az c #9f8b6f",
"aE c #9f8c70",
".G c #9f8c72",
"aR c #9f8c74",
"d0 c #9f8d75",
".D c #9f8d76",
"dM c #9f8d77",
"dZ c #9f8e78",
"hA c #9f8e79",
"ck c #9f8f7b",
"ec c #9f8f7c",
"d9 c #9f8f7d",
"cF c #9f907e",
"fg c #9f917f",
"gY c #a0665b",
"fK c #a0675b",
"fJ c #a0785f",
"bj c #a08560",
"bh c #a0865f",
"fy c #a08662",
"dH c #a08663",
".3 c #a08764",
"fp c #a08765",
"dx c #a08767",
"hN c #a08865",
".2 c #a08866",
"gs c #a08869",
"du c #a08968",
"be c #a08969",
"## c #a08a6d",
"dw c #a08b6d",
"hg c #a08c70",
"fH c #a08d75",
"e6 c #a08e76",
"dQ c #a08e78",
"dU c #a08f78",
".E c #a08f79",
"d1 c #a0907b",
"gt c #a0907c",
"co c #a0917f",
".9 c #a09281",
"cA c #a09383",
"cl c #a09384",
"ca c #a09e99",
"gD c #a1695b",
"fu c #a17560",
"gk c #a1765a",
"ak c #a18762",
"fa c #a18763",
"aT c #a18765",
"dE c #a18867",
".Q c #a18969",
"dC c #a1896b",
"aL c #a18a69",
"dl c #a18a6a",
"di c #a18a6c",
"dq c #a18a6d",
"hM c #a18b6a",
"ee c #a18b6b",
"hd c #a18b6d",
"hK c #a18b6f",
"dk c #a18c71",
"#8 c #a18c72",
"#b c #a18d73",
"hC c #a18e74",
"eL c #a18e75",
"d8 c #a18f78",
"eJ c #a18f7a",
"fC c #a1907a",
"e8 c #a1917e",
"eX c #a19280",
"eY c #a19382",
"aO c #a19384",
"cy c #a19587",
"cW c #a19689",
"hj c #a26c5e",
"gE c #a2846e",
"gc c #a28762",
".y c #a28763",
".z c #a28862",
".Z c #a28864",
"ex c #a28865",
"fq c #a28964",
"aV c #a28966",
"hl c #a28967",
"gq c #a28b6d",
"dD c #a28c6e",
"bf c #a28c6f",
"ff c #a28d70",
"dh c #a28d73",
"#d c #a28e74",
"aN c #a28e76",
"#e c #a28f78",
"#a c #a29077",
"dV c #a29079",
"hh c #a2907a",
"dW c #a2917b",
"ha c #a2927d",
"fD c #a2927f",
"eW c #a29381",
".F c #a29484",
"gy c #a29688",
"ea c #a2968a",
"ai c #a29f99",
"f8 c #a3685b",
"hk c #a36c5d",
"fj c #a38170",
"gb c #a38862",
"fX c #a38864",
"#l c #a38964",
"fA c #a38965",
".1 c #a38b67",
"dF c #a38c6e",
"ds c #a38e70",
"hL c #a38f73",
"#. c #a38f75",
"d7 c #a39177",
"hf c #a3917a",
"fe c #a3917c",
"f1 c #a3937e",
"fE c #a39381",
"#f c #a39483",
"e9 c #a39484",
"ed c #a39584",
"e7 c #a39586",
"#3 c #a39b8f",
"f9 c #a4735b",
"fh c #a48678",
"#m c #a48a64",
"aI c #a48a65",
"gH c #a48a66",
"fP c #a48a67",
"hm c #a48a69",
"fT c #a48b66",
"fW c #a48b67",
"a7 c #a48b68",
"ej c #a48c6c",
"g1 c #a48d6c",
"#J c #a48e71",
"eS c #a4937f",
"fY c #a49380",
"#c c #a49582",
"eT c #a49685",
"f. c #a49686",
"e0 c #a4988c",
"er c #a4998e",
"eZ c #a49b90",
"#z c #a4a29d",
"gC c #a5695b",
"gZ c #a58368",
"bQ c #a58a64",
"a8 c #a58a65",
"fV c #a58b66",
"an c #a58b67",
"aZ c #a58c69",
"bk c #a58c6a",
".R c #a58c6c",
"#H c #a58d6b",
"gI c #a58d6e",
"eI c #a58e6d",
"dr c #a58e6f",
"gX c #a58f71",
"gJ c #a59176",
"dL c #a5947f",
"#h c #a59582",
"#i c #a59682",
"hc c #a5988c",
"gx c #a59c96",
"fL c #a66b5c",
"gj c #a6705e",
"gr c #a68b66",
"bg c #a68c6b",
"g. c #a68d6a",
"#G c #a68e6d",
"#E c #a68f70",
"f# c #a69074",
"gO c #a6937c",
"gK c #a6947d",
"hb c #a69c93",
"gV c #a7685b",
"g8 c #a78c69",
"fU c #a78d6a",
"fM c #a78e71",
"fz c #a78f6c",
"#p c #a78f6d",
"hr c #a78f6f",
"#F c #a79072",
"a0 c #a79379",
"gN c #a7957f",
"gP c #a7967f",
"gM c #a79680",
"h# c #a79785",
"dX c #a79c92",
"eV c #a7a09c",
"g5 c #a88e69",
"hs c #a8906f",
"#D c #a89070",
"h. c #a8957c",
"gT c #a89884",
"eU c #a89a88",
"fZ c #a89b8d",
"#g c #a89c90",
"gW c #a96d5d",
"fO c #a98d71",
"aU c #a9916f",
"#C c #a99882",
"gS c #a99884",
"gL c #a99a88",
"gm c #aa695b",
"g9 c #aa906c",
"#o c #aa906d",
"g3 c #aa967e",
"g# c #aa9780",
"aW c #aa9b89",
"ho c #ab866d",
"fQ c #ab9270",
"dG c #ab967a",
"#I c #ab9982",
"g6 c #ac9370",
"aY c #ac9371",
"gQ c #ac9d8d",
"g7 c #ad9371",
"gG c #ad9470",
".0 c #ad9472",
"gR c #ad9e8d",
"hU c #adb1bf",
"g4 c #ae9571",
"hW c #aeb4c6",
".f c #afb5c6",
"#n c #b09875",
"hp c #b09878",
"hE c #b0b3c2",
"#k c #b19a7a",
"aX c #b19e86",
"#j c #b1a08a",
".j c #b1bad1",
".k c #b3c0dd",
"hV c #b4c2e2",
".a c #b4c3e2",
"b3 c #b5c3e4",
".s c #b5c4e5",
"fx c #b5c5e7",
"hX c #b5c5e8",
".d c #b6c5e7",
".h c #b6c7eb",
"hT c #b6c8ec",
".l c #b6c9ee",
".q c #b7c8ed",
"hP c #b7c8ee",
".i c #b7c9ef",
"ev c #b7caf1",
"hZ c #b7caf2",
"hY c #b7cbf2",
"fR c #b7cbf3",
".# c #b8cbf3",
".e c #b8ccf4",
".c c #b8ccf5",
".t c #b8ccf6",
".p c #b8cdf6",
".b c #b8cdf7",
"hS c #b8cdf8",
"#q c #b9cdf7",
"hO c #b9cef8",
"hq c #b9cef9",
"hQ c #b9cefa",
"hR c #b9cffa",
".r c #b9cffb",
".g c #b9cffc",
"eQ c #b9d0fc",
".m c #b9d0fd",
".Y c #b9d0fe",
"c3 c #bacffb",
"fb c #bad0fd",
"Qt c #bad0fe",
".n c #bad1fe",
".o c #bad1ff",
"Qt.#.a.b.c.d.e.f.g.h.i.e.j.k.lQt.mQt.n.oQt.nQtQt.p.q.r.o.o.g.s.o",
".t.u.v.w.x.y.z.A.B.C.D.E.F.G.H.I.J.K.L.M.N.O.P.Q.R.S.T.U.V.W.X.Y",
".o.Z.0.1.2.3.4.5.6.7.8.9#.###a#b#c#d#e#f#g#h#i#j#k#l#m#n#o#p#j#q",
".n#r#s#t#u#v#w#x#y#z#A#B#C#D#E#F#G#H#E#I#J#K.v#L#M.X#N#O#P#Q#R#S",
".o#T#U#V#W#X#Y#Z#Y#0#1#2#3#4#5#6#7#8#a#9a.a##M.waaabacad.Xa#ae#6",
".oafagahaiajakalaman#Yaoapaq#9arasatauavawax.Aay.Qas.9azaAaBaC#U",
".oaDaEaFaGaHaIaJabaKaL#Y#xaMaNaOaPaQaRaR.9aSaTaUaV#JaWaXaYaZa0a1",
".oa2a3a4#Ya5.Va6a7#Ua8a9b.b#babbbcbdbbbebfbebgbhbi.zbjakbkbl#Jbm",
"bnbobpbq#YbrbsaJbtbubvbwbxby.XbzbAbBa##KbCa2bD.w.waAafbEbFbG.O.K",
"bHbIbJbKbLbMbNbObPbQbRbSbTbUbVa6bWbXbnbYbZbHbCb0bC.wbCb1ax#rb2b3",
"b4b5.Xb6b7b8#Yb9bIc.c#cacbcccdcdcecfcgch.Ccicjckclcmchcncocpcq.o",
".vcrcsctcubT#Y#Y#0bOcvcwcxcyczcAcBcCcjcDcEcFcCczcccGczcBaQcHcI.o",
".McJcKcLcMcNcOcPcQcRcScTccczcUcVcVaucWcXcYcdcZcdcic0cic1cic2.N.o",
"c3c4c5c6c7.K.Uc8awc9d.d#dadbdcddasdedfbHdgdhdidjdfdfa1dkdldmaC.J",
".Ydndodpdqdrdsdjdtdudvdwbedxdydzb0dAba.KdBdubededCdDdEdFdGaldHbY",
".odIdJdKckdLdMdNcBdOdPaPdQdRdSdOdT.DdUazdVdWdXdY.DdZd0d1d2a#d3at",
".od4d5d6cBd7d8aPcedNdNcVcVd9aQe.e.e#cee.eacFcWcAebeceaedeebeef.L",
".oegeheicZejekc1dPebdPdPdSelemc1eneoepdPcceqcjcccecc.9ereseteeeu",
"ev.waCewadexdadmeyez.K.KeAeBeCcseDeDbz#UeDeE#UeDbHeBeueFbzeGbdeH",
"bZ.wagcHdbeIeJeKaseLeMa1eN#UbzeHeOa6ePawePeCbYePePda.Kaba2.ZageQ",
".BeR#NeSeTeUeVeWeXeXckeYeZe0e1e2e3e4.Ee5d1e6e7e8e9f.e7#hf#fab2fb",
".vfcfdasfedDcYffaqcEcZcEaPebebcBcFdNcEcYfgcgfhfifjcEecfkflesag.o",
"fm#Tfnfofp.SfqefeoeneobZeBeueDeDbXfreNcidTcgfsftfuezbYcsfvfwcI.n",
"fxfy#RdrfzaIfA.SfBfCfDfE.HfFekeNfGacc8.IfHfIfJfKfLfMfNfOfPfQdH.B",
"fRfSakfTfUfVfWaZfXdDfYd8fHfZfkezf0azf1f2f3f4f5f6f7fKf8f9cIg.g#e2",
".YgaafgbgcbI.B.V.va#cigdeNgegfggghcicceqgigjgkglfKgmgndAgo.wgpeD",
".YgqbQgrgse#gtgugvbJaQgwdPcze.fgaPgxgygzemgAgBgCgmgDgEa.bF.Xa6bZ",
"dgaNgFgGdubmdrgH#lgIgJgKgLgMgNgOgPgQgRgSgTgUgVgWgXgmgYgZekg0g1cs",
"g2g3g4g5akg6g7g8g9h.h#hahbhchdhedphfhghhhihjhk#Ghlhmhnho.0g6hphq",
"eOhrhsg5hthuhvhw.UeccUcXhxhxchchhyhzcnaQhAhBhChDaxfdcraybDguhE.o",
"eEaahFaghGhHeO.ubz.wbChIhJhKhLbadddphDa#f0.B.VhMd2d3hNfpagcIax.o",
"hqhOeQ.mhPhQ.ohR.r.ohS.gfx.ghThU.o.tfR.b.ihV.shW.c.Y.ohXhY.YhZ.o"};
