/* XPM */
static char *dummy[]={
"32 32 606 2",
"af c #9f82e6",
"b# c #a083e6",
"ag c #a083e7",
"aV c #a084e7",
"aA c #a085e7",
"bF c #a181da",
"#V c #a185e7",
"aB c #a186e7",
"ai c #a186e8",
".7 c #a187e8",
"aU c #a188e8",
"b1 c #a286e6",
".P c #a288e8",
"ah c #a289e8",
"#C c #a289e9",
"ae c #a28ae9",
"#X c #a28be9",
"bn c #a384dc",
"aC c #a389e8",
"a7 c #a38ae3",
".O c #a38ae8",
"#U c #a38ae9",
".9 c #a38ce9",
"c3 c #a38cea",
"a8 c #a38de9",
"#R c #a38dea",
"#b c #a38eea",
"c0 c #a3af7f",
"bm c #a486d5",
"cg c #a489dc",
"#w c #a48be9",
"dj c #a48ce9",
".N c #a48de9",
"#z c #a48fea",
"ci c #a48feb",
"#D c #a490eb",
"c4 c #a496e3",
"a6 c #a581c8",
"b0 c #a585d5",
"#s c #a58ce9",
"di c #a58ee8",
"#c c #a58eea",
"dn c #a591db",
"#0 c #a591eb",
"#e c #a592eb",
"ea c #a593e6",
"cH c #a593eb",
"ba c #a593ec",
"az c #a594ec",
"#d c #a690ea",
"a9 c #a691eb",
"do c #a694ec",
"bK c #a695ec",
"bI c #a696ed",
"#A c #a697ed",
"c1 c #a6b37b",
"aJ c #a75f6e",
"#L c #a76271",
"aL c #a76373",
"#Q c #a77aa5",
"d8 c #a792eb",
"b. c #a793eb",
".Q c #a794ec",
"dk c #a795e4",
"#x c #a795ec",
"dJ c #a796de",
"cD c #a798ea",
"#Y c #a798ed",
"ch c #a799ed",
"bH c #a799ee",
"bG c #a79aee",
"aI c #a86272",
"#P c #a8687a",
"a# c #a8697a",
"a5 c #a8708f",
"dF c #a88fdd",
"e# c #a896ec",
"bo c #a89aee",
"dM c #a89bdc",
"cE c #a89bee",
"aj c #a89cee",
"#1 c #a89cef",
"cC c #a8a1c0",
".1 c #a96270",
"bw c #a96776",
"aq c #a9697a",
"ar c #a96a7b",
"aK c #a96b7d",
".F c #a96c7e",
"#H c #a96c7f",
"#i c #a96d7f",
"at c #a96d80",
"au c #a96e81",
"#r c #a995eb",
"#W c #a998ed",
"#B c #a99eef",
"ad c #a99fef",
"eB c #a9a0d2",
"cA c #a9a0f0",
"eE c #a9b669",
"e9 c #a9b66d",
"a2 c #aa6c75",
"aH c #aa6e80",
".I c #aa6f82",
"ab c #aa6f83",
".J c #aa7084",
".X c #aa7185",
"d7 c #aa93dd",
"#a c #aa9cee",
"eb c #aaa0ce",
"eA c #aaa1c8",
"bJ c #aaa1f0",
"#Z c #aaa2f0",
"aT c #aaa3f0",
"gi c #aab75e",
"fY c #aab76c",
"#m c #ab6b7b",
".s c #ab7387",
".W c #ab798f",
"aF c #ab7a90",
"#O c #ab7b91",
"#M c #ab7b92",
"ev c #ab98db",
"#v c #ab9bed",
"#T c #ab9fef",
"#y c #aba0ef",
"c2 c #aba2c4",
"ck c #aba2f0",
"cZ c #aba4e3",
"cG c #aba4f1",
"e0 c #aba5f1",
"fv c #abb86b",
"fu c #abb96f",
"gh c #abb974",
".0 c #ac6b7a",
"av c #ac7b92",
"aM c #ac7d94",
"aO c #ac7e95",
".V c #ac8098",
"aN c #ac8199",
"ew c #ac9fde",
"dG c #ac9fee",
".R c #aca0ef",
".8 c #aca1ef",
"ay c #aca9f2",
"a4 c #ad6d6e",
"bl c #ad707c",
"#7 c #ad7384",
"bi c #ad7581",
"#o c #ad798e",
".K c #ad7a8f",
"aG c #ad7f97",
"#h c #ad829a",
"#K c #ad86a0",
"ac c #ad95c3",
"dH c #ada0ef",
"cY c #ada4e3",
"aQ c #ada5e3",
"#S c #ada5f0",
"dL c #ada6f1",
"ez c #ada7ba",
"#E c #ada9f3",
".y c #adaaf3",
"d9 c #adabc3",
"cj c #adabf3",
"cF c #adacf3",
"eF c #adba6f",
"bk c #ae737a",
".4 c #ae7a8d",
"#p c #ae7a8e",
"#J c #ae88a3",
"#9 c #ae89a3",
".G c #ae8aa4",
"as c #ae8aa5",
"a1 c #ae8ba6",
"be c #ae8ca7",
"#g c #ae8ca8",
".6 c #aea8f2",
"cB c #aeb1ec",
"dm c #aeb4a9",
"dl c #aebbae",
"fZ c #aebc70",
"ce c #af7a80",
"a0 c #af8aa4",
"ap c #af8da7",
"aZ c #af8eaa",
"aP c #af93b3",
".M c #afa3ef",
"#. c #afa6f1",
".x c #afb0f5",
"aD c #afb1f5",
"e8 c #afbc63",
"eD c #afbc68",
".2 c #b07889",
".Z c #b0798a",
"#l c #b07a8c",
"#8 c #b08095",
"am c #b093b0",
"a. c #b094b1",
"#I c #b095b3",
".v c #b096b4",
"dI c #b0afb9",
"e1 c #b0b4f5",
"bR c #b1766c",
"a3 c #b17a78",
"#G c #b19ab9",
"al c #b19cbb",
"an c #b19dbd",
"aw c #b19ebe",
"eZ c #b1a8df",
"b2 c #b1b1f5",
"dp c #b1b3c0",
".z c #b1b6f7",
"bp c #b1b7f7",
"fW c #b1bf77",
"#q c #b2889e",
"bb c #b28e9b",
"bc c #b2a0bc",
"aa c #b2a3c4",
"dK c #b2a7f0",
"eC c #b2b77e",
"aS c #b2b8f7",
"e. c #b2baa5",
"c5 c #b2bba7",
"dP c #b2bf65",
"cb c #b37b72",
"bC c #b38784",
".5 c #b38ea5",
"ao c #b39fbe",
".u c #b3a6c8",
".w c #b3a6c9",
"aW c #b3b7f6",
"#f c #b3bdf9",
"dq c #b3c05f",
"f. c #b3c172",
"gm c #b3c176",
"fx c #b3c27f",
"bB c #b4877e",
".Y c #b49dba",
"#j c #b4aacd",
"#3 c #b4b0d5",
"#5 c #b4b2d7",
"aX c #b4bcf8",
"gH c #b4c163",
"bx c #b57e6c",
"#u c #b5acf1",
"#t c #b5aef2",
".E c #b5b2d8",
".S c #b5b2f4",
".H c #b5b6dd",
"e6 c #b5be82",
"aR c #b5c0fa",
"gG c #b5c171",
"fX c #b5c479",
".r c #b6b7dd",
"fU c #b6be85",
"dN c #b6c198",
"gJ c #b6c356",
"gI c #b6c357",
"gK c #b6c35c",
"gk c #b6c360",
"gl c #b6c362",
"ed c #b6c463",
"ec c #b6c46c",
"e7 c #b6c46e",
"e2 c #b6c684",
"#2 c #b6c6fb",
"bW c #b78775",
"bv c #b79a9b",
"dh c #b79aa9",
"cx c #b7a96e",
"aE c #b7bce5",
"#N c #b7c2ec",
"#4 c #b7c3ee",
"fA c #b7c466",
"eG c #b7c468",
"gL c #b7c469",
"fz c #b7c46a",
"fw c #b7c46b",
"fB c #b7c46d",
"f0 c #b7c56e",
"gj c #b7c56f",
"f1 c #b7c570",
"f# c #b7c571",
"fy c #b7c573",
"f2 c #b7c574",
"e4 c #b7c575",
"dQ c #b7c578",
"e5 c #b7c582",
"ft c #b7c67f",
"e3 c #b7c681",
"g0 c #b7c682",
"ee c #b7c786",
"eH c #b7c78e",
"ak c #b7c8fc",
"gn c #b7c9aa",
"bX c #b88173",
"b9 c #b88f7b",
"fo c #b8b36d",
".t c #b8bfe7",
"fV c #b8c169",
"g1 c #b8c678",
"dr c #b8c78c",
"g3 c #b8c88c",
"fC c #b8c895",
"bd c #b8c8f3",
"fa c #b8c99c",
"f3 c #b8c9a3",
"cI c #b8cafd",
"gM c #b8cbb8",
"hi c #b8cedb",
"bV c #b99689",
"#n c #b9a0ba",
"cf c #b9acb8",
"dO c #b9c78e",
"g2 c #b9c888",
"gq c #b9ced7",
"gp c #b9cedc",
".A c #b9cefe",
"go c #b9cfe7",
"Qt c #b9d1ff",
".3 c #ba98ae",
"#k c #baaece",
"gZ c #bac591",
"g4 c #bacdca",
"ax c #bacefb",
"hj c #bacfdc",
"aY c #bacffe",
"gr c #bad0ef",
"fD c #bad0f7",
"fb c #bad0f8",
"dR c #bad0f9",
"eg c #bad0fc",
"#F c #bad0ff",
"ef c #bad1fb",
"eI c #bad1fd",
"f5 c #bad1fe",
".c c #bad1ff",
".i c #bad2ff",
"cc c #bb806a",
"bf c #bb8a6f",
"bu c #bb927a",
"bj c #bba59e",
"gg c #bbc386",
"cW c #bbc39e",
"hh c #bbcdef",
"fc c #bbcff6",
"gA c #bbcff8",
"cJ c #bbd1ff",
".# c #bbd2ff",
"bh c #bc886d",
"bE c #bc8873",
"bS c #bc947a",
"dE c #bca29c",
"cz c #bcb698",
"fs c #bcc3a7",
"ex c #bcc5ae",
"gU c #bcc9e8",
"eJ c #bccaec",
"hs c #bccbea",
"gb c #bccce8",
"b4 c #bcccea",
"hd c #bccceb",
"g5 c #bccdec",
"hr c #bcd0f7",
".f c #bcd2ff",
".o c #bcd3ff",
"by c #bd8d70",
"ca c #bd9071",
"#6 c #bdadc9",
"fR c #bdb77b",
"cX c #bdb890",
"ey c #bdc7a6",
"g9 c #bdc7de",
"hf c #bdc7e1",
"b5 c #bdcae1",
"cl c #bdcae2",
"fE c #bdcbe4",
"br c #bdcbe6",
"cK c #bdcbe7",
"bL c #bdd1ff",
"f4 c #bdd2f7",
"hA c #bdd2fe",
"hu c #bdd2ff",
".p c #bdd3ff",
"cd c #be8d6d",
"cu c #be9276",
"cS c #be9585",
"hx c #bec3d5",
"bs c #bec4d6",
"hc c #bec4d7",
"hz c #bec7da",
"gR c #bec8d5",
"bM c #bec9db",
"hm c #bed3f1",
"b3 c #bed3ff",
"hw c #bed4fe",
".b c #bed4ff",
"cV c #bfb46f",
"cy c #bfb881",
"gF c #bfbf89",
"fT c #bfc092",
"f6 c #bfc6cd",
"dS c #bfc7d1",
"## c #bfc9fb",
"c7 c #bfcbdf",
".m c #bfcff8",
"c6 c #bfd0c3",
"hk c #bfd2e0",
"hl c #bfd4f1",
".d c #bfd4ff",
".L c #bfd5ff",
"bA c #c0a288",
"c. c #c0aa92",
"dg c #c0aaa8",
"gf c #c0bc7d",
"fS c #c0bc81",
"d5 c #c0bc8b",
"hy c #c0bdc5",
"bN c #c0bdc6",
"cM c #c0bec3",
"fd c #c0c0c6",
"cm c #c0c2c6",
"h. c #c0c3c1",
"he c #c0c3ca",
"fF c #c0c4c5",
"gB c #c0c5c9",
".e c #c0d5ff",
".B c #c0d6ff",
"bY c #c19a77",
"eV c #c1a986",
"bt c #c1a991",
"bZ c #c1a99a",
"cw c #c1ae89",
"f7 c #c1b7b9",
"eK c #c1b9be",
"ff c #c1c0bd",
"gs c #c1c1b9",
"dT c #c1c3c1",
".h c #c1d5ff",
".l c #c1d6ff",
"bg c #c29a70",
"cT c #c29c74",
"fp c #c2b367",
"gX c #c2b4b0",
"gu c #c2b5b1",
"ei c #c2b7b5",
"eh c #c2b8b1",
"gE c #c2b9af",
"d6 c #c2b9be",
"df c #c2bb90",
"gY c #c2bba5",
"fG c #c2bdb1",
"hg c #c2bdb7",
"g6 c #c2c0b4",
"gN c #c2c0b5",
"cL c #c2c1b7",
".T c #c2cdfb",
".g c #c2d6ff",
"hB c #c2d7ff",
"cv c #c39872",
"bQ c #c3a17f",
"ge c #c3b077",
"fn c #c3b07d",
"eM c #c3b0a6",
"dD c #c3b174",
"eL c #c3b1a7",
"fr c #c3b2aa",
"hp c #c3b3a5",
"fO c #c3b3a8",
"bD c #c3b4a1",
"ek c #c3b4a7",
"fI c #c3b9a6",
"gt c #c3b9a8",
"cq c #c3baa6",
"gV c #c3bdac",
"gz c #c3bdad",
"ht c #c3c4d2",
"hv c #c3d6ff",
".a c #c3d7ff",
"eY c #c4a18c",
"eX c #c4a976",
"dc c #c4ab96",
"fq c #c4ac79",
"eW c #c4ad8a",
"g# c #c4ae9c",
"ej c #c4ae9e",
"b6 c #c4afa4",
"gW c #c4b39d",
"gO c #c4b3a0",
"cU c #c4b47b",
"ga c #c4b6a0",
"g7 c #c4b8ac",
"gw c #c4ba9d",
"f9 c #c4baa0",
"fH c #c4bda7",
"fg c #c4c2ba",
"hn c #c4c7c9",
".D c #c4d7ff",
".U c #c4d8ff",
"bT c #c59669",
"b8 c #c5a480",
"ct c #c5a676",
"gD c #c5a993",
"gS c #c5ab93",
"ha c #c5ac9a",
"fe c #c5ad94",
"fN c #c5ae95",
"d4 c #c5af88",
"gP c #c5b296",
"h# c #c5b397",
"gc c #c5b494",
"gT c #c5b495",
"gQ c #c5b69a",
"eu c #c5b69e",
"g8 c #c5b9a6",
"c8 c #c5c0bc",
".n c #c5d8ff",
".q c #c5d9ff",
"bz c #c69d74",
"fM c #c6a68b",
"bO c #c6a78d",
"cn c #c6a88f",
"et c #c6a982",
"eN c #c6a990",
"es c #c6aa8d",
"gy c #c6ab92",
"el c #c6ac8f",
"fQ c #c6ae8a",
"g. c #c6ae8c",
"gC c #c6af8d",
"hq c #c6b08e",
"hb c #c6b092",
"cp c #c6b18c",
"gv c #c6b191",
"ho c #c6cfdf",
"ds c #c6d5ef",
".j c #c6d9ff",
"d3 c #c7a17d",
"eP c #c7a27f",
"eO c #c7a280",
"db c #c7a484",
"em c #c7a486",
"cr c #c7a588",
"bP c #c7a67e",
"fJ c #c7a680",
"bU c #c7a780",
"gx c #c7a881",
"f8 c #c7a980",
"c# c #c7aa82",
"fh c #c7aa87",
"dC c #c7ac75",
"fL c #c7b083",
"fj c #c7b28c",
"bq c #c7d9ff",
".C c #c7daff",
"cN c #c8a079",
"fl c #c8a07b",
"b7 c #c8a17c",
"gd c #c8a57c",
"dd c #c8a972",
"cs c #c8ab7e",
"fK c #c8b07e",
"de c #c8b988",
"dU c #c8b99d",
"dv c #c8b9a1",
".k c #c8daff",
"co c #c99e74",
"fk c #c99e75",
"dZ c #c99f76",
"eU c #c9a072",
"er c #c9a571",
"fm c #c9a57d",
"fi c #c9a884",
"fP c #c9ab7c",
"c9 c #c9ac92",
"cP c #c9b7ab",
"d2 c #ca9864",
"en c #ca9968",
"cO c #caa074",
"eQ c #caa369",
"dw c #caa98c",
"dY c #cab7ab",
"dV c #cac2b1",
"d0 c #cb9459",
"eS c #cb955b",
"d1 c #cb955d",
"eT c #cb965d",
"dy c #cb9862",
"dz c #cb9d6f",
"cQ c #cbb3a2",
"dW c #cbc2af",
"ep c #cc9356",
"eo c #cc9357",
"eq c #cc9655",
"eR c #cc9759",
"dx c #cc9a68",
"da c #cca073",
"d. c #cca37c",
"dA c #ccad8b",
"cR c #ccad92",
"dt c #cccecb",
"d# c #cda782",
"dB c #cdaf8e",
"du c #cdc7b2",
"dX c #cec6b5",
"Qt.#.a.b.c.c.c.c.d.e.c.c.c.c.c.f.e.#QtQt.#.e.g.h.c.c.c.c.c.cQtQt",
".i.j.k.b.l.a.m.c.c.h.#QtQt.c.b.n.g.cQtQtQt.o.g.l.d.#.c.c.#.n.e.c",
".p.n.q.b.p.r.s.t.c.c.u.v.w.c.p.h.#.c.x.y.z.A.c.#.B.e.d.g.b.C.D.c",
".p.n.d.c.c.E.F.G.H.E.I.J.K.L.p.d.g.M.N.O.P.Q.q.n.g.R.S.T.c.c.e.c",
".U.n.d.V.J.W.X.Y.Z.0.1.2.3.4.5.g.6.7.N.R.8.9#.###a#b#c#d#e#f.c.c",
".d.l.p#g#h.J#i#j#k#l.0#m#n#o#p#q#r#s#t#u#v#w#x#y#z#A#B#C#D#E#F.c",
".c.c.c.c.c#G#H#I#J#K#L#M#N#O#P#Q#D#R#S#T#U#V#W#x#X#Y#Z#C#0#1#2.c",
".c#3#I#4#5#6#7#8#9a.a#.Waaab.Wacad#C#Caeafag#Cahai.7#Xah#Yajak.c",
".calamanaoapaqar.Xas.Fatauavawax.AayazaiaAaj#Y.9aBaC#c#y#yaD.c.c",
".caEaFaGaHaIaJaJaKabaKaLaMaNaOaPaQaRaS#XaeaT#ZaUaV#xaW.zaXaY.e.f",
".c.c#GaZa0a1aua2a3a4#PaLa##ia5a6a7a8a9b.#C.9aVb#aVba#E.c.c.l.n.o",
".c.cbbbcbdbeaKbfbgbhbibjbkblbmbn#DaeaB#0boaUaA#ead#R#ebp.c.Ubq.g",
"brbsbtbubvbwbxbybzbAbBbCbDbEbFbGbHbIaB.7bJaAai#bbKaBaA#D#BbL.D.p",
"bMbNbObPbQbRbSbTbUbVbWbXbYbZb0b1ba#0aV.7ajaUagaUaAaV.9#B#eb2.gb3",
"b4b5b6b7b8b9c.b7c#cacbcccdcecfcg.7.7aUch#b#R#0cibIcicjcj#zck.p.#",
".cclcmcncocpcqcrcsctcucvcwcxcyczbG#B#1cAcBcCcD#ZcE#bcFcGcHcI.ccJ",
"QtcKcLcMcNcOcPcQcRbOcScTcUcVcWcXcY#X#bcZc0c1c2#Xc3#X#0bIc4c5c6.b",
".c.L.dc7c8c9d.d#dadbdcdddedfdgdhdidj.Pdkdldmdn#DcEbJahdodpdqdr.c",
".c.ndsdtdudvdwdxdydzdAdBdCdDdEdF.MdG.QahdHdIdJdKdLcHdMdNdOdPdQdR",
"dSdTdUdVdWdXdYdZd0d1d2d3d4d5d6d7d8#dah.Pd9e.e##e#DeaebecdQedeeef",
"egeheiejekelemeneoepeqereseteuevaA.O#cewexeyezeAeBeCeDeEeFeGeHeI",
"eJeKeLeMeNeOePeQeReSeTeUeVeWeXeYeZe0e1e2e3e4e3e5e6e7e8e9f.f#fafb",
"fcfdfefffgfhfifjfkflcrfmfnfofpfqfrfsftftfufvfwfxfyfzfzfAfBfCfD.c",
"fEfFfGfHfIfJfKfLfMfNfOfPfQfRfSfTfUfVftftfWeFfXfYfZf0f1f2f3f4.b.c",
"f5.#f6cLf7f8f9g.g#gagbgcgdgegfggghgifzgjgkedglgmgngogpgqgr.hb3.c",
".c.cgsgtgugvgwgxgygzgAgBgCgDgEgFgGgHgIgJedgKgLgM.c.p.c.L.#.f.b.c",
".ceIgNgOgPgQgRgSesgTgUb5gVgWgXgYgZg0fyg1g2g3g4.#.f.h.f.L.e.g.c.c",
".cg5g6g7g8g9h.h#hahbhc.chdhehfhghhhihjhkhlhm.ab3Qt.#.c.c.d.c.c.c",
"b3.l.#hnho.fb4cphphqfc.p.bhrhsht.c.#.L.e.ghu.b.l.g.L.B.p.d.d.c.c",
".ehv.ghw.B.cf5hxhyhzhA.h.LhB.ob3.ehB.j.D.g.f.f.e.h.a.L.l.g.g.c.c",
".ccJ.U.l.d.d.c.c.#.e.g.BQtQt.#.c.#.c.o.#cJ.c.c.d.p.c.c.c.c.c.c.c",
".c.ccJ.#.c.c.c.c.c.p.c.c.c.c.c.c.c.c.c.c.c.c.c.c.c.c.c.c.c.c.cQt"};
