/* XPM */
static char *dummy[]={
"32 32 106 2",
"#N c #b9d1ff",
"#c c #bad1ff",
"#d c #bbd1ff",
"#l c #bbd2ff",
"#e c #bcd2ff",
"#J c #bcd3ff",
"#b c #bdd3ff",
"#I c #bdd4ff",
"#t c #bed3ff",
".Q c #bed4ff",
"#k c #bfd4ff",
"#z c #bfd5ff",
".h c #c0bda2",
".j c #c0bda3",
".t c #c0bea2",
".u c #c0bfa1",
".l c #c0bfa2",
".n c #c0bfa9",
"#L c #c0d4ff",
"#g c #c0d5ff",
"#w c #c0d6ff",
".# c #c1bca1",
".i c #c1bca2",
".b c #c1bda1",
"Qt c #c1bda2",
".f c #c1bda3",
".k c #c1bea1",
".c c #c1bea2",
".m c #c1bea3",
"#o c #c1bea4",
"#h c #c1bea5",
".x c #c1bfa1",
".s c #c1bfa2",
".p c #c1bfa3",
".q c #c1c0a1",
"#n c #c1d5ff",
"#a c #c1d6ff",
".a c #c2bca1",
".e c #c2bca2",
".r c #c2bda1",
".g c #c2bda2",
".w c #c2bea1",
".d c #c2bea2",
".y c #c2bea3",
".o c #c2bfa2",
".R c #c2bfa3",
".v c #c2c0a2",
"#C c #c2c3b6",
"#D c #c2c6c2",
"#. c #c2d6ff",
"#m c #c2d7ff",
".G c #c3c6c4",
".6 c #c3d7ff",
"#B c #c4c6bd",
"#v c #c4c7bf",
".9 c #c4d7ff",
"#f c #c4d8ff",
".H c #c5c6bc",
"#F c #c5d8ff",
"#s c #c6c8c0",
".Z c #c6c9c4",
".2 c #c6d8ff",
".5 c #c6d9ff",
".L c #c7cac2",
".M c #c7cbc6",
"#y c #c7cbc7",
".Y c #c7cbc8",
"#G c #c7cccc",
"#r c #c7cdcb",
".8 c #c7d9ff",
"#j c #c7daff",
"#p c #c8ccca",
".I c #c8cdcf",
"#A c #c8ced2",
".4 c #c8daff",
".z c #c9cbc9",
".K c #c9cfd1",
"## c #c9d0d7",
".3 c #c9dbff",
".S c #caced2",
".U c #cad0d5",
".F c #cad1d7",
"#q c #cad1da",
".T c #cad2d9",
".0 c #cad7eb",
"#E c #cad8eb",
"#M c #cad9e9",
".P c #cadbff",
".1 c #cadcff",
"#x c #cbd1da",
".W c #cbd2da",
".A c #cbd2db",
"#u c #cbd2de",
".J c #cbd5e2",
"#H c #cbdcff",
".E c #ccd4e1",
".D c #ccd4e2",
".V c #ccd5e1",
".B c #ccd6e4",
"#K c #ccd8eb",
".7 c #ccdcff",
"#i c #cdd4e3",
".C c #cdd7e7",
".X c #cdd7e9",
".N c #cedbf4",
".O c #cedeff",
"Qt.#.a.aQtQt.#.aQt.aQtQtQtQtQt.aQtQtQt.bQtQt.c.dQtQtQtQtQt.d.d.d",
"QtQt.a.e.a.aQtQtQtQtQtQtQt.fQtQtQt.b.b.bQtQtQt.dQtQtQtQtQtQt.d.d",
"Qt.aQt.dQtQtQtQtQtQtQtQtQtQtQtQt.aQt.e.bQtQtQtQtQt.d.dQtQtQtQtQt",
"QtQtQtQtQtQtQtQtQt.g.h.gQt.gQtQt.#QtQtQtQtQtQtQtQtQtQtQtQtQtQtQt",
"QtQtQt.cQtQtQtQtQtQtQtQtQt.eQtQtQtQtQt.i.jQtQtQtQtQtQtQtQtQtQtQt",
"QtQt.i.b.bQtQtQtQtQtQtQtQtQtQtQt.aQtQt.aQtQtQt.bQtQtQtQt.k.lQtQt",
"QtQtQt.eQtQtQtQt.bQtQtQtQtQt.aQtQtQtQt.b.aQtQt.#QtQtQtQtQtQtQtQt",
"QtQtQtQtQtQtQtQt.a.#QtQt.aQt.aQtQtQtQtQtQtQt.f.mQtQtQtQtQtQtQt.n",
"Qt.#QtQt.a.bQtQtQt.aQtQtQtQtQtQtQtQt.aQtQtQtQtQtQtQt.cQtQt.d.dQt",
".#QtQtQt.aQt.a.eQtQtQt.g.e.eQtQtQtQtQtQtQtQtQtQtQtQtQtQtQtQtQtQt",
".#.a.bQtQtQtQt.aQtQt.a.oQtQtQtQtQtQtQtQtQt.p.c.kQtQtQt.l.q.cQtQt",
"QtQtQt.aQtQtQtQtQtQt.a.rQt.a.d.sQt.c.sQtQtQt.k.t.gQtQtQtQtQtQtQt",
"QtQtQt.g.a.e.g.iQtQtQt.gQtQtQtQtQt.b.#.o.#Qt.sQtQtQtQtQtQt.l.u.k",
".a.a.aQtQtQt.a.aQt.s.f.hQt.hQtQtQt.gQt.hQtQt.e.o.v.v.cQtQtQtQt.c",
"Qt.aQtQt.gQt.a.e.wQt.a.e.c.x.fQtQtQt.e.f.hQtQtQtQtQtQtQt.s.cQtQt",
"QtQt.aQt.a.a.aQtQtQtQt.aQtQtQtQtQtQtQtQt.a.c.v.oQt.hQtQtQtQt.j.f",
".aQtQtQt.yQtQtQtQtQtQtQtQt.#QtQtQt.g.c.a.fQtQtQt.z.A.B.C.D.E.F.G",
".yQtQtQtQtQtQtQt.yQt.y.y.y.sQtQtQt.f.f.f.f.f.H.I.J.K.L.M.N.O.P.Q",
"QtQt.fQtQtQtQtQt.mQt.yQt.RQtQtQt.S.T.U.V.W.X.Y.Z.0.1.P.2.3.4.5.6",
"QtQtQtQtQtQtQtQtQtQtQt.fQt.yQtQt.W.7.8.5.4.3.4.4.4.3.5.9#.#..6.6",
"QtQtQtQtQtQtQtQtQt.f.fQtQtQtQt.f###a#b#c#d#c#c#e.Q#e#f.6#g#c#c#d",
"QtQtQt.fQtQtQtQtQtQt.f.f.c.sQt#h#i#j#k.Q#k#l.5.6#c#c#k#m#k#n#a#l",
"QtQtQtQtQtQtQtQtQt.f.p#o#h.fQt#p#q#m#n#b.9.6#l#c#d#l#e#l#c#c#c#c",
"QtQtQtQtQtQtQt.sQt.c.s.s.f.fQt#r#s#c#e#n.6#m.6.9.6#n#c#c#c#g#t#c",
"QtQtQtQtQtQtQt.cQtQtQtQt.f.c.s#u#v#c#k#g.9#..6.6.6#a#c#c#w#a#b#c",
"QtQtQtQtQtQtQtQtQtQtQtQtQt.s.c#x#y#c#f#d#b#b#k#z#g#b#c#c#b#b#l#c",
"QtQtQtQtQtQtQtQtQtQtQtQtQt.c.c#A#B#c#g#l#c#c#d#c#c#e#k#b#c#c#c#c",
"QtQtQtQtQtQtQtQtQtQtQt.s.sQt.c#C#q#.#b#t#.#e#l#g#b#c#z#g#l#.#b#c",
"QtQtQtQtQtQtQt.cQtQtQtQtQtQtQt#D#E#F#m#c#g#z#n#k#g#b#l#l#e#..Q#l",
"QtQtQtQtQtQt.c.s.sQtQtQtQt.sQt#G#H#I#J#b#I#k#I#e#l#l#c#l.Q#b#k#b",
"QtQtQtQtQtQtQtQt.f.m.s#h.f.pQt#K.8#t#c#g#e#l.Q#L#k.Q#b#k#z#e#l#c",
"QtQtQtQtQtQtQt.fQt#hQtQt.fQtQt#M#g#c#e#L#e#c#J#k#e#b#k#e#e#l#c#N"};
