/* XPM */
static char *dummy[]={
"32 32 106 2",
"Qt c #b9d1ff",
".# c #bad1ff",
".F c #bbd1ff",
".a c #bbd2ff",
".b c #bcd2ff",
".e c #bcd3ff",
".d c #bdd3ff",
".t c #bdd4ff",
".n c #bed3ff",
".m c #bed4ff",
".c c #bfd4ff",
".l c #bfd5ff",
"#y c #c0bda2",
"#x c #c0bda3",
"#J c #c0bea2",
"#F c #c0bfa1",
"#G c #c0bfa2",
"#N c #c0bfa9",
".f c #c0d4ff",
".g c #c0d5ff",
".M c #c0d6ff",
"#w c #c1bca1",
"#I c #c1bca2",
"#H c #c1bda1",
".i c #c1bda2",
".j c #c1bda3",
"#E c #c1bea1",
".w c #c1bea2",
".s c #c1bea3",
".U c #c1bea4",
".k c #c1bea5",
"#C c #c1bfa1",
".r c #c1bfa2",
".q c #c1bfa3",
"#M c #c1c0a1",
".y c #c1d5ff",
".L c #c1d6ff",
"#u c #c2bca1",
"#B c #c2bca2",
"#L c #c2bda1",
"#v c #c2bda2",
"#D c #c2bea1",
"#K c #c2bea2",
".3 c #c2bea3",
"#z c #c2bfa2",
"#d c #c2bfa3",
"#A c #c2c0a2",
".E c #c2c3b6",
".C c #c2c6c2",
".x c #c2d6ff",
".z c #c2d7ff",
"#m c #c3c6c4",
".N c #c3d7ff",
".G c #c4c6bd",
".P c #c4c7bf",
".O c #c4d7ff",
".I c #c4d8ff",
"#l c #c5c6bc",
".A c #c5d8ff",
".R c #c6c8c0",
".8 c #c6c9c4",
".4 c #c6d8ff",
".V c #c6d9ff",
"#h c #c7cac2",
"#g c #c7cbc6",
".J c #c7cbc7",
".9 c #c7cbc8",
".v c #c7cccc",
".S c #c7cdcb",
".o c #c7d9ff",
".W c #c7daff",
".T c #c8ccca",
"#k c #c8cdcf",
".H c #c8ced2",
".0 c #c8daff",
"#t c #c9cbc9",
"#i c #c9cfd1",
".Y c #c9d0d7",
".Z c #c9dbff",
"#c c #caced2",
"#a c #cad0d5",
"#n c #cad1d7",
".D c #cad1da",
"#b c #cad2d9",
".7 c #cad7eb",
".B c #cad8eb",
".h c #cad9e9",
".5 c #cadbff",
".6 c #cadcff",
".K c #cbd1da",
".2 c #cbd2da",
"#s c #cbd2db",
".Q c #cbd2de",
"#j c #cbd5e2",
".u c #cbdcff",
"#o c #ccd4e1",
"#p c #ccd4e2",
"## c #ccd5e1",
"#r c #ccd6e4",
".p c #ccd8eb",
".1 c #ccdcff",
".X c #cdd4e3",
"#q c #cdd7e7",
"#. c #cdd7e9",
"#f c #cedbf4",
"#e c #cedeff",
"Qt.#.a.b.b.c.d.b.c.e.#.b.f.b.#.g.h.i.i.j.i.i.k.i.j.i.i.i.i.i.i.i",
".#.a.b.l.c.d.m.c.f.m.a.b.g.#.n.o.p.i.q.j.k.r.s.j.i.i.i.i.i.i.i.i",
".d.c.d.m.a.#.a.a.b.t.c.t.d.e.t.u.v.i.r.i.i.i.i.r.r.w.i.i.i.i.i.i",
".a.m.x.b.a.a.d.g.c.y.l.g.#.z.A.B.C.i.i.i.i.i.i.i.w.i.i.i.i.i.i.i",
".#.d.x.a.g.l.#.d.g.a.b.x.n.d.x.D.E.w.i.r.r.i.i.i.i.i.i.i.i.i.i.i",
".#.#.#.#.d.c.b.#.#.F.#.#.a.g.#.G.H.w.w.i.i.i.i.i.i.i.i.i.i.i.i.i",
".#.a.d.d.#.#.d.g.l.c.d.d.F.I.#.J.K.w.r.i.i.i.i.i.i.i.i.i.i.i.i.i",
".#.d.L.M.#.#.L.N.N.N.x.O.g.c.#.P.Q.r.w.j.i.i.i.i.w.i.i.i.i.i.i.i",
".#.n.g.#.#.#.y.N.O.N.z.N.y.b.#.R.S.i.j.j.r.r.w.i.r.i.i.i.i.i.i.i",
".#.#.#.#.a.b.a.F.#.a.N.O.d.y.z.D.T.i.j.k.U.q.j.i.i.i.i.i.i.i.i.i",
".a.L.y.c.z.c.#.#.N.V.a.c.m.c.W.X.k.i.r.w.j.j.i.i.i.i.i.i.j.i.i.i",
".F.#.#.g.N.I.b.m.b.#.#.F.#.d.L.Y.j.i.i.i.i.j.j.i.i.i.i.i.i.i.i.i",
".N.N.x.x.O.V.Z.0.0.0.Z.0.V.o.1.2.i.i.3.i.j.i.i.i.i.i.i.i.i.i.i.i",
".N.V.0.Z.4.5.6.7.8.9#..2###a#b#c.i.i.i#d.i.3.i.s.i.i.i.i.i.j.i.i",
".m.5#e#f#g#h#i#j#k#l.j.j.j.j.j.i.i.i.r.3.3.3.i.3.i.i.i.i.i.i.i.3",
"#m#n#o#p#q#r#s#t.i.i.i.j#u.w#v.i.i.i#w.i.i.i.i.i.i.i.i.3.i.i.i#u",
".j#x.i.i.i.i#y.i#z#A.w#u.i.i.i.i.i.i.i.i#u.i.i.i.i#u#u#u.i#u.i.i",
".i.i.w.r.i.i.i.i.i.i.i#y.j#B.i.i.i.j#C.w#B#u.i#D#B#u.i#v.i.i#u.i",
".w.i.i.i.i.w#A#A#z#B.i.i#y.i#v.i.i.i#y.i#y.j.r.i#u#u.i.i.i#u#u#u",
"#E#F#G.i.i.i.i.i.i.r.i#w#z#w#H.i.i.i.i.i#v.i.i.i#I#v#B#u#v.i.i.i",
".i.i.i.i.i.i.i#v#J#E.i.i.i.r.w.i.r#K#u.i#L#u.i.i.i.i.i.i#u.i.i.i",
".i.i.w#M#G.i.i.i#E.w.q.i.i.i.i.i.i.i.i.i#z#u.i.i#u.i.i.i.i#H#u#w",
".i.i.i.i.i.i.i.i.i.i.i.i.i.i.i.i.i.i#B#B#v.i.i.i#B#u.i#u.i.i.i#w",
".i#K#K.i.i.w.i.i.i.i.i.i.i#u.i.i.i.i.i.i.i.i#u.i.i.i#H#u.i.i#w.i",
"#N.i.i.i.i.i.i.i.s.j.i.i.i.i.i.i.i#u.i#u.i.i#w#u.i.i.i.i.i.i.i.i",
".i.i.i.i.i.i.i.i#w.i.i#u#H.i.i.i.i#u.i.i.i.i.i#H.i.i.i.i#B.i.i.i",
".i.i#G#E.i.i.i.i#H.i.i.i#u.i.i#u.i.i.i.i.i.i.i.i.i.i.i#H#H#I.i.i",
".i.i.i.i.i.i.i.i.i.i.i#x#I.i.i.i.i.i#B.i.i.i.i.i.i.i.i.i.w.i.i.i",
".i.i.i.i.i.i.i.i.i.i.i.i.i.i.i#w.i.i#v.i#v#y#v.i.i.i.i.i.i.i.i.i",
".i.i.i.i.i#K#K.i.i.i.i.i#H#B.i#u.i.i.i.i.i.i.i.i.i.i.i.i#K.i#u.i",
"#K#K.i.i.i.i.i.i#K.i.i.i#H#H#H.i.i.i.j.i.i.i.i.i.i.i#u#u#B#u.i.i",
"#K#K#K.i.i.i.i.i#K.w.i.i#H.i.i.i#u.i.i.i.i.i#u.i#u#w.i.i#u#u#w.i"};
