/* XPM */
static char *dummy[]={
"32 32 114 2",
"Qt c #b9d1ff",
".# c #bad1ff",
".i c #bbd1ff",
".a c #bbd2ff",
".b c #bcd2ff",
".e c #bcd3ff",
".d c #bdd3ff",
".j c #bdd4ff",
".u c #bed2ff",
".k c #bed3ff",
".h c #bed4ff",
".c c #bfd4ff",
".g c #bfd5ff",
"#I c #c0bda1",
"#A c #c0bda2",
"#z c #c0bda3",
"#R c #c0bea2",
"#J c #c0bea4",
"#O c #c0bea5",
"#Q c #c0bfa1",
"#M c #c0bfa2",
"#U c #c0bfa9",
".f c #c0d4ff",
".l c #c0d5ff",
".v c #c0d6ff",
"#r c #c1bca2",
"#H c #c1bda1",
"#m c #c1bda2",
".6 c #c1bda3",
"#D c #c1bda4",
"#F c #c1bea1",
"#o c #c1bea2",
"#K c #c1bfa1",
"#q c #c1bfa2",
"#S c #c1bfa3",
"#w c #c1bfa7",
"#P c #c1c0a1",
"#N c #c1c0a2",
"#y c #c1c1b4",
".o c #c1d5ff",
".s c #c1d6ff",
"#n c #c2bca1",
"#E c #c2bca2",
"#p c #c2bda2",
"#G c #c2bea2",
"#T c #c2bfa1",
"#B c #c2bfa2",
"#C c #c2c0a2",
"#L c #c2c0a3",
"#x c #c2c1ae",
".p c #c2d6ff",
".q c #c2d7ff",
"#V c #c3bfa2",
"#e c #c3c6c4",
".t c #c3d7ff",
".x c #c3d8ff",
".r c #c4d7ff",
".m c #c4d8ff",
".7 c #c5c5b8",
"#. c #c5c5b9",
".5 c #c5c6bc",
"## c #c5c7bd",
"#d c #c5d3ef",
".C c #c5d7ff",
".n c #c5d8ff",
".D c #c5d9ff",
".Q c #c6c8bf",
".9 c #c6c8c0",
"#b c #c6c9c2",
"#a c #c6c9c3",
".I c #c6c9c4",
".E c #c6d8ff",
".w c #c6d9ff",
"#t c #c7c9c3",
".1 c #c7cac2",
".P c #c7cac4",
".0 c #c7cbc6",
".J c #c7cbc8",
".A c #c7d9ff",
".X c #c7daff",
"#s c #c8cac5",
".8 c #c8cccb",
"#c c #c8cccc",
".4 c #c8cdcf",
".R c #c8ced3",
".S c #c8d7f4",
".z c #c8daff",
".W c #c8dbff",
"#l c #c9cbc9",
".2 c #c9cfd1",
".B c #c9daff",
".y c #c9dbff",
".O c #cad0d4",
".N c #cad0d5",
"#f c #cad1d7",
".H c #cad7eb",
".F c #cadbff",
".G c #cadcff",
".L c #cbd2da",
"#k c #cbd2db",
"#u c #cbd3dc",
".3 c #cbd5e2",
".U c #cbdcff",
"#g c #ccd4e1",
"#h c #ccd4e2",
".M c #ccd5e1",
"#j c #ccd6e4",
".T c #ccddff",
"#v c #cdd5e2",
"#i c #cdd7e7",
".K c #cdd7e9",
".V c #cddeff",
".Z c #cedbf4",
".Y c #cedeff",
"Qt.#.a.b.b.c.d.b.c.e.#.b.f.b.#.#.#.#.#.#.#.#.#.#.#.#.#.#.#.#.#.#",
".#.a.b.g.c.d.h.c.f.h.a.b.d.#.#.#.#.#.#Qt.a.a.i.#.#.a.d.h.j.#.#.#",
".d.c.d.h.a.#.a.a.b.j.b.a.#.e.e.a.i.#.i.#.#.#.#.#.#.k.l.m.n.o.a.a",
".a.h.p.b.a.a.a.#.#.b.a.#.#.q.r.s.a.#.a.#.i.#.#.#.#.#.e.t.t.k.i.#",
".#.d.p.a.l.g.#.#.i.a.#.#.#.d.c.d.#.g.p.s.g.c.k.#.#.#.#.d.f.#.#.#",
".#.#.#.#.d.c.b.#.#.i.#.#.a.#.#.#.#.l.t.r.p.t.t.t.l.#.#.#.a.k.u.#",
".#.a.d.d.#.#.d.l.g.c.d.d.i.#.#.#.#.d.p.t.c.t.t.r.l.#.#.#.#.l.c.#",
".#.d.s.v.#.#.s.t.t.t.p.r.l.#.#.#.#.#.#.#.#.a.h.h.a.#.#.#.#.a.q.i",
".#.k.l.#.#.#.o.t.r.t.q.t.o.#.#.b.p.s.w.s.#.#.#.#.#.#.#.#.c.t.t.l",
".#.#.#.#.a.b.a.i.#.a.t.r.d.o.s.l.r.t.#.#.#.#.#.d.a.#.#.#.c.t.t.l",
".#.#.#.c.q.c.#.#.a.#.#.c.h.c.x.h.o.o.#.#.#.s.p.s.o.g.a.#.k.k.k.b",
".i.#.#.l.t.m.b.h.#.#.#.i.#.#.#.a.h.h.i.#.p.t.c.l.p.t.t.t.t.t.p.c",
".t.t.p.p.r.w.y.z.z.z.y.z.w.A.B.z.A.z.m.h.o.m.m.C.z.D.t.n.r.r.s.o",
".t.w.z.y.E.F.G.H.I.J.K.L.M.N.O.P.Q.R.S.r.F.T.U.V.W.t.g.l.X.F.m.b",
".h.F.Y.Z.0.1.2.3.4.5.6.6.6.6.6.6.6.6.6.7.8.9#.###a#b.M#c.P#d.T.A",
"#e#f#g#h#i#j#k#l#m#m#m.6#n#o#p#q#m#o#r#r#s#t.0.P#u#v.O.9###w#x#y",
".6#z#m#m#m#m#A#m#B#C#o#n#D#E#m#F#A#G#o#m#H#I#H#A#m#p#m#m#H#m#z#m",
"#m#m#o#q#m#m#m#m#m#m#m#m#J#K#L#B#M#m#m#m#m#m#B#N#G#m#m#m#O.6#m#m",
"#o#m#m#m#m#o#C#C#B#K#m#J.6#m#F#m#m#m#m#m#m#m#m#m#m#m#m#O#P#q#F#m",
"#F#Q#M#m#m#m#m#m#o#q#m#m#A#m#m#m#m#m#m#m#m#m#R#q#m#o#F#m#m#m#m#m",
"#m#m#m#m#m#m#m#m#R#F#F#m#m#A#m#m#m#M#o#F#m#o#P#o#o#o#B#B#q#R#m#m",
"#m#m#o#P#M#m#m#m#F#o#S#H#m#m#m#m#m#N#N#o#m#m#m#m#F#m#m#m#m#m#m#m",
"#m#m#m#m#m#m#m#m#m#m#m#m#m#m#m#m#m#m#m#m#m#m#m#R#o#o#F#T#N#m#m#m",
"#m#G#G#m#m#m#m#m#m#m#m#m#m#m#m#m#m#m#m#m#m#m#m#m#m#m#m#m#m#m#m#m",
"#U#m#m#m#m#m#m#m#m#m#m#m#A#A#A#m#m#m#m#m#m#m#m#m#m#m#m#m#A#m#m#G",
"#m#m#m#m#m#m#m#m#m#m#m#m#m#m#m#m#m#m#A#m#A#m#m#m#m#A#m#m#m#m#m#m",
"#m#m#M#F#m#m#m#m#m#m#m#m#m#m#F#B#m#m#m#m#m#o#m#m#o#M#m#m#m#m#m#m",
"#m#m#m#m#m#m#m#m#m#m#m#m#m#m#F#q#m#m#m#o#G#G#G#q#M#o#m#m#m#G#m#m",
"#m#m#m#m#m#m#m#m#m#m#m#m#m#m#m#m#m#m#m#m#m#m#m#Q#o#M#m#m#m#m#m#m",
"#m#m#m#m#m#G#G#m#m#m#m#m#m#m#m#m#m#m#m#m#m#m#m#m#m#m#m#m#G#m#m#m",
"#G#G#m#m#m#m#m#m#G#m#m#m#m#m#m#m#m#m#m#m#m#m#m#m#m#m#m#m#m#m#m#m",
"#G#G#G#m#m#m#m#m#G#o#m#m#m#m#m#m#m#m#m#m#m#m#m#m#m#m#m#m#m#m#G#V"};
