/* XPM */
static char *dummy[]={
"32 32 106 2",
".l c #b9d1ff",
".j c #bad1ff",
".h c #bbd1ff",
".i c #bbd2ff",
".B c #bcd2ff",
"#a c #bcd3ff",
".k c #bdd3ff",
"## c #bdd4ff",
".s c #bed3ff",
".f c #bed4ff",
".t c #bfd4ff",
".I c #bfd5ff",
".S c #c0bda2",
".n c #c0bda3",
".3 c #c0bea2",
".m c #c0bfa1",
".u c #c0bfa2",
".a c #c0bfa9",
".7 c #c0d4ff",
".A c #c0d5ff",
".H c #c0d6ff",
".1 c #c1bca1",
"#f c #c1bca2",
".0 c #c1bda1",
".# c #c1bda2",
".d c #c1bda3",
".b c #c1bea1",
".c c #c1bea2",
".2 c #c1bea3",
"#M c #c1bea4",
"#x c #c1bea5",
"#I c #c1bfa1",
".D c #c1bfa2",
"#b c #c1bfa3",
".C c #c1c0a1",
".z c #c1d5ff",
".r c #c1d6ff",
"#d c #c2bca1",
".8 c #c2bca2",
"#L c #c2bda1",
".W c #c2bda2",
"#N c #c2bea1",
"Qt c #c2bea2",
"#J c #c2bea3",
".4 c #c2bfa2",
"#K c #c2bfa3",
".R c #c2c0a2",
"#D c #c2c3b6",
"#E c #c2c6c2",
".y c #c2d6ff",
".N c #c2d7ff",
".e c #c3c6c4",
".g c #c3d7ff",
"#u c #c4c6bd",
"#s c #c4c7bf",
".M c #c4d7ff",
".Q c #c4d8ff",
".9 c #c5c6bc",
"#m c #c5d8ff",
"#r c #c6c8c0",
".6 c #c6c9c4",
".L c #c6d8ff",
".q c #c6d9ff",
".P c #c7cac2",
".K c #c7cbc6",
"#t c #c7cbc7",
"#. c #c7cbc8",
"#F c #c7cccc",
"#z c #c7cdcb",
"#i c #c7d9ff",
"#l c #c7daff",
"#y c #c8ccca",
".5 c #c8cdcf",
"#C c #c8ced2",
".x c #c8daff",
".X c #c9cbc9",
".U c #c9cfd1",
"#o c #c9d0d7",
".G c #c9dbff",
"#n c #caced2",
"#h c #cad0d5",
".o c #cad1d7",
"#q c #cad1da",
"#j c #cad2d9",
".Z c #cad7eb",
"#v c #cad8eb",
"#H c #cad9e9",
".p c #cadbff",
".V c #cadcff",
"#B c #cbd1da",
"#e c #cbd2da",
".T c #cbd2db",
"#A c #cbd2de",
".Y c #cbd5e2",
"#w c #cbdcff",
".v c #ccd4e1",
".E c #ccd4e2",
"#g c #ccd5e1",
".O c #ccd6e4",
"#G c #ccd8eb",
"#k c #ccdcff",
"#p c #cdd4e3",
".J c #cdd7e7",
"#c c #cdd7e9",
".F c #cedbf4",
".w c #cedeff",
"QtQt.#.#.#.#.#.a.#.#.#.#.b.c.#.d.e.f.g.g.h.i.j.j.j.j.j.j.i.k.j.l",
"QtQt.#.#.#.#.#.#Qt.#.#.#.m.#.#.n.o.p.q.g.j.r.j.s.k.i.j.k.f.t.i.j",
"Qt.#.#.#.#.u.#.#Qt.#.c.#.u.#.c.#.v.w.x.y.j.z.j.A.r.k.j.y.y.k.B.i",
".#.#.#.#.#.b.#.#.#.#.C.#.#.#.D.#.E.F.G.y.A.t.j.j.H.k.j.i.B.f.I.B",
".#.#.#.#.#.#.#.#.#.#.u.#.#.#.#.#.J.K.L.M.g.N.i.j.j.j.k.A.i.i.t.B",
".#.#Qt.#.#.#.#.#.c.#.#.#.#.c.#.#.O.P.p.q.Q.t.B.j.j.j.t.I.i.j.k.t",
".#.#Qt.#.#.#.#.#.#.#.#.#.#.R.#.S.T.U.V.G.B.j.i.z.r.k.B.j.k.i.f.k",
".#.#.#.#.#.#.#.#.#.#.#.W.#.R.#.#.X.Y.Z.x.f.j.h.g.g.A.j.k.A.i.t.B",
"QtQt.#.#.#.0.1.2.#.#.b.3.#.4.#.4.#.5.6.x.B.g.j.M.g.I.j.A.t.B.7.t",
".c.#.#.#.#.#.#.d.#.#.c.b.D.8.#.R.#.9#..x.j.q.i.g.g.t.h.i.z##.f#a",
".#.#.#.#.#.#.#.#.#.##b.#.#.#.#.c.#.d#c.G.j.i.g.N.y.k.j.B.I.t.i.j",
".#.#.#.#.n.##d.#.#.#.#.#.1.#.S#d.d.d#e.x.h.t.M.g.M.k.j.y.A##.B.B",
".0.0.0.##f#d.0.#.#.#.#.#.4.S.d.##d.d#g.q.j.f.k.z.A.h.i.s.j.k.A.7",
".#.0.8.#.#.#.#.##d.#.#.D.1.#.8.#.c.d#h#i.k.t.z.B.t.Q.A.k.N#a.j.B",
".#.0.#.#.#.#.#.#.#.#.#.c.0.W.#.#.W.d#j#k.r#l.N.j.j.j.j.y#m##.s.j",
".#.##d.1.##d.#.#.#.#.#.#.#.#.#.#.#.##n#e#o#p#q#r#s#t#u#q#v#w#i.A",
"#d.#.#.#.#.#.#.#.#.#.#.D.#.#.#.#.#.#.#.#.d#x#y#z#A#B#C#D#E#F#G#H",
".#.#.#.#.#.##d#d.#.#.#Qt.#.#.d.#.#.#.#.#.#.#.#.#.D.c.c.c.#.#.#.#",
".#.d.#.W.8.#.#.#.#.8.##d.#.S#I.#.1.D.##J.#.D.d.d.c.D.c.#.#.D#b.#",
".#.#.#.#.#.#.##d.#.8.#.#.#.#.c.#.##J#K.#.#.c#x.d.d.#.#.D.#.#.d.d",
".#.#.#.W.#.#.#.#.#.W.4#L.W.S.8#d.##J.#.d.#.d#M.D.#.#.#.D.#.##x.#",
".#.#.#.S.#.#.#.#.#.##d#d.#.d#d.#.##J#J.#.d.d#b.D.#.#.#.#.#.#.D.#",
"#d.#.#.W.#.#.#.1#d.#.#.#.#.D.#.#.#.#.#.#.d.#.d.c.#.#.#.#.#.#.2#x",
".#.#.#.#.#.#.0#d.#.#.#.#.#.##N.#.##J.2.#.#.#.#.#.#.#.#.#.#.D.d.#",
"#d.#.#.#.#.#.#.#.#.8#d.##f#d.8.#.#.#.#.#.#.#.#.D.c.#.#.#.c.D.#.d",
".1.#.#.#.#.#.#.#.##d.#.#.W#d#d#d.#.#.#.#.#.#.#.#.#.#.#.#.#.c.#.#",
".##d.#.#.#.#.#.#.0.#.#.#.8.#.##d.#.#.#.#.#.#.#.#.#.#.#.#.#.#.#.#",
".##d.#.#.#.0.#.##d#d.#.##d.#.W#d#J.#.#.#.#.#.#.#.#.#.#.#.#.#.#.#",
"#d.8Qt.#.c.0.8.#.#.#.##d.W.#.#.#.#.#.#.#.#.d.#.#.#.#.#.#.#.#.#.#",
"#d#d.#.#.##f.#.#.#.#.0.#.##d.##d.#.#.d.#.#.#.#.#.#.#.#.#.#.#.#.#",
".1.##d.#.#.#.#.#.1.##d.#.##d#d.#.#.#.#.#.#.#.#.#.#.#.#.#.#.#.#.#",
".#.#.#.#.#.#.#.#.#.1.1.#.##d.#.##d#J.#.#.#.#.#.#.#.#.#.#.#.#.#.#"};
