/* XPM */
static char *dummy[]={
"32 32 106 2",
"#L c #b9d1ff",
".R c #bad1ff",
"#. c #bbd1ff",
".9 c #bbd2ff",
".1 c #bcd2ff",
".2 c #bcd3ff",
".3 c #bdd3ff",
".T c #bdd4ff",
".S c #bed3ff",
"## c #bed4ff",
".5 c #bfd4ff",
"#g c #bfd5ff",
".o c #c0bda2",
"#f c #c0bda3",
"#p c #c0bea2",
"#K c #c0bfa1",
"#C c #c0bfa2",
"#N c #c0bfa9",
".8 c #c0d4ff",
".E c #c0d5ff",
"#D c #c0d6ff",
".b c #c1bca1",
".e c #c1bca2",
".d c #c1bda1",
"Qt c #c1bda2",
".c c #c1bda3",
"#m c #c1bea1",
".h c #c1bea2",
".k c #c1bea3",
".p c #c1bea4",
".m c #c1bea5",
".t c #c1bfa1",
".j c #c1bfa2",
".n c #c1bfa3",
"#G c #c1c0a1",
".6 c #c1d5ff",
".Y c #c1d6ff",
".a c #c2bca1",
".g c #c2bca2",
".q c #c2bda1",
".f c #c2bda2",
".l c #c2bea1",
".i c #c2bea2",
".# c #c2bea3",
".r c #c2bfa2",
".s c #c2bfa3",
"#l c #c2c0a2",
".y c #c2c3b6",
".x c #c2c6c2",
".V c #c2d6ff",
".W c #c2d7ff",
"#M c #c3c6c4",
"#d c #c3d7ff",
".J c #c4c6bd",
".L c #c4c7bf",
"#c c #c4d7ff",
".4 c #c4d8ff",
"#k c #c5c6bc",
".U c #c5d8ff",
".M c #c6c8c0",
"#n c #c6c9c4",
"#z c #c6d8ff",
"#a c #c6d9ff",
"#x c #c7cac2",
"#A c #c7cbc6",
".K c #c7cbc7",
"#j c #c7cbc8",
".w c #c7cccc",
".C c #c7cdcb",
".F c #c7d9ff",
".X c #c7daff",
".D c #c8ccca",
"#o c #c8cdcf",
".z c #c8ced2",
"#e c #c8daff",
"#s c #c9cbc9",
"#u c #c9cfd1",
".O c #c9d0d7",
"#h c #c9dbff",
".Q c #caced2",
".7 c #cad0d5",
"#J c #cad1d7",
".I c #cad1da",
".0 c #cad2d9",
"#q c #cad7eb",
".H c #cad8eb",
".u c #cad9e9",
"#w c #cadbff",
"#t c #cadcff",
".A c #cbd1da",
".P c #cbd2da",
"#v c #cbd2db",
".B c #cbd2de",
"#r c #cbd5e2",
".G c #cbdcff",
"#I c #ccd4e1",
"#F c #ccd4e2",
"#b c #ccd5e1",
"#y c #ccd6e4",
".v c #ccd8eb",
".Z c #ccdcff",
".N c #cdd4e3",
"#B c #cdd7e7",
"#i c #cdd7e9",
"#E c #cedbf4",
"#H c #cedeff",
"QtQtQtQtQtQtQtQtQtQtQtQtQtQt.#.aQtQt.aQtQt.b.bQtQtQtQtQtQtQtQtQt",
"QtQtQtQtQtQtQtQtQtQtQtQtQtQtQtQtQt.a.aQtQt.aQt.bQtQtQtQtQt.aQt.b",
"QtQtQtQtQtQtQtQtQtQtQtQtQt.cQtQt.aQt.aQtQt.dQtQtQtQt.eQtQtQt.a.a",
"QtQtQtQtQtQtQtQtQtQt.cQtQtQtQtQtQtQtQt.f.aQtQtQtQt.g.d.hQt.i.g.a",
"QtQtQtQtQtQtQtQtQtQtQtQtQtQtQt.#.a.fQt.aQtQt.a.aQtQt.dQtQtQt.aQt",
"QtQtQtQtQtQtQtQtQtQtQtQtQtQtQtQt.aQtQt.gQtQtQt.dQtQtQtQtQtQt.aQt",
"QtQt.hQtQtQtQtQtQtQtQtQtQtQtQtQt.a.a.a.fQtQt.aQtQtQtQtQtQtQtQt.b",
".cQt.j.hQtQtQt.h.jQtQtQtQtQtQtQtQt.g.a.eQt.a.gQtQtQtQtQtQtQtQt.a",
"Qt.c.jQtQtQtQtQtQtQtQtQtQt.k.#QtQt.lQtQtQtQtQtQt.a.dQtQtQtQtQtQt",
".m.kQtQtQtQtQtQt.h.cQt.cQtQtQtQtQtQt.jQtQtQtQt.a.bQtQtQt.fQtQt.a",
"Qt.jQtQtQtQtQtQt.j.n.c.cQt.#.#QtQt.a.cQt.a.aQtQtQtQtQtQt.oQtQtQt",
"Qt.mQtQt.jQtQtQt.j.p.cQt.cQt.#Qt.a.g.o.f.q.r.fQtQtQtQtQt.fQtQtQt",
".c.cQtQt.jQtQt.c.c.m.hQtQt.s.#QtQt.hQtQtQtQt.gQt.aQtQtQtQtQtQtQt",
"Qt.n.jQtQt.h.j.h.c.c.jQt.#Qt.j.bQt.t.oQt.aQt.gQtQtQtQt.g.fQt.cQt",
"QtQtQtQt.h.h.h.jQtQtQtQtQtQtQtQtQt.cQtQt.iQtQtQt.a.aQtQtQtQtQtQt",
".u.v.w.x.y.z.A.B.C.D.m.cQtQtQtQtQtQtQtQt.jQtQtQtQtQtQtQtQtQtQt.a",
".E.F.G.H.I.J.K.L.M.I.N.O.P.QQtQtQtQtQtQtQtQtQtQtQtQt.aQt.b.aQtQt",
".R.S.T.U.V.R.R.R.R.W.X.Y.Z.0.c.fQtQt.f.d.hQtQtQtQtQtQtQtQtQt.dQt",
".1.R.2.W.3.E.4.5.1.6.5.3.F.7.c.hQt.gQt.b.jQtQt.aQtQtQtQtQt.g.dQt",
".8.E.3.R.S.9#..E.6.3##.R#a#b.c.aQt.c.o.rQtQtQtQtQt.d.a.eQt.d.d.d",
".1.1.T.E.V.R.3#c#d#c.5#.#e.P.c.c.a.oQt.bQtQtQtQtQt.aQt#fQtQtQtQt",
".R.9.5#g.1.R.3.V.W#d.9.R#h#i.cQt.hQtQtQtQt.nQtQtQtQtQtQtQtQtQtQt",
".2##.T.6.9#..5#d#d.9#a.R#e#j#kQt#lQt.g.j#m.hQtQt.cQtQtQtQtQtQt.h",
".5.8.1.5.E.R#g#d#c.R#d.1#e#n#oQt.rQt.rQt#p#mQtQt.k.b.dQtQtQt.i.i",
".1.5.9.E.3.R.E#d#d#..R###e#q#r#sQtQt#lQt.fQtQtQtQtQtQtQtQtQtQtQt",
".3##.9.3.R.1.3.Y.6.9.R.1#h#t#u#v.oQt#lQtQtQtQtQtQtQtQtQtQt.iQtQt",
".5.3.R.9#g.5.R.R.R.1.5.4#a#w#x#yQtQt.hQtQtQtQt.hQtQtQtQtQt.iQtQt",
".1.5.9.9.E.3.R.R.R.9.W#d#c#z#A#BQtQtQtQtQt#CQtQtQtQtQtQtQtQtQtQt",
".1#g##.1.9.R.3#D.R.R.5.E.V#h#E#FQt.jQtQtQt#GQtQtQtQt#mQtQtQtQtQt",
".9.1.3.V.V.R.3.Y.E.R.6.R.V#e#H#IQt.hQt#CQt.hQt.iQtQt#CQtQtQtQt.i",
".R.9.5##.3.R.9.3.S.R.Y.R#d#a#w#J#fQtQt#KQtQtQt.iQtQtQtQtQtQt.i.i",
"#L.R.3.9.R.R.R.R.R.R.9#.#d#d###M.cQt.h#mQtQtQtQt#NQtQtQtQtQt.i.i"};
