/* XPM */
static char *dummy[]={
"32 32 114 2",
"#V c #b9d1ff",
"#J c #bad1ff",
"#K c #bbd1ff",
"#L c #bbd2ff",
"#d c #bcd2ff",
"#T c #bcd3ff",
"#P c #bdd3ff",
"#U c #bdd4ff",
"#R c #bed2ff",
"#M c #bed3ff",
"#c c #bed4ff",
"#I c #bfd4ff",
"#h c #bfd5ff",
".x c #c0bda1",
".h c #c0bda2",
".v c #c0bda3",
".l c #c0bea2",
".r c #c0bea4",
".p c #c0bea5",
".d c #c0bfa1",
".c c #c0bfa2",
".i c #c0bfa9",
"#S c #c0d4ff",
"#g c #c0d5ff",
"#Q c #c0d6ff",
".N c #c1bca2",
".m c #c1bda1",
".a c #c1bda2",
".q c #c1bda3",
".z c #c1bda4",
".f c #c1bea1",
".b c #c1bea2",
".s c #c1bfa1",
".e c #c1bfa2",
".n c #c1bfa3",
".D c #c1bfa7",
".o c #c1c0a1",
".j c #c1c0a2",
".B c #c1c1b4",
"#B c #c1d5ff",
"#C c #c1d6ff",
".A c #c2bca1",
".y c #c2bca2",
".w c #c2bda2",
".# c #c2bea2",
".k c #c2bfa1",
".g c #c2bfa2",
".t c #c2c0a2",
".u c #c2c0a3",
".C c #c2c1ae",
"#H c #c2d6ff",
"#O c #c2d7ff",
"Qt c #c3bfa2",
".V c #c3c6c4",
"#i c #c3d7ff",
"#N c #c3d8ff",
"#m c #c4d7ff",
"#e c #c4d8ff",
".5 c #c5c5b8",
".3 c #c5c5b9",
".6 c #c5c6bc",
".E c #c5c7bd",
".Y c #c5d3ef",
"#F c #c5d7ff",
"#D c #c5d8ff",
"#E c #c5d9ff",
"#p c #c6c8bf",
".F c #c6c8c0",
".1 c #c6c9c2",
".2 c #c6c9c3",
"#u c #c6c9c4",
"#x c #c6d8ff",
"#A c #c6d9ff",
".L c #c7c9c3",
"#. c #c7cac2",
".J c #c7cac4",
".K c #c7cbc6",
"#t c #c7cbc8",
".W c #c7d9ff",
"#f c #c7daff",
".M c #c8cac5",
".4 c #c8cccb",
".Z c #c8cccc",
".7 c #c8cdcf",
"#o c #c8ced3",
"#n c #c8d7f4",
"#z c #c8daff",
"#j c #c8dbff",
".O c #c9cbc9",
".9 c #c9cfd1",
"#G c #c9daff",
"#y c #c9dbff",
".G c #cad0d4",
"#q c #cad0d5",
".U c #cad1d7",
"#v c #cad7eb",
"#b c #cadbff",
"#w c #cadcff",
"#r c #cbd2da",
".P c #cbd2db",
".I c #cbd3dc",
".8 c #cbd5e2",
"#l c #cbdcff",
".T c #ccd4e1",
".S c #ccd4e2",
".0 c #ccd5e1",
".Q c #ccd6e4",
".X c #ccddff",
".H c #cdd5e2",
".R c #cdd7e7",
"#s c #cdd7e9",
"#k c #cddeff",
"## c #cedbf4",
"#a c #cedeff",
"Qt.#.a.a.a.a.a.a.a.a.a.a.a.a.a.a.a.a.a.a.a.a.b.#.a.a.a.a.a.#.#.#",
".a.a.a.a.a.a.a.a.a.a.a.a.a.a.a.a.a.a.a.a.a.a.a.#.a.a.a.a.a.a.#.#",
".a.a.a.#.a.a.a.a.a.a.a.a.a.a.a.a.a.a.a.a.a.a.a.a.a.#.#.a.a.a.a.a",
".a.a.a.a.a.a.c.b.d.a.a.a.a.a.a.a.a.a.a.a.a.a.a.a.a.a.a.a.a.a.a.a",
".a.a.#.a.a.a.b.c.e.#.#.#.b.a.a.a.e.f.a.a.a.a.a.a.a.a.a.a.a.a.a.a",
".a.a.a.a.a.a.c.b.a.a.b.a.a.a.a.a.g.f.a.a.a.a.a.a.a.a.a.a.f.c.a.a",
".a.a.a.a.a.a.h.a.a.a.a.h.a.h.a.a.a.a.a.a.a.a.a.a.a.a.a.a.a.a.a.a",
".#.a.a.h.a.a.a.a.a.a.a.a.a.a.a.a.a.h.h.h.a.a.a.a.a.a.a.a.a.a.a.i",
".a.a.a.a.a.a.a.a.a.a.a.a.a.a.a.a.a.a.a.a.a.a.a.a.a.a.a.a.a.#.#.a",
".a.a.a.j.k.f.b.b.l.a.a.a.a.a.a.a.a.a.a.a.a.a.a.a.a.a.a.a.a.a.a.a",
".a.a.a.a.a.a.a.f.a.a.a.a.b.j.j.a.a.a.a.a.m.n.b.f.a.a.a.c.o.b.a.a",
".a.a.l.e.g.g.b.b.b.o.b.a.f.b.c.a.a.a.h.a.a.f.f.l.a.a.a.a.a.a.a.a",
".a.a.a.a.a.f.b.a.e.l.a.a.a.a.a.a.a.a.a.h.a.a.e.b.a.a.a.a.a.c.d.f",
".a.f.e.o.p.a.a.a.a.a.a.a.a.a.a.a.a.f.a.q.r.a.s.g.t.t.b.a.a.a.a.b",
".a.a.q.p.a.a.a.#.j.g.a.a.a.a.a.c.g.u.s.r.a.a.a.a.a.a.a.a.e.b.a.a",
".a.v.a.m.a.a.w.a.h.m.x.m.a.b.#.h.f.a.y.z.A.b.t.g.a.h.a.a.a.a.v.q",
".B.C.D.E.F.G.H.I.J.K.L.M.N.N.b.a.e.w.b.A.q.a.a.a.O.P.Q.R.S.T.U.V",
".W.X.Y.J.Z.0.1.2.E.3.F.4.5.q.q.q.q.q.q.q.q.q.6.7.8.9#..K###a#b#c",
"#d#e#b#f#g#h#i#j#k#l.X#b#m#n#o#p.J.G#q.0#r#s#t#u#v#w#b#x#y#z#A#i",
"#B#C#m#m#D#i#E#z#F#e#e#B#c#e#z.W#z#G.W#A#z#y#z#z#z#y#A#m#H#H#i#i",
"#I#H#i#i#i#i#i#H#g#I#i#H#J#K#c#c#L#J#J#J#K#J#J#J#c#d#e#i#g#J#J#K",
"#d#M#M#M#J#L#h#B#C#H#C#J#J#J#B#B#c#N#I#c#I#J#J#L#J#J#I#O#I#J#J#J",
"#g#i#i#I#J#J#J#L#P#J#J#J#J#J#i#m#g#C#B#P#m#i#L#J#K#L#d#L#J#J#J#J",
"#g#i#i#I#J#J#J#J#J#J#J#J#C#A#C#H#d#J#J#B#i#O#i#m#i#B#J#J#J#g#M#J",
"#K#O#L#J#J#J#J#L#c#c#L#J#J#J#J#J#J#J#J#g#m#H#i#i#i#C#J#J#Q#C#P#J",
"#J#I#g#J#J#J#J#g#m#i#i#I#i#H#P#J#J#J#J#K#P#P#I#h#g#P#J#J#P#P#L#J",
"#J#R#M#L#J#J#J#g#i#i#i#H#m#i#g#J#J#J#J#L#J#J#K#J#J#d#I#P#J#J#J#J",
"#J#J#J#S#P#J#J#J#J#M#I#h#C#H#h#J#P#I#P#J#J#J#L#K#J#J#h#g#L#H#P#J",
"#J#K#M#i#i#T#J#J#J#J#J#K#J#L#J#L#C#m#O#J#J#L#d#J#J#L#L#L#d#H#c#L",
"#L#L#B#D#e#g#M#J#J#J#J#J#J#K#J#K#L#T#T#J#L#d#U#d#L#L#J#L#c#P#I#P",
"#J#J#J#U#c#P#L#J#J#K#L#L#V#J#J#J#J#J#J#P#d#L#c#S#I#c#P#I#h#d#L#J",
"#J#J#J#J#J#J#J#J#J#J#J#J#J#J#J#J#J#J#d#S#d#J#T#I#d#P#I#d#d#L#J#V"};
