/* XPM */
static char *dummy[]={
"32 32 114 2",
"#f c #b9d1ff",
"Qt c #bad1ff",
".a c #bbd1ff",
".# c #bbd2ff",
".c c #bcd2ff",
".T c #bcd3ff",
".O c #bdd3ff",
".C c #bdd4ff",
".k c #bed2ff",
".n c #bed3ff",
".N c #bed4ff",
".d c #bfd4ff",
".U c #bfd5ff",
"#c c #c0bda1",
".M c #c0bda2",
".t c #c0bda3",
".B c #c0bea2",
"#u c #c0bea4",
".J c #c0bea5",
".9 c #c0bfa1",
".2 c #c0bfa2",
"#V c #c0bfa9",
".E c #c0d4ff",
".b c #c0d5ff",
"#O c #c0d6ff",
"#h c #c1bca2",
".I c #c1bda1",
".h c #c1bda2",
".z c #c1bda3",
"#t c #c1bda4",
".u c #c1bea1",
".1 c #c1bea2",
"#r c #c1bfa1",
".A c #c1bfa2",
"#y c #c1bfa3",
".y c #c1bfa7",
".K c #c1c0a1",
".L c #c1c0a2",
".g c #c1c1b4",
".e c #c1d5ff",
".p c #c1d6ff",
"#s c #c2bca1",
"#q c #c2bca2",
".0 c #c2bda2",
".i c #c2bea2",
".S c #c2bfa1",
".R c #c2bfa2",
"#B c #c2c0a2",
"#o c #c2c0a3",
".s c #c2c1ae",
".o c #c2d6ff",
".l c #c2d7ff",
".j c #c3bfa2",
"#U c #c3c6c4",
".m c #c3d7ff",
"#m c #c3d8ff",
".v c #c4d7ff",
".q c #c4d8ff",
"#g c #c5c5b8",
"## c #c5c5b9",
"#A c #c5c6bc",
".H c #c5c7bd",
".x c #c5d3ef",
".7 c #c5d7ff",
".D c #c5d8ff",
".X c #c5d9ff",
"#l c #c6c8bf",
".Q c #c6c8c0",
".Y c #c6c9c2",
".5 c #c6c9c3",
"#C c #c6c9c4",
"#M c #c6d8ff",
"#i c #c6d9ff",
"#b c #c7c9c3",
"#K c #c7cac2",
".G c #c7cac4",
"#a c #c7cbc6",
"#z c #c7cbc8",
".f c #c7d9ff",
".F c #c7daff",
"#e c #c8cac5",
"#d c #c8cccb",
".P c #c8cccc",
"#D c #c8cdcf",
"#k c #c8ced3",
"#j c #c8d7f4",
".3 c #c8daff",
".4 c #c8dbff",
"#G c #c9cbc9",
"#I c #c9cfd1",
"#n c #c9daff",
"#w c #c9dbff",
".W c #cad0d4",
"#p c #cad0d5",
"#T c #cad1d7",
"#E c #cad7eb",
".w c #cadbff",
"#H c #cadcff",
"#v c #cbd2da",
"#J c #cbd2db",
".6 c #cbd3dc",
"#F c #cbd5e2",
"#. c #cbdcff",
"#S c #ccd4e1",
"#Q c #ccd4e2",
".V c #ccd5e1",
"#L c #ccd6e4",
".r c #ccddff",
".Z c #cdd5e2",
"#N c #cdd7e7",
"#x c #cdd7e9",
".8 c #cddeff",
"#P c #cedbf4",
"#R c #cedeff",
"QtQt.#QtQtQtQt.a.b.b.c.d.e.c.f.g.h.h.h.h.h.h.h.h.i.h.h.h.h.h.h.j",
"QtQt.#.aQt.k.d.l.m.m.n.o.p.q.r.s.t.h.u.h.h.h.h.h.h.h.h.h.h.h.h.i",
"QtQt.e.nQt.n.b.#.m.m.n.m.v.w.x.y.h.z.A.h.B.h.h.h.h.h.h.i.h.h.h.h",
"Qt.C.D.m.E.#QtQt.d.d.n.m.v.F.G.H.I.J.K.h.A.h.L.h.M.h.h.h.h.i.h.h",
"Qt.N.q.m.OQtQtQtQtQtQt.m.D.b.P.Q.h.h.J.h.R.h.S.h.h.h.h.h.h.h.h.h",
"Qt.O.b.TQtQtQtQtQtQt.#.m.m.U.V.W.h.h.h.u.R.h.u.h.h.h.h.h.h.h.h.h",
"Qt.#.nQtQtQtQtQtQtQt.U.m.X.m.Y.Z.0.h.h.1.1.h.1.h.h.M.2.1.2.h.h.h",
"QtQtQtQtQt.b.b.#Qt.#.e.o.3.4.5.6.h.i.h.h.1.u.1.h.h.h.1.2.1.h.h.h",
"QtQtQtQtQt.m.v.NQt.O.p.b.7.8.H.G.M.L.h.A.1.h.B.h.h.h.h.A.9.h.h.h",
"Qt.aQtQt.n.m.m.NQtQt.o.d.q#.###a.I.R.h.B.K.h.h.h.h.h.h.i.h.h.h.h",
"Qt.#QtQt.d.m.m.#QtQt.p.m.q.r.Q#b#c.h.h.h.1.h.h.h.h.h.1.i.h.h.h.h",
"Qt.#Qt.a.U.o.dQtQtQtQt.o.e.w#d#e.I.h.h.h.h.h.h.h.h.M.h.i.h.h.h.h",
"Qt#fQtQt.p.v.mQt.pQtQtQt.N.v#g#h.h.h.h.h.u.1.h.h.h.h.h.1.h.h.h.h",
"QtQt.a.#.o.m.oQt#iQtQt.a.q#j.z#h.1.h.h.h.1.L.h.h.h.M.h.h.h.h.h.h",
"QtQtQtQt.U.b.OQt.p.m.e.N.3#k.z.1.i.h.h.h.2.L.h.h.h.h.h.h.h.h.h.h",
"QtQt.a.#QtQtQtQt.o.v.e.N.f#l.z.h.M.2.h.h.h.h.h.h.h.h.h.h.h.h.h.h",
"QtQt.#.p.OQtQtQt.c.b.N.#.3.G.z.A.u.R.h.h.h.h.h.h.h.h.R.A.h.h.h.h",
"QtQt.T.v.dQtQtQtQt.p#mQt#n.W.z.0.h#o.u.h.h.h.h.h.M.h.u.u.h.h.h.h",
".cQt.T.l.OQtQtQtQt.e.dQt.f#p.z.1#q#r.h.h.M.h.h.h.M.h.h.h.h.h.h.h",
".E.OQtQtQt.#.a.b.e.O.NQt#i.V.z#s#t#u.z.M.h.h.h.h.M.h.h.h.h.h.h.h",
".c.c.#QtQtQt.O.v.m.v.d.a.3#v.z.z#s.h#u.h.h.I.h.h.h.h.h.h.h.h.h.h",
"Qt.#.c.#QtQt.O.o.l.mQtQt#w#x.z.h.1.h.h.h.u#y.h.h.h.h.h.h.h.h.h.h",
".T.N.C.c.#.a.d.m.m.#QtQt.3#z#A.h#B.h#r.A.u.1.h.h.h.h.h.h.h.h.h.1",
".d.E.cQt.aQt.U.m.vQt.#Qt.3#C#D.h.R.h.R.1.B.u.h.h.h.h.h.h.h.h.i.i",
".c.d.#QtQtQt.b.m.m.aQt.N.3#E#F#G.h.h#B.h.h.h.h.h.h.h.h.h.h.h.h.h",
".O.N.#.#Qt.c.O.p.e.#Qt.c#w#H#I#J.M.h#B.h.h.h.h.h.h.h.h.h.h.i.h.h",
".d.OQt.#.U.dQtQtQt.c.d.q#i.w#K#L.h.h.1.h.h.h.h.h.h.h.h.h.h.i.h.h",
".c.d.#.#.b.OQtQtQt.#.l.m.v#M#a#N.h.h.h.h.h.2.h.h.h.h.h.h.h.h.h.h",
".c.U.N.c.#Qt.O#OQtQt.d.b.o#w#P#Q.h.A.h.h.h.K.h.h.h.h.u.h.h.h.h.h",
".#.c.O.o.oQt.O.p.bQtQtQt.o.3#R#S.h.1.h.2.h.1.h.i.h.h.2.h.h.h.h.i",
"Qt.#.d.N.OQt.#.O.nQtQtQt.m#i.w#T.t.h.h.9.h.h.h.i.h.h.h.h.h.h.i.i",
"#fQt.O.#QtQtQtQtQtQtQt.a.m.m.N#U.z.h.1.u.h.h.h.h#V.h.h.h.h.h.i.i"};
