/* XPM */
static char *dummy[]={
"32 32 114 2",
".l c #b9d1ff",
".i c #bad1ff",
".h c #bbd1ff",
".j c #bbd2ff",
".A c #bcd2ff",
".8 c #bcd3ff",
".k c #bdd3ff",
".7 c #bdd4ff",
"#T c #bed2ff",
".r c #bed3ff",
".f c #bed4ff",
".s c #bfd4ff",
".H c #bfd5ff",
"#w c #c0bda1",
".R c #c0bda2",
".n c #c0bda3",
".Z c #c0bea2",
"#a c #c0bea4",
"#M c #c0bea5",
".m c #c0bfa1",
".t c #c0bfa2",
".a c #c0bfa9",
".3 c #c0d4ff",
".y c #c0d5ff",
".G c #c0d6ff",
"#r c #c1bca2",
"## c #c1bda1",
".# c #c1bda2",
".d c #c1bda3",
"#d c #c1bda4",
".b c #c1bea1",
".c c #c1bea2",
".4 c #c1bfa1",
".C c #c1bfa2",
".9 c #c1bfa3",
"#Q c #c1bfa7",
".B c #c1c0a1",
"#p c #c1c0a2",
"#V c #c1c1b4",
".V c #c1d5ff",
".z c #c1d6ff",
"#b c #c2bca1",
"#f c #c2bca2",
"#j c #c2bda2",
"Qt c #c2bea2",
"#L c #c2bfa1",
".0 c #c2bfa2",
".Q c #c2c0a2",
"#i c #c2c0a3",
"#S c #c2c1ae",
".x c #c2d6ff",
".M c #c2d7ff",
"#U c #c3bfa2",
".e c #c3c6c4",
".g c #c3d7ff",
"#m c #c3d8ff",
".L c #c4d7ff",
".P c #c4d8ff",
"#t c #c5c5b8",
"#A c #c5c5b9",
".5 c #c5c6bc",
"#C c #c5c7bd",
"#R c #c5d3ef",
"#E c #c5d7ff",
"#O c #c5d8ff",
"#K c #c5d9ff",
"#o c #c6c8bf",
"#y c #c6c8c0",
"#J c #c6c9c2",
"#G c #c6c9c3",
".2 c #c6c9c4",
".K c #c6d8ff",
".q c #c6d9ff",
"#x c #c7c9c3",
".O c #c7cac2",
"#n c #c7cac4",
".J c #c7cbc6",
".6 c #c7cbc8",
"#h c #c7d9ff",
"#P c #c7daff",
"#u c #c8cac5",
"#v c #c8cccb",
"#N c #c8cccc",
".1 c #c8cdcf",
"#q c #c8ced3",
"#s c #c8d7f4",
".w c #c8daff",
"#H c #c8dbff",
".W c #c9cbc9",
".T c #c9cfd1",
"#l c #c9daff",
".F c #c9dbff",
"#k c #cad0d4",
"#g c #cad0d5",
".o c #cad1d7",
".Y c #cad7eb",
".p c #cadbff",
".U c #cadcff",
"#c c #cbd2da",
".S c #cbd2db",
"#F c #cbd3dc",
".X c #cbd5e2",
"#B c #cbdcff",
".u c #ccd4e1",
".D c #ccd4e2",
"#e c #ccd5e1",
".N c #ccd6e4",
"#z c #ccddff",
"#I c #cdd5e2",
".I c #cdd7e7",
"#. c #cdd7e9",
"#D c #cddeff",
".E c #cedbf4",
".v c #cedeff",
"QtQt.#.#.#.#.#.a.#.#.#.#.b.c.#.d.e.f.g.g.h.i.i.i.i.i.i.i.j.k.i.l",
"QtQt.#.#.#.#.#.#Qt.#.#.#.m.#.#.n.o.p.q.g.i.i.i.r.k.j.i.k.f.s.j.i",
"Qt.#.#.#.#.t.#.#Qt.#.c.#.t.#.c.#.u.v.w.x.i.i.i.y.z.k.i.x.x.k.A.j",
".#.#.#.#.#.b.#.#.#.#.B.#.#.#.C.#.D.E.F.x.y.s.i.i.G.k.i.j.A.f.H.A",
".#.#.#.#.#.#.#.#.#.#.t.#.#.#.#.#.I.J.K.L.g.M.j.i.i.i.k.y.j.j.s.A",
".#.#Qt.#.#.#.#.#.#.#.#.#.#.c.#.#.N.O.p.q.P.s.A.i.i.i.s.H.j.i.k.s",
".#.#Qt.#.#.#.#.#.#.#.#.#.#.Q.#.R.S.T.U.F.A.i.j.V.z.k.A.i.j.j.f.k",
".#.#.#.#.#.#.#.#.#.#.#.#.#.Q.#.#.W.X.Y.w.f.i.h.g.g.y.i.i.i.j.s.A",
"QtQt.#.#.#.#.#.#.#.#.b.Z.c.0.#.0.#.1.2.w.i.j.i.L.g.H.i.h.i.A.3.s",
".c.#.#.#.#.#.#.#.#.#.c.b.C.4.#.Q.#.5.6.w.i.i.j.g.g.s.h.j.A.7.f.8",
".#.#.#.#.#.#.#.#.#.#.9.b.#.#.#.c.#.d#..F.i.i.g.M.x.k.i.i.j.A.j.i",
".#.#.#.#.#.#.#.#.#.###.#.##a.##b.d.d#c.w.h.s.L.g.L.k.i.i.i.j.A.A",
".#.#.#.#.#.#.#.R.#.#.#.#.R.d#a#d#b.d#e.q.i.f.k.V.y.h.j.i.i.i.k.3",
".#.#.#.#.#.#.#.R.#.#.#.R.#.#.4#f.c.d#g#h.i.s.V.i.i.i.i.k.M.8.i.A",
".#.#.#.#.b.b.#.R.#.#.#.#.#.b#i.##j.d#k#l.i#m.z.i.i.i.i.s.L.8.i.i",
".#.#.#.#.C.0.#.#.#.#.#.#.#.#.0.b.C.d#n.w.j.f.y.A.i.i.i.k.z.j.i.i",
".#.#.#.#.#.#.#.#.#.#.#.#.#.#.t.R.#.d#o#h.f.V.L.x.i.i.i.i.j.h.i.i",
".#.#.#.#.#.#.#.#.#.##p.t.#.#.#Qt.c.d#q.w.f.V.g.z.i.k.y.H.i.i.i.i",
".#.#.#.#.#.#.R.#.#.##p.c.#.#.#.c#r.d#s.P.h.i.i.q.i.x.g.x.j.h.i.i",
".#.#.#.#.c.#.#.#.#.#.c.b.#.#.#.##r#t.L.f.i.i.i.z.i.g.L.z.i.i.l.i",
".#.#.#.#Qt.#.R.#.#.#.#.#.#.#.####u#v.p.V.x.i.i.i.i.s.x.H.h.i.j.i",
".#.#.#.#Qt.c.#.#.#.#.#.c.#.#.##w#x#y#z.P.g.z.i.i.j.g.g.s.i.i.j.i",
".#.#.#.#Qt.#.#.#.#.#.#.B.Z.#.0##.J#A#B.P.s.x.i.i.f.g.g.r.i.i.h.i",
".#.#.#.m.C.#.#.#.#.Z.#.c.C.##p.R#n#C#D#E.y.z.k.i.f.L.g.i.i.i.i.i",
".#.#.#.c.t.c.#.#.#.c.b.c.#.#Qt.##F#G#H.w.x.V.j.i.j.y.y.i.i.i.i.i",
".#.#.#.t.c.t.R.#.#.c.#.c.c.#.##j#I#J.g#K.g.H.i.i.i.i.i.i.i.r.j.i",
".#.#.#.#.#.#.#.#.#.b.#.0.b.#.#.##k#e.H.g.g.j.i.i.i.i.i.i.8.y.k.i",
".#.#.#.#.#.#.#.#.##L.#.0.##M.#.##y#N.y#O.g.i.i.i.i.i.i.k.g.P.f.i",
".#.#Qt.#.#.#.#.R.##p.#.C.#.B#M###C#n#P.L.g.r.s.s.i.i.j.3.g#O.7.i",
".#.#.#.#Qt.#.#.#.#.#.#.Z.#.C.d.##Q#R.p.L.g.r.g.g.j.y.r.i.r.V.i.i",
"Qt.#.#.#.#.#.#.#.#.#.#.#.#.b.#.n#S#z.P.z.x.r.g.g.M.s#T.i.h.j.i.i",
"#U.#.#.#.#.#.#Qt.#.#.#.#.#.#.#.##V#h.A.V.s.A.y.y.h.i.i.i.i.j.i.i"};
