/* XPM */
static char *dummy[]={
"32 32 295 2",
".9 c #91bee3",
"cl c #94bde1",
"c# c #94bee8",
"cm c #95aee6",
"bh c #97aee7",
"bo c #97ceeb",
"cj c #99b0e1",
"#7 c #99b2e4",
"aE c #9ab1e1",
"aT c #9ac1ea",
".U c #9ac5e8",
"#m c #9bb2e8",
"aN c #9bc0e3",
"au c #9bc1e8",
".V c #9bc6ea",
"ca c #9bcae7",
"#q c #9cb7e3",
"ck c #9cc1e1",
"cs c #9cc4e5",
"bd c #9db4e3",
"bM c #9dbde9",
"#. c #9dc8e4",
"a2 c #9dcce5",
"#S c #9eb5e3",
"ci c #9eb6e6",
"cu c #9ebee3",
"#R c #9ec0e7",
"cr c #9ec2e3",
"#a c #9ec3e3",
"a7 c #9ecae6",
"ct c #9ecbe4",
"#n c #9fb6e4",
"bZ c #9fb6e8",
"#C c #9fb6ea",
"b0 c #9fb7e9",
"#5 c #9fbae9",
"#B c #9fbbe7",
"c. c #9fbde6",
"aw c #9fc7ec",
"#U c #a0b7e5",
"bY c #a0b8e5",
"aG c #a0bee8",
"ch c #a0c4e7",
"bX c #a0c7e8",
"aK c #a0c9ed",
"b8 c #a0cbe9",
"#r c #a1b8e6",
"#D c #a1b9e6",
"#c c #a1b9e7",
"bN c #a1bae6",
"aF c #a1c4e6",
"#6 c #a1c4e7",
"cB c #a1c6e1",
"#p c #a2b9e7",
"#t c #a2bbe8",
"ce c #a2bde9",
"#T c #a2bee7",
"cf c #a2c0ec",
"#F c #a2c3e7",
"#L c #a2c5e7",
"#v c #a2c5e8",
"#o c #a2c6e7",
"aU c #a2ccea",
"a1 c #a3bae8",
"av c #a3baea",
"## c #a3bbe8",
"#b c #a3bce8",
"aL c #a3bdea",
"a0 c #a3bfe6",
"bP c #a3c6e8",
"#d c #a3cde8",
"b2 c #a3cee7",
"b9 c #a3d0e6",
"#u c #a4bbe9",
"cg c #a4bee9",
"at c #a4beec",
"b1 c #a4c1f0",
"#s c #a4c8ea",
".W c #a4cae9",
"#E c #a5bcea",
"aO c #a5bfea",
"ao c #a5c2ec",
"cp c #a5c3ea",
"aD c #a5c4ea",
"a8 c #a5c4eb",
"bJ c #a5c6f0",
"bw c #a5c7ef",
".Y c #a5cbea",
".X c #a5cdea",
"bO c #a5d3e9",
"bF c #a5d4e7",
"aM c #a6bdeb",
"b7 c #a6c0eb",
"cb c #a6c4ef",
"bc c #a6c7ec",
"cv c #a6d5e6",
"cd c #a7c2f3",
"aY c #a7c6e9",
"b3 c #a7c7ec",
"cq c #a7daea",
"aR c #a8bfed",
"bS c #a8cded",
"#K c #a8cdef",
"cA c #a8cfee",
"aS c #a8d0ec",
"an c #a8d5eb",
"a6 c #a9c1ef",
"cC c #a9d3ed",
"aZ c #aac1ef",
"bW c #aacdef",
"#e c #acc3f1",
"a5 c #acccee",
"#f c #adc8f2",
"#1 c #adc8f9",
"bp c #adcef1",
"ax c #add1f3",
"bV c #aecbf3",
".Z c #aed0f2",
"#M c #aed2eb",
"#w c #afc7f6",
"#4 c #afcaf4",
"aq c #afccf4",
"am c #afd8e8",
"ak c #afdbf6",
"b5 c #b0c7f9",
"bL c #b0c8f6",
"bi c #b0caf5",
"bn c #b0ccf9",
"cw c #b0d0f2",
"cn c #b0d0f7",
"aQ c #b1c8f6",
"#0 c #b1c9f8",
"cD c #b1cbf6",
"#J c #b1cbfa",
"bR c #b1ceef",
"bT c #b1cef8",
".T c #b1d1f6",
"bE c #b2c9f6",
"#G c #b2c9f7",
"#H c #b2ccf7",
"co c #b2cdfc",
"bH c #b2cee6",
"bv c #b2cef5",
"aH c #b2d0f7",
"b4 c #b3cbf8",
"bU c #b3cff8",
"bb c #b3cff9",
"b6 c #b4cbf9",
"bx c #b4ccf8",
"bI c #b4cdf7",
"ap c #b4d1f9",
"aj c #b4d4fc",
"ac c #b5ccfa",
"cE c #b5ccfb",
"cc c #b5ccfc",
"bC c #b5cffb",
"ab c #b5d0f9",
"by c #b6cdfa",
"aC c #b6cdfb",
"#V c #b6d0fb",
"as c #b6d2fb",
"bG c #b6d3fe",
"bK c #b7cefc",
"bf c #b7cefd",
"#I c #b7cffd",
"bg c #b7d0fc",
"br c #b8cffc",
"a4 c #b8cffd",
"cx c #b8cffe",
"bB c #b8d0f8",
"#l c #b8d0fd",
"aI c #b8d0fe",
"a9 c #b8d2fd",
"bu c #b8d2ff",
"ar c #b9d0fd",
"#g c #b9d0fe",
"bq c #b9d1fb",
"a3 c #b9d1fe",
"Qt c #b9d1ff",
".S c #b9d2fe",
".8 c #b9d3fb",
"bQ c #b9d3fd",
"#W c #bad0fe",
"#3 c #bad1fe",
".f c #bad1ff",
"ah c #bad2fe",
"b# c #bad2ff",
"ag c #bad3fc",
"ai c #bad3fd",
"bt c #bad3fe",
"cz c #bad4fd",
".J c #bbd1fe",
".6 c #bbd1ff",
"bA c #bbd2fe",
".2 c #bbd2ff",
".0 c #bbd4fd",
"ad c #bcd1ff",
"#X c #bcd2fe",
".R c #bcd2ff",
"aa c #bcd3fc",
"#y c #bcd3ff",
"#A c #bcd5fc",
"bj c #bdd2fe",
"#9 c #bdd2ff",
"#Y c #bdd3fe",
".# c #bdd3ff",
"af c #bdd4fe",
".p c #bdd4ff",
"#Q c #bed3fe",
".B c #bed3ff",
".7 c #bed4fe",
".I c #bed4ff",
".3 c #bed5ff",
"cF c #bed6ff",
".4 c #bfd3ff",
"bs c #bfd4fd",
".q c #bfd4ff",
"aB c #bfd5fe",
".a c #bfd5ff",
"a# c #bfd6fe",
"aP c #c0d3ff",
"bz c #c0d4fe",
"#k c #c0d4ff",
".o c #c0d5ff",
"#z c #c0d6ff",
"cH c #c0d7ff",
"aW c #c1d4ff",
".1 c #c1d5fe",
".C c #c1d5ff",
".e c #c1d6ff",
"ae c #c1d7fe",
"aV c #c1d7ff",
".E c #c1d8ff",
".P c #c2d5ff",
"bD c #c2d6fe",
"#N c #c2d6ff",
"#P c #c2d7fe",
"#8 c #c2d7ff",
"cI c #c2d8ff",
"#x c #c3d6ff",
".m c #c3d7ff",
"a. c #c3d8fe",
".b c #c3d8ff",
".r c #c3d9ff",
"bk c #c4d6ff",
".g c #c4d7ff",
".l c #c4d8ff",
".D c #c4d9ff",
".y c #c5d7ff",
".j c #c5d8ff",
"#j c #c5d9ff",
"az c #c5daff",
"aJ c #c6d7ff",
"aX c #c6d8ff",
".i c #c6d9ff",
".x c #c6daff",
"#Z c #c7d9fe",
".v c #c7d9ff",
".c c #c7daff",
".h c #c7dbff",
"ay c #c7dcff",
".L c #c7ddfc",
"aA c #c8d9ff",
"#h c #c8daff",
".k c #c8dbff",
"cK c #c8dcff",
".u c #c9daff",
".M c #c9dbff",
".H c #c9dcff",
"b. c #c9ddff",
"cJ c #cadaff",
".K c #cadbff",
"al c #cadcff",
"ba c #caddff",
".t c #cbdcff",
".z c #cbddff",
".w c #ccdcff",
".G c #ccddff",
".d c #ccdeff",
"#i c #cddcff",
".N c #cdddff",
".Q c #cddfff",
"cy c #ceddff",
".F c #cedeff",
"cG c #cedfff",
".s c #cfdeff",
"be c #cfdfff",
".n c #cfe0ff",
".5 c #d0deff",
".O c #d0dfff",
"#2 c #d1e0ff",
".A c #d2e0ff",
"bm c #d2e1ff",
"bl c #d3e1ff",
"#O c #d3e2ff",
"QtQt.#.a.#.b.c.d.e.f.f.g.h.h.i.j.j.j.h.k.lQt.f.m.n.k.b.#.o.pQtQt",
"Qt.q.j.r.o.q.s.t.g.m.l.j.e.m.i.i.u.v.c.g.w.x.y.e.z.A.B.C.D.c.q.f",
".C.E.y.c.l.F.G.H.i.a.I.#.J.f.K.m.f.m.L.o.m.e.o.g.M.N.O.x.k.y.E.P",
".I.D.i.Q.Q.l.o.R.f.f.S.T.U.V.W.X.Y.Z.0.1.2.3.m.4.o.m.i.n.G.l.D.q",
".l.5.z.o.2.6.f.a.7.8.9#.###a#b#c#d#e#f#g.f.f#h.q.q.f.6.I.C.H#i#j",
".t.I.C.i#k.q.2#l#g#m#n#o#p#q#r#s#t#u#v#w.f#x.m.#.##y#k#k.i.o.I.K",
".k#z.m.q#y.q#A#g#B#C#D#E#F#G#H#I#J#K#L#M.f.f.o.d.D.j.g.I.q#N#N#j",
".g.H#O.Q.M.c#P#Q#R#S#T#U#r#V#W#X#Y#Z#0#1.6.I.3.e.#.I.i.F.Q#2.c#x",
"#N.m.x.e#N#N#Q#3#4#5#6#7#g.2#y.j#8.o.C#9.o#j.g.g.o.#.a.e.e.x#N.o",
"#N#N.#.2.R.Ca.a#aaabac#g#3.f.2.3.l#y.2.2.f.R.#.R.f.f.o.R.f.B.e.o",
".f.fad.f#9.f.aaeafagah.p#y.2.f.f.#.R.f#y.2aiajak.f.f#N.C.2.6.f.f",
".f#y.I#N.j.c.y.w.v.a.jal.e.6.2.6.6.2.f.famanaoapaq.f#g.C.q.6.2.f",
"#y.##h.O.t.b.e.f.6.R#j.i#y.q.2.f.f.R.#arasatauavawaxar.2#h.m.#.2",
".Hayal#y.R#z.2.fad.I#y.eaz.v.H.3.e.HaAaBaCaDaEaF#raGaHaI.o.kaz.c",
"#j.v.l.2.B.p.a.6.Rad.6.m#8#8.P#9.BaJ.o.I.SaK#naLaMaNaO#g.6.o.m.g",
".x.eaP.2.2ad.#.f.f.f.p.o.v.k.u.j#8.j.j.o#gaQaRaMaSaTaU#g.f#9.#aV",
".l.IaW.R.I.R.f.f.f.f.p.a#h.caX.m.i.v.i.C.2#gaYaZa0a1a2a3.f#9.R.e",
"#j.c.k.2.C.p.3.6.2.R.f.l.i#8.C.B.o.C#z.o.aa4a5a6a7a8aMa9.f.o.m#N",
".Hb..F#y.I.I.f.f.B.3b##jba.M.k.I#z.k.v#j.l.2.2#gbbbcbd#g.2#h.b#j",
"#y.#.Mbeal.l.e.##9.B.M.g#y.e.a.f.f.I.q#y#N.l#Wbfbg#Ebhbibj.j.R.2",
".f#y.B.o#N.jbk.5blbm.F.#.2.f.f.f.f.2.f#y.#.K.O#gbnaRbobpbq.C.2.f",
".f.f.6.fbr#gbs.iaX#N.abt.SaIbu.f.fQt.f.2.a#8.g.CbvaMbwbxbybz.2.f",
".l.2bAbBbC.JbD.c.a.2.Sa3#gbEbFbG.2.2.#.p.2.#.b.#bH#ea9.f.f.R.g.o",
".#.RbIbgbJbKa4#g.f.S#VbLbMbNbObP.2.2.q.o.c.M.l.m#gaHbQ.f.2.i.j.m",
".C.#bRbSbTa4#g#ga9bUbVbWbXbYbZb0.f.2#8.i.t.i.e#y.2#y#NaA#8bm#h.y",
".o.2.fb1b2b3b4b5b6b7b8b9c.c#cacb.f.B.P.#.o.e.a#z#8#j.P.e.#.v.e.c",
".l.2.fcccdcecfcgchcicjckclcmcn#g.2.B.R.#.q.o.I.B.f.#.C.K.l.o.o.G",
"#8.g#h.i.Rcocpcqcrcsctcucvcwcx#g.o.e.o.##y.2.o.q.f.f.2.g#N.dcy.b",
".#.e.#.q.R.fczcAcBcCcDcE.f.f.2.#.##8.l#z#z.e.l.P.g.M.j.Q.z.j.b.q",
".qcF.m.i.m.o.#.2.f.6.6.I.B.B.a.g.g.b.g#h.tba.H.N.dcG.F.k.j#xcH.P",
"Qt.B.mcI.C.R.M#8.B.P.j.M.e.j.K.M.ual.M.lcJ.c.j#N.k#2.o.ocI.j.I.f",
"QtQt#y.p#y.e.l.M.o.f.f#N#j#j#j.g.g.icK.k#N.fQt#z.M.x.b.#.q.#.fQt"};
