/* XPM */
static char *dummy[]={
"32 32 185 2",
"ad c #b6c9f0",
"aj c #b6caf2",
"ap c #b7cbf4",
"a. c #b8cbf1",
"at c #b8cffa",
"#R c #b8cffd",
"#W c #b9cffd",
"ay c #b9d0fe",
"Qt c #b9d1ff",
".c c #bad1ff",
".h c #bad2ff",
"a2 c #bbd1ff",
".# c #bbd2ff",
".e c #bcd2ff",
".d c #bcd3ff",
"#5 c #bdcef0",
".x c #bdd3ff",
".w c #bdd4ff",
"#X c #bed3fb",
".T c #bed3ff",
".g c #bed4ff",
".S c #bed5ff",
"#Y c #bfd4ff",
".z c #bfd5ff",
".f c #bfd6ff",
"#b c #c0d4ff",
".v c #c0d5ff",
"aT c #c0d6ff",
"aP c #c1d4ff",
"#J c #c1d5ff",
".B c #c1d6ff",
".i c #c1d8ff",
".y c #c2d6ff",
".b c #c2d7ff",
".a c #c3d7ff",
"#M c #c3d8ff",
"ag c #c4d7ff",
"#r c #c4d8ff",
".j c #c5d8ff",
"aC c #c5d9ff",
".o c #c5daff",
"az c #c6d6f6",
"#m c #c6d9ff",
".A c #c6daff",
"aS c #c6dbff",
"#n c #c7d9ff",
".n c #c7daff",
"aQ c #c8d9ff",
"aK c #c8daff",
"#v c #c8dbff",
".C c #c9dbff",
"#j c #c9dcff",
"aZ c #cadbff",
"#u c #cadcff",
"a0 c #caddff",
"#c c #cbdcff",
".l c #cbddff",
".m c #ccddff",
"aw c #ccdeff",
"aq c #cddcf8",
"#L c #cdddff",
".5 c #cddeff",
"aG c #ceddff",
"#d c #cedeff",
".R c #cedfff",
"af c #cee0ff",
"ae c #cfddf9",
".4 c #cfdfff",
"#Z c #cfe0ff",
"aH c #d0dfff",
"#4 c #d0e0ff",
"aL c #d0e1ff",
"#0 c #d1e0ff",
"#H c #d1e1ff",
"au c #d2e0fa",
"ak c #d2e0fc",
"aM c #d2e0ff",
".k c #d2e1ff",
".6 c #d2e2ff",
"a# c #d3e0f9",
"#7 c #d3e1ff",
"#E c #d3e2ff",
"aD c #d3e3ff",
"#F c #d4e2ff",
"a1 c #d4e3ff",
"#S c #d5e2ff",
".V c #d5e3ff",
"#f c #d5e4ff",
"#1 c #d6e3ff",
"#a c #d6e4ff",
"aW c #d7e3ff",
".X c #d7e4ff",
"#B c #d7e5ff",
"aB c #d8e4ff",
"#N c #d8e5ff",
".3 c #d8e6ff",
"#p c #d9e5ff",
".p c #d9e6ff",
"#V c #dae6ff",
"#T c #dae7ff",
"aN c #dbe6ff",
"#G c #dbe7ff",
"#l c #dce8ff",
".t c #dde8ff",
"aI c #dde9ff",
"#w c #dee8ff",
".D c #dee9ff",
"ao c #deeaff",
".Z c #dfe9ff",
".u c #dfeaff",
"aE c #e0e9ff",
"#t c #e0eaff",
"#C c #e0ebff",
"aY c #e1eaff",
".7 c #e1ebff",
".W c #e2ebff",
".0 c #e2ecff",
"aV c #e3ebff",
".Y c #e3ecff",
"#x c #e3edff",
"ab c #e4ecff",
".1 c #e4edff",
"#z c #e4eeff",
".s c #e5edff",
".U c #e5eeff",
"#2 c #e5efff",
"aR c #e6edff",
".F c #e6eeff",
"#D c #e6efff",
"#Q c #e7eeff",
".8 c #e7efff",
"ac c #e7f0ff",
"#6 c #e8effe",
".E c #e8efff",
"#o c #e8f0ff",
"#y c #e8f1ff",
"as c #e9efff",
".2 c #e9f0ff",
".Q c #e9f1ff",
"#e c #eaf0ff",
".r c #eaf1ff",
".q c #ebf1ff",
".9 c #ebf2ff",
"#O c #ecf1ff",
".I c #ecf2ff",
"ai c #ecf3ff",
"#9 c #edf2ff",
"## c #edf3ff",
"#8 c #edf4ff",
"#k c #eef3ff",
".G c #eef4ff",
"#K c #eff3ff",
".J c #eff4ff",
"aF c #eff5ff",
"an c #f0f4ff",
"aa c #f0f5fe",
".P c #f0f5ff",
"aA c #f0f6ff",
"#q c #f1f5ff",
".L c #f1f6ff",
"#. c #f2f6ff",
"ah c #f2f7ff",
"am c #f3f6ff",
"#g c #f3f7ff",
"#3 c #f4f7ff",
".K c #f4f8ff",
".H c #f5f8ff",
"aJ c #f5f9ff",
"al c #f6f8fe",
".M c #f6f9ff",
"ax c #f6faff",
"ar c #f7f9fe",
"#U c #f7f9ff",
"#P c #f7faff",
"#A c #f8f9ff",
"#I c #f8faff",
"av c #f8fbfe",
".N c #f8fbff",
".O c #f9faff",
"#s c #f9fbff",
"#i c #fafcff",
"aU c #fbfcff",
"#h c #fbfdff",
"aX c #fdfdff",
"aO c #fdfeff",
"Qt.#.a.b.#.c.c.c.d.d.c.d.d.d.c.e.d.#QtQt.#.d.#.d.c.c.c.#.f.gQtQt",
".h.i.j.k.a.d.#.c.l.m.m.n.o.p.q.r.s.t.u.u.l.a.v.g.d.d.d.w.d.w.f.c",
".x.y.z.A.B.d.e.d.v.C.D.E.F.G.H.G.I.J.K.L.M.N.O.P.Q.R.w.w.S.w.w.v",
".d.x.#.d.#.e.T.a.k.U.V.W.M.G.X.X.s.Y.Z.0.U.1.1.2.3.Y.T.d.w.d.d.w",
".g.d.d.4.#.f.5.6.7.J.M.8.X.I.9.s.s#.##.Y.1#a.k.Z.W##.M#b.w.d.c.c",
".d.#.d#c.d#d.E#e.M.P#f#g#h#i.H.s#a#d.5.R#j#k.t.b.z.F#l.2#m.d.e.c",
".w.c.e#j#n.F#o#p#q#r.W#s#t#u#v#u#w.t#x.W#o.F.7#y.c.c#z#A#d.a.c.w",
".d.c.d#B#C.E.8.E#r.I#D.8.E.G.1.1##.8##.8.I#E#F.m#x.1#G.L.0.l.e.d",
".d.##H#t.t#G.u.V#q#u.Y#I#g.1.m.B.v#J.5.k.V.9#k.2.4.G#K#L#E.D#M.d",
".c.d#N.E#O.q.F.I#P#k.I#Q#t#u.v.x.c.#.c.c.B.V.I.P.P.W#s.r.V.M.w.z",
"#R.d#S.7.U#a#T#O.2##.Y#G#G.G.r.J.L.P##.G#U.r##.Z.t.n.m.H#V.P.u.d",
"#W#X.Z.G#Y.V.s.V#G#Z#f.v#E.5.m.l#0#p.V#1.V#2.4#V.G#f.X#3.P.I#4#b",
"#W#5#6##.k.L.#.9#7.X.4.Y#r#G.2.G.0.8.J#8.p.1#9.k.U.k.4.P.J.E.s.T",
"a.a#aa.J.Z.q#C.2#a#L#P.Z.V.8#a#c#m.4#H#.#Pab.Zac.F.X.m.Y.Z.Y.8.d",
"adaeaa.q.r.0.r#oaf.t#Gagah.X#x#a#0.9.k#J.##t#t#Bai#8#f.7.B.I##.B",
"ajakalam#t##.8.9.Fan.g.X.0.X#t.9.I#k.q.k.v.Q.Q#4.I.E.U.Y#J.Pao.b",
"apaqar.r.X#D.8.8#k.J.X.p#o#f.F.ras.s.a.V.v.V.7.u#q.g#q.Y.x#P#Q.d",
"atauav.P.7.u.8##.U.s.X#N.7.l.F.r.X#G.Rac.6.9aw.V.2.B.P.F.nax.U.#",
"ayazaA.H.K.Q.I.9#r.H#NaB#laC#x.q#taD#E.r.W.M#FaE.7#JaF.Vag.K.8.b",
"#R.c.r###i.J.P.IaGaHan.saI#D#N.0#1#N.l#z.u.L.t#a.s.p#g.D#Y.K#D#u",
".c.T.F.J#Vam.E.q#F.4###N#EaD#T.2#r.C.1.G##.X.p.X.7ai.8#w.YaJ.2.e",
".d#r.2.9#4.9#g#a.p.C#0.P#2.AaK.D#H.2.2.I#4.c.Y#P#1.9.r.J.H.qaL.z",
".e.g.U.0.J#P.H.P#gaM.C#N#x##ac.M.M.M#3aN.g#u.F.1.K#8.GaOaE.7aP.d",
".d.#aQ.7#a#t#k#.#a#8aI#a.v.4#H#F.D.YaR#n.c#d.P###w.9aAaJ.u.k.w.c",
".d.daS#E.E#Q#C#P#g#9aAaF.Z.j.##YaT.v.3#g#xaU#s#Q.t#E#8.M#4#r.d.c",
".c.c.c.B#u.9ac#g.F.1.q.5#l.2##.X.4#.aJ#.#t.9#P.J.g.I#e#B#v.e.g.T",
".c.c.c#JaVaW.F#k#gag#d.r.Jaiah.2aI#T.Z#.aX#8#e#x.1#taY.v.d.d.c.d",
".c.c.c.w#r.t.F#D.q.JaU#s.9#a.t.p#C.Pan.8#I#1.t.k.D#V.7.g.x.d.c.d",
".d.d.#.w.x#Z#N.X#C#L.Y.uam#.aJ.P.I.9.Y.r.I#0.5.Iag#v.y.w.d.d.d#m",
"#Y.x.d.S.w.w.daZ.D#x.W.D.5#a.F#k####.E.t#S.t.Y.Cag.z.d.d.d.d.d.d",
".m.d#b.w.w.d.w.#.daKaKa0#1#fa1#t.F.Y#t.naI.D#0.v.d.c.d.c.d.w.d.c",
".a.ca2.#.d.d.d.d.#.#.c.d.x#M#c.c.B.C.c.caT.d.w.d.w.c.w.w.d.#.cQt"};
