/* XPM */
static char *dummy[]={
"32 32 82 2",
"Qt c #b9d1ff",
".c c #bad1ff",
".m c #bad2ff",
".8 c #bbd1ff",
".# c #bbd2ff",
".h c #bcd2ff",
".E c #bcd3ff",
"#p c #bdd2ff",
".B c #bdd3ff",
".s c #bdd4ff",
".6 c #bed3ff",
".l c #bed4ff",
"#i c #bfd3ff",
".d c #bfd4ff",
".5 c #bfd5ff",
"#e c #c0d4ff",
".e c #c0d5ff",
"#a c #c0d6ff",
".j c #c1d5ff",
".y c #c1d6ff",
".i c #c2d6ff",
".b c #c2d7ff",
".7 c #c3d6ff",
".a c #c3d7ff",
".x c #c3d8ff",
".q c #c4d7ff",
".A c #c4d8ff",
".g c #c5d8ff",
".u c #c5d9ff",
".w c #c6d8ff",
".n c #c6d9ff",
".D c #c6daff",
".0 c #c7d9ff",
".r c #c7daff",
".F c #c8daff",
".v c #c8dbff",
"#g c #c9daff",
".M c #c9dbff",
".N c #c9dcff",
"#d c #cadbff",
".p c #cadcff",
"#m c #caddff",
".f c #cbdcff",
".C c #cbddff",
"#f c #ccdcff",
".k c #ccddff",
".S c #cdddff",
".U c #cddeff",
".O c #cedeff",
".4 c #cedfff",
"#l c #cee0ff",
".T c #cfdeff",
".t c #cfdfff",
"#c c #d0dfff",
"#b c #d0e0ff",
".Q c #d1dfff",
".P c #d1e0ff",
".Z c #d1e1ff",
".o c #d2e1ff",
".Y c #d2e2ff",
".z c #d3e1ff",
"## c #d3e2ff",
".G c #d4e2ff",
".1 c #d4e3ff",
"#h c #d5e2ff",
".R c #d5e3ff",
"#. c #d6e3ff",
".L c #d6e4ff",
".9 c #d7e4ff",
".3 c #d7e5ff",
"#o c #d8e4ff",
".V c #d8e5ff",
"#n c #d8e6ff",
".H c #d9e5ff",
"#k c #d9e6ff",
"#j c #dae6ff",
".I c #dbe7ff",
".2 c #dce7ff",
".K c #dce8ff",
".W c #dde8ff",
".X c #dee9ff",
".J c #dfe9ff",
"Qt.#.a.b.#.c.c.c.d.e.c.d.f.g.c.h.e.#QtQt.#.e.i.j.c.c.c.#.k.lQtQt",
".m.n.k.o.p.a.e.c.#.q.i.r.s.c.l.k.t.r.u.v.u.a.w.x.e.y.t.y.y.z.A.c",
".B.g.C.D.f.r.h.E.F.g.u.F.g.B.B.o.G.H.I.J.K.L.o.M.N.f.O.P.k.P.Q.e",
".B.g.j.M.p.h.n.M.r.F.R.S.t.o.a.g.f.T.U.V.K.W.X.G.U.k.t.t.r.y.n.g",
".A.g.d.c.#.F.M.N.Y.K.W.I.Z.M.0.i.e.A.x.A.a.n.o.P.F.F.t.1.A.k.c.c",
".d.y.B.l.r.r.g.o.2.3.U.r.v.y.a.n.p.O.U.4.N.C.a.b.5.c.i.n.c.r.h.c",
".e.c.h.n.k.R.t.g.6.c.c.c.e.l.A.5.7.n.C.y.n.v.v.D.c.c.c.g.8.c.c.k",
".i.c.a.p.o.V.Z.w.#.i.A.p.F.P.z.k.1.9.9#..V##.p.k.n.h.c.E.c.E.h.F",
".k.#.f.L.k#a.b.B.M.p.i.a.C.t.k.y.e.j.e.r#b.o.o.P.t.U.F.y.C.U.i.M",
".c.e#c#d.d.a.h.r.u.e.l#b.k.a.e.B.c.#.c.c.c.q.M.U.o.f.A.h#e.P.F.y",
".c.p#c.p.e.B.r.d.e.n.o.U.e.l.h.l.j.x.0.u.c.8.l.A.g.r.n.d.e.G.z.E",
".h.f#f.p.d.F.n.d.c.u##.e.c.c.c.v.P.G#b###g.c.c.h.c.5##.j.B.C#..g",
".6.i.P.e.j.6.#.d.F.C.a.h.l.r.k.t.p#d#h.K.R.i.B.c.c.B.t.n.d#i.S.F",
".h.t#c.5.d.c.A#j#c.6.c.c.E.U.k.f.n.0.r.f.0#b.a.6.c.c.k.G.e.6.F.i",
".c.e.i.e.h.#.R.9.y.8.c.c.n.M.n.q.i.i.e.j.#.t.P.e.h.c.b.t.y.5.F.E",
".c.A.l.d.#.a.R.F.d.c.l#f.n.i.j.a.i.B.c.e.e.a.1.e.d.c.y.G.j.y.M.6",
"Qt.g.M.dQt.4#k.O.k.5.S.t.j.d.A.P.P.S.a.c.l.e.d.u.6.l.A##.B.i.O.y",
".c#b.F.b.j.U.1.U.k#f.1.l.n.u.o.L.1.I.U#b.C.e.c.r.B.y.e.G.r.R.t.B",
".c.M.C.O#l#m#k.f.A#b.V##.n.u#n###d.t.v.9.I#d.r.P.g.j.e.p.q.z.o.A",
".c.c.p#d.S.o#k.r.i.O.9.Y.b.f.9.K.C.t.C##.X#d.n.v.g.y.p.S.d.k.M.y",
".c.c.a.e.A.A.R#f.y.M#c.V.C.r.U.F.A.M.t.9.9.f.l.n.e.e.n.i.y.d.g.h",
".C.c.j.B.y#d.R.t.5.M.t.9.3.y.F.p.r.g.Q#j#b.c#d.o.i.a.g.q.y.c.y.e",
".h.c.5.5.e.M.O.G.j.h.M.f.2#c.g.e.y.a.P.z.l.c.i.O.e.n.t.t.d.c.y.k",
".k.#.#.a.c.n.f.t##.b.a.r.e.t.Z.T.p.n.g.j.c.g#f.i.#.a.O.k.c.B.l.c",
".M.B.c.i.e.c.u.F#o#..n.e.n.8.#.d.#.#.5.d.n.G.f.8.d.e.t.g.c.j.6.c",
".c.c.c.P.a.c.l#d.e.U.O.A.h.c.c.c.c.#.e.0.P.A.M.e.l.t.t.a.#.h.l.6",
".c.c.c.k.P.c.c.a.F.j.y.r.i.#.c.A.u.M.O.p.n#d.g.d.p.z.a.e.A.O.c.f",
".c.c.c.l#c.P.8.l.F.b.e.y.g.a.g.F.v.k.p.M.v.i.n.o.R.l.f.n#c.M.c.6",
".6.y.#.e.u.t.G.F.y.h.c.d.a.i.A.k.n.p.U.R#.#g.r#b.q.v.p.y.T.k.M#c",
".e#d.o.C#a.d.P.f.y.c#p.S.A.x.e.0.t.1#j.H.C.A.q.M#d.M.5.D.t.P.B.B",
".k.g#b.u.r.O.A.n.B.e.i.v.a.a.4#c.k.O.t.l.h.n.M.r.B.c.y.c.6.n.B.c",
".a.c.8.#.6.F.k.p.#.B.c.C.F.c.i.c.c.c.c.c.c.k.M.f.q.c.M.i#c.#.cQt"};
