/* XPM */
static char *dummy[]={
"32 32 586 2",
"f. c #7e6d53",
"aZ c #807461",
"cW c #827057",
"ea c #877457",
"#p c #87755a",
"el c #87765c",
"#M c #887456",
"ga c #89775c",
"fh c #8c7655",
"bi c #8f7c60",
"gt c #927c5b",
"bt c #927f60",
"ae c #937b56",
"br c #937b57",
"#V c #937c5a",
"ac c #938b7c",
"b3 c #938e84",
"bq c #947c58",
"#U c #947e5f",
"ag c #948876",
"cm c #948f84",
"bs c #957a53",
"aE c #957a54",
"f# c #957d5b",
"ev c #957f5e",
"#W c #95866e",
"bI c #958f84",
"bH c #959087",
"dg c #959188",
"he c #967a52",
"hf c #967a53",
"bX c #967a54",
"hh c #967c55",
"bC c #967e5b",
"b1 c #967e5e",
"cE c #968367",
"bu c #969289",
"hd c #977b54",
"ew c #977b55",
".l c #977c54",
".k c #977c55",
"en c #977c57",
".m c #977d55",
"aF c #97805d",
"dA c #978770",
"aJ c #979085",
"#S c #979187",
"dB c #97938a",
"#Y c #97938b",
".v c #987c55",
"eu c #987c56",
".# c #987d55",
".a c #987d56",
"cj c #987d57",
"em c #987d58",
"#O c #987e58",
"#P c #987e59",
"es c #987e5a",
"bL c #987f5a",
"fS c #987f5b",
"fR c #987f5c",
"eh c #987f5d",
"fT c #98805e",
"fg c #988365",
"#r c #988f81",
"bv c #989286",
"#u c #98938b",
"cF c #98948c",
"a0 c #98958c",
"#I c #997d56",
"#H c #997d57",
"hg c #997e56",
"Qt c #997e57",
".b c #997e58",
".M c #997e59",
"e0 c #997f57",
".x c #997f59",
"a3 c #997f5a",
"bT c #997f5b",
"et c #997f5c",
"ax c #997f5d",
"fY c #99805b",
".L c #99805c",
"bQ c #99805d",
"aC c #99805e",
"cU c #99805f",
"#7 c #99815c",
"bR c #99815d",
"fc c #99815f",
"eg c #998160",
"bp c #99825f",
"fQ c #998261",
"ca c #998262",
"bm c #998466",
"#Q c #998870",
"#q c #998871",
"cl c #999185",
"aA c #99958d",
"co c #99968e",
".s c #9a7e57",
".p c #9a7e58",
".u c #9a7e59",
"#o c #9a7f57",
".r c #9a7f58",
".w c #9a7f59",
".j c #9a7f5a",
"dr c #9a7f5b",
"au c #9a8058",
"bA c #9a8059",
"#6 c #9a805a",
"by c #9a805b",
"bD c #9a805c",
".h c #9a805d",
"bP c #9a805e",
"bU c #9a815c",
"c2 c #9a815d",
"df c #9a815e",
"bS c #9a815f",
".i c #9a825d",
"bk c #9a825e",
".K c #9a825f",
"eD c #9a8260",
"eC c #9a8261",
"fP c #9a8262",
"er c #9a8361",
"cV c #9a8363",
"ei c #9a8364",
"eQ c #9a8365",
"ep c #9a8463",
"b7 c #9a8465",
"cS c #9a8466",
"cb c #9a8567",
"aH c #9a8b74",
"#R c #9a968f",
"bN c #9a978f",
".q c #9b7f59",
"eE c #9b7f5a",
".n c #9b8059",
".t c #9b805a",
"gv c #9b805b",
"gV c #9b805c",
".A c #9b815a",
"bw c #9b815b",
"bW c #9b815c",
".e c #9b815d",
".g c #9b815e",
".o c #9b825d",
"ds c #9b825e",
".N c #9b825f",
"#0 c #9b8260",
"d. c #9b8360",
"#9 c #9b8361",
".J c #9b8362",
"eR c #9b8363",
"eq c #9b8364",
"fZ c #9b8462",
"fH c #9b8463",
"am c #9b8464",
".B c #9b8465",
"ee c #9b8466",
"c1 c #9b8564",
"fq c #9b8565",
"de c #9b8566",
"ef c #9b8567",
"dI c #9b8568",
"dZ c #9b8667",
"f9 c #9b8668",
"dH c #9b8669",
"b6 c #9b866a",
"cT c #9b876b",
"cx c #9b876c",
"bO c #9b8b76",
"bY c #9b8e7b",
"aI c #9b958d",
"bo c #9b968e",
"#v c #9b9791",
"cp c #9b9891",
"fU c #9c7c5f",
"av c #9c805a",
"ay c #9c815a",
"bB c #9c815b",
"aw c #9c815c",
"bx c #9c815d",
".V c #9c825d",
"cD c #9c825f",
"bV c #9c8260",
"aq c #9c835e",
"dW c #9c835f",
"#1 c #9c8360",
"g8 c #9c8361",
".O c #9c8362",
".f c #9c8460",
"b2 c #9c8461",
"aX c #9c8462",
"fp c #9c8463",
"c4 c #9c8464",
"c3 c #9c8465",
"#2 c #9c8563",
"ed c #9c8564",
"e9 c #9c8565",
"ap c #9c8566",
"eb c #9c8567",
"fJ c #9c8568",
"eP c #9c8667",
"ao c #9c8668",
"#8 c #9c8669",
"eO c #9c8768",
"dL c #9c876b",
"an c #9c886d",
"b9 c #9c886e",
"cy c #9c896f",
"cv c #9c8970",
"d6 c #9c8971",
"cw c #9c8a71",
"cN c #9c8a72",
"bM c #9c9487",
"cI c #9c9791",
"aB c #9c9890",
"#L c #9d815b",
"gY c #9d825a",
"cC c #9d825c",
"fN c #9d825d",
"#N c #9d825e",
"f5 c #9d835d",
"f4 c #9d835e",
"a# c #9d835f",
".T c #9d8360",
"dt c #9d8361",
"ci c #9d845e",
"bz c #9d845f",
"a9 c #9d8461",
"#5 c #9d8462",
".U c #9d8562",
"fz c #9d8563",
"c9 c #9d8564",
"dD c #9d8565",
"a6 c #9d8662",
"eB c #9d8669",
"h. c #9d8767",
"e8 c #9d8768",
"al c #9d8769",
"cZ c #9d876a",
"eS c #9d886c",
"dM c #9d896d",
"c# c #9d896f",
"g3 c #9d8970",
"ce c #9d8a70",
"f6 c #9d8a71",
"b8 c #9d8a72",
"ct c #9d8a73",
"g2 c #9d8b72",
"cR c #9d8b73",
"dG c #9d8b74",
"aM c #9d8b75",
"cA c #9d8c75",
"cr c #9d8c76",
"#x c #9d9890",
"a1 c #9d9891",
"#X c #9d9991",
"ah c #9d9992",
"bf c #9e825c",
"g0 c #9e825d",
"gZ c #9e835d",
"ck c #9e835e",
"a. c #9e835f",
"g1 c #9e845e",
"e1 c #9e845f",
"aY c #9e8460",
"ba c #9e8461",
"#J c #9e8561",
"ek c #9e8562",
"dq c #9e8563",
"b# c #9e8564",
"bE c #9e8664",
"b. c #9e8665",
"bl c #9e8666",
"ch c #9e8667",
"c6 c #9e8766",
"c8 c #9e8767",
"bj c #9e8769",
"c7 c #9e8869",
"gK c #9e886a",
"c0 c #9e886b",
"ez c #9e886c",
".G c #9e886d",
"cB c #9e896d",
"ak c #9e8a6e",
"#4 c #9e8a6f",
".I c #9e8a70",
"dK c #9e8a71",
"dR c #9e8a72",
"#Z c #9e8b70",
"g. c #9e8b71",
"cf c #9e8b73",
"g4 c #9e8c74",
"aj c #9e8c75",
"c. c #9e8c77",
"cO c #9e8d77",
"cP c #9e8d78",
"aN c #9e8d79",
"d3 c #9e8e79",
"d4 c #9e8e7a",
"bZ c #9e9b95",
"ar c #9f845f",
".S c #9f8460",
".c c #9f8560",
".R c #9f8561",
"#K c #9f8662",
"fl c #9f8663",
"bF c #9f8664",
"dV c #9f8665",
"e. c #9f8764",
"g9 c #9f8766",
"db c #9f8767",
"gJ c #9f8768",
"dl c #9f8869",
"gO c #9f886b",
"g6 c #9f8870",
"dn c #9f8968",
"aP c #9f896b",
"c5 c #9f896c",
".H c #9f8a6f",
"at c #9f8b6f",
"az c #9f8c70",
".F c #9f8c72",
"aO c #9f8c74",
"dT c #9f8d75",
".C c #9f8d76",
"dF c #9f8d77",
"dS c #9f8e78",
"g5 c #9f8e79",
"cc c #9f8f7b",
"d7 c #9f8f7c",
"d2 c #9f8f7d",
"cz c #9f907e",
"e# c #9f917c",
"e4 c #9f917f",
"fs c #a0785f",
"a2 c #a0855f",
"bg c #a08560",
"be c #a0865f",
"fi c #a08662",
"dz c #a08663",
".0 c #a08764",
"fa c #a08765",
"dp c #a08767",
"hc c #a08865",
".Z c #a08866",
"f2 c #a08869",
"dm c #a08968",
"bb c #a08969",
".8 c #a08a6d",
"do c #a08b6d",
"gM c #a08c70",
"fr c #a08d75",
"eT c #a08e76",
"dJ c #a08e78",
"dN c #a08f78",
".D c #a08f79",
"dU c #a0907b",
"f3 c #a0907c",
"#T c #a0917c",
"cg c #a0917f",
"as c #a09281",
"cu c #a09383",
"cd c #a09384",
"cM c #a09485",
"cq c #a09c94",
"b4 c #a09e99",
"fW c #a1765a",
"ad c #a18762",
"eZ c #a18763",
"aQ c #a18765",
"dw c #a18867",
".P c #a18969",
"du c #a1896b",
"aG c #a18a69",
"dd c #a18a6a",
"da c #a18a6c",
"dj c #a18a6d",
"hb c #a18b6a",
"d9 c #a18b6b",
"gI c #a18b6d",
"h# c #a18b6f",
"dc c #a18c71",
"#3 c #a18c72",
"#. c #a18d73",
"g7 c #a18e74",
"eA c #a18e75",
"dY c #a18f77",
"d1 c #a18f78",
"ey c #a18f7a",
"fm c #a1907a",
"eV c #a1917e",
"eK c #a19280",
"eL c #a19382",
"aL c #a19384",
"cn c #a19482",
"cs c #a19587",
"cQ c #a19689",
"cL c #a19c95",
"g# c #a2846e",
"bJ c #a28762",
".y c #a28763",
".z c #a28862",
".W c #a28864",
"eo c #a28865",
"fb c #a28964",
".d c #a28966",
"gQ c #a28967",
"f0 c #a28b6d",
"dv c #a28c6e",
"bc c #a28c6f",
"e3 c #a28d70",
"d# c #a28d73",
"#a c #a28e74",
"aK c #a28e76",
"#b c #a28f78",
".9 c #a29077",
"dO c #a29079",
"gN c #a2907a",
"dP c #a2917b",
"gF c #a2927d",
"fn c #a2927f",
"eJ c #a29381",
".E c #a29484",
".5 c #a29685",
"f8 c #a29688",
"d5 c #a2968a",
"dX c #a2998c",
"aa c #a29b91",
"b5 c #a29d94",
"ab c #a29f99",
"cK c #a29f9a",
"cG c #a29f9b",
"ff c #a37660",
"e7 c #a38170",
"fO c #a38862",
"fE c #a38864",
"#i c #a38964",
"fk c #a38965",
"di c #a38a67",
".Y c #a38b67",
"dx c #a38c6e",
"dh c #a38e6e",
"dk c #a38e70",
"ha c #a38f73",
".7 c #a38f75",
"d0 c #a39177",
"gL c #a3917a",
"e2 c #a3917c",
"fI c #a3937e",
"fo c #a39381",
".6 c #a39482",
"#c c #a39483",
"eW c #a39484",
"d8 c #a39584",
"eU c #a39586",
"cY c #a39989",
".4 c #a39b8f",
"dC c #a39e97",
".2 c #a39f99",
"#y c #a39f9a",
"a7 c #a3a09a",
"cH c #a3a09c",
"fK c #a4735b",
"e5 c #a48678",
"#j c #a48a64",
"aD c #a48a65",
"gc c #a48a66",
"fx c #a48a67",
"gR c #a48a69",
"fA c #a48b66",
"fD c #a48b67",
"a4 c #a48b68",
"ec c #a48c6c",
"gu c #a48d6c",
"#G c #a48e71",
"eF c #a4937f",
"fF c #a49380",
"## c #a49582",
"eG c #a49685",
"eX c #a49686",
"eN c #a4988c",
"ej c #a4998e",
"#s c #a49b8e",
"eM c #a49b90",
"ai c #a49f99",
"bn c #a4a09a",
"a8 c #a4a09b",
"cX c #a4a19c",
".3 c #a4a19d",
"#w c #a4a29d",
"bG c #a4a29e",
"gs c #a58368",
"bK c #a58a64",
"a5 c #a58a65",
"fC c #a58b66",
"af c #a58b67",
"aV c #a58c69",
"bh c #a58c6a",
".Q c #a58c6c",
"#E c #a58d6b",
"gd c #a58d6e",
"ex c #a58e6d",
"#n c #a58e6f",
"gr c #a58f71",
"ge c #a59176",
"dE c #a5947f",
"#e c #a59582",
"#f c #a59682",
"gH c #a5988c",
"f7 c #a59c96",
"fV c #a6705e",
"f1 c #a68b66",
"bd c #a68c6b",
"fL c #a68d6a",
"#D c #a68e6d",
"#B c #a68f70",
"eY c #a69074",
"gj c #a6937c",
".1 c #a69479",
"gf c #a6947d",
"b0 c #a6957e",
"gG c #a69c93",
"fX c #a7705f",
"gB c #a78c69",
"fB c #a78d6a",
"fu c #a78e71",
"fj c #a78f6c",
"#m c #a78f6d",
"gW c #a78f6f",
"#C c #a79072",
"aW c #a79379",
"gi c #a7957f",
"gk c #a7967f",
"gh c #a79680",
"gE c #a79785",
"dQ c #a79c92",
"eI c #a7a09c",
"fd c #a86e5e",
"gy c #a88e69",
"gX c #a8906f",
"#A c #a89070",
"gD c #a8957c",
"go c #a89884",
"eH c #a89a88",
"fG c #a89b8d",
"#d c #a89c90",
"#t c #a89e8f",
"cJ c #a89f91",
"ft c #a96c5c",
"gq c #a96d5d",
"gP c #a96e5d",
"gp c #a97161",
"fw c #a98d71",
"aR c #a9916f",
"#z c #a99882",
"gn c #a99884",
"gg c #a99a88",
"fe c #aa695b",
"gS c #aa6a5b",
"e6 c #aa6a5c",
"fv c #aa7b65",
"gC c #aa906c",
"#l c #aa906d",
"gw c #aa967e",
"fM c #aa9780",
"aS c #aa9b89",
"gT c #ab866d",
"fy c #ab9270",
"dy c #ab967a",
"#F c #ab9982",
"gz c #ac9370",
"aU c #ac9371",
"gl c #ac9d8d",
"gA c #ad9371",
"gb c #ad9470",
".X c #ad9472",
"gm c #ad9e8d",
"gx c #ae9571",
"#k c #b09875",
"gU c #b09878",
"#h c #b19a7a",
"aT c #b19e86",
"#g c #b1a08a",
"Qt.#.a.a.b.c.d.e.f.g.e.h.i.j.k.l.m.b.n.o.p.q.r.s.n.t.u.q.u.r.#.v",
".k.#.b.w.x.y.z.A.g.B.C.D.E.F.G.H.I.J.K.L.M.N.O.P.Q.R.S.T.o.UQt.v",
".V.W.X.Y.Z.0.1.2.3.4.5.6.7.8.9#.###a#b#c#d#e#f#g#h#i#j#k#l#m#g#n",
".m#o#p#q#r#s#t#u#v#w#x#y#z#A#B#C#D#E#B#F#G.j.b#H#IQt#J#K#L#M.e#N",
"#O.v#P#Q#R#S#T#U#V#W#X#Y.4#Z#0#1#2#3.9#4#5#6#I.w.t#7#8#9Qt#6a.#1",
"#P.qa#aaabacad.caeafagahaiaj#4akalamanaoapaq.Aar.Palasatauavaw#P",
"axayazaAaBaCaDaE#7aFaGaHaIaJaKaLaMaNaOaOasaPaQaR.d#GaSaTaUaVaWaX",
".NaYaZa0a1aDa2a3a4#Pa5a6a7a8a9b.b#bab.bbbcbbbdbebf.zbgadbhbi#Gbj",
"bkblbmbnbobpadaEbqbrbsbtbubvQt.abwbx#6.jbyaYbz.w.wau.qbAbBbC.N.J",
"bDbEbFbGbHbIbg.tbJbKbLbMbNbObPa3bQbRbkbSbTbDbybUby.wbybVaq#obWbT",
"bX.kQtbYbZbGb0b1bEb2b3b4b5b6b7b7b8b9c.c#.Bcacbcccdcec#cfcgchcicj",
".bck.hclcmbNcnco#RbGcpcqcrcsctcucvcwcbcxcyczcwctb6cActcvaNcBcCcD",
".LcEcFcGcHcIcJcKcLa8cMcNb6ctcOcPcPancQcRcSb7cTb7cacUcacVcacW.M.b",
"bTcXbZcYcZ.J.Tc0apc1c2c3c4c5c6c7alc8c9bDd.d#dadbc9c9aXdcdddeawdf",
"c2dgdhdidj#ndkdbdldmdndobbdpdqdrbUdsa9.Jdtdmbbc8dudvdwdxdy.cdzbS",
"dAdBdCdDccdEdFdGcvdHdIaMdJdKdLdHdM.CdNatdOdPdQdR.CdSdTdUdV#6dWam",
".hdXdYdZcvd0d1aMb8dGdGcPcPd2aNd3d3d4b8d3d5czcQcud6d7d5d8d9bbe..K",
"#Pe#eaebcTecedcVdId6dIdIdLeeefcVegaCehdIb6eicbb6b8b6asejekeld9em",
"en.wawcD#9eoc4deepeq.J.Jereset.h#O#O.a#P#Oeu#P#ObDesemax.aevbaew",
"bT.wa#cBc5exeyezaleAeBaXeC#P.aewcja3eDapeDetbSeDeDc4.J#7aY.Wa#bT",
".geE#JeFeGeHeIeJeKeKcceLeMeNeOePeQeR.DeSdUeTeUeVeWeXeU#eeYeZbWa3",
".be0e1ale2dvcSe3ajcycTcyaMd6d6cvczdGcycSe4c.e5e6e7cyd7e8e9eka#cD",
".l.vf.f#fa.Rfbe.aCegaCbTesem#O#ObRfceCcadMc.fdfeffeqbS.hfgfhcC#H",
".Lfi.e#nfjaDfk.Rflfmfnfo.GfpedeCfq#8c0.Hfr.Kfsfeftfufvfwfxfydz.g",
"etfzadfAfBfCfDaVfEdvfFd1frfGe8eqfHatfIfJfefefefefefefefKcCfLfMeP",
"#OfN.qfObJbE.g.o.b#6cafPeCfQfRfSfTcab6eifUfVfWfefefefXds.r.wfY#O",
"fZf0bKf1f2d4f3f4f5bFaNf6dIctd3e4aMf7f8f9efg.fefefefeg##5bBQta3bT",
"d.aKgagbdmbj#ngc#igdgegfggghgigjgkglgmgngogpfegqgrfefegsedgtgu.h",
"gvgwgxgyadgzgAgBgCgDgEgFgGgHgIgJgKgLgMgNgOfdgP#DgQgRgSgT.XgzgUgV",
"cjgWgXgygYgZg0g1.Td7cOcRg2g2c#c#g3g4cfaNg5g6g7g8aqe1ckarbzf4.Sem",
"eu.t.pa#.n.scj.#.a.wbyg9h.h#haa9c7gKg8#6fH.g.ohbdVdWhcfaa#cCaqcj",
".khdhehdhd.l.k.#.l.lhd.l.lhdhf.#ew.vhdhd.vhdhdhdhdhd.##H.khg.#hh"};
