/* XPM */
static char *dummy[]={
"32 32 527 2",
"aw c #3a482e",
"bk c #3a482f",
"bW c #3b472e",
"dj c #3b482f",
"#E c #3b4930",
"bI c #3b5d39",
"ah c #3c4a30",
"#W c #3c5334",
"cZ c #3d4c2e",
"#X c #3e4d2f",
"ay c #3e643e",
"ag c #3e6b41",
"cB c #3f4b2f",
"bA c #3f4d30",
"av c #3f4d31",
"#F c #404932",
"ab c #404b31",
"#D c #404e30",
"ci c #414a31",
"dk c #41512f",
"#U c #424e33",
"ai c #425030",
"#G c #445232",
"aD c #445331",
"aN c #465034",
"aW c #465231",
"#w c #465630",
"aC c #475331",
"bJ c #475674",
"#d c #475732",
"cl c #476038",
"bB c #477140",
"aq c #485332",
"#k c #485533",
"bN c #485832",
"bs c #495933",
"#e c #495935",
".I c #495936",
"aS c #496c3e",
"ar c #4a5334",
"#Q c #4a5a37",
"bG c #4a824a",
"b6 c #4b5788",
"b5 c #4b5789",
"#C c #4c5437",
"#T c #4c5438",
"aa c #4c5537",
"ch c #4c5736",
"ev c #4c5788",
"aO c #4c5833",
"du c #4c5889",
"aX c #4c5935",
"a7 c #4c5b38",
"b7 c #4c5b87",
"b8 c #4c5b88",
"bL c #4c5b89",
"a6 c #4c5c37",
"#R c #4c5d3c",
"#j c #4d5538",
"bK c #4d5886",
"dN c #4d5888",
"bl c #4d5941",
"d2 c #4d5a87",
"cr c #4d5b52",
"cN c #4d5b88",
"bm c #4d5c82",
"bn c #4d5c86",
"dt c #4d5c88",
"a0 c #4d5c8b",
"#Y c #4e5838",
"d1 c #4e5b88",
"cq c #4e5b8c",
"b3 c #4e7b53",
"eK c #4f4e59",
"cA c #4f553b",
"dA c #4f573a",
"cp c #4f5b83",
"b4 c #4f5b88",
"co c #4f5d80",
"c. c #4f5d8e",
"dc c #4f5d92",
"d# c #4f5f93",
"bf c #4f6638",
"fX c #504229",
"bj c #505a32",
"c9 c #505b84",
"cS c #505b91",
"db c #505f93",
"cR c #506095",
"b9 c #506096",
"da c #50619a",
"cm c #508147",
"au c #515940",
"ef c #515986",
"dd c #515a85",
"bF c #515b32",
"ew c #515d86",
"d. c #515f8f",
"cO c #516091",
"bM c #516094",
"cP c #516196",
"bo c #516299",
"cQ c #51629a",
"a1 c #51629d",
"eX c #524630",
"fI c #524835",
"dB c #52543f",
"cW c #52583b",
"#l c #52583c",
"cv c #526091",
"cT c #526095",
"cj c #526e3e",
"ft c #534837",
"di c #53583d",
"#B c #535842",
"cz c #53593c",
"cu c #535e85",
"cY c #536035",
"eW c #544e42",
"a# c #545343",
"c0 c #545834",
"aT c #548144",
"fc c #55472f",
"fb c #554b39",
"fa c #554d3f",
"fY c #554f40",
"fJ c #554f41",
"#H c #555b3f",
"dv c #555e88",
"aG c #556190",
".J c #55664b",
"fs c #564f41",
"f9 c #565145",
"aE c #565a3e",
"ba c #565b42",
".u c #56674d",
"ck c #56924e",
"fW c #574e3f",
"fH c #575145",
".1 c #575247",
"bV c #575d43",
".y c #57684f",
"fT c #585247",
"fF c #585348",
"aj c #585941",
".B c #595349",
"fx c #59544a",
"eL c #595969",
"#Z c #595b40",
"aY c #595d42",
"e6 c #5a5449",
"fp c #5a544a",
".E c #5a554b",
".L c #5a554c",
"fe c #5a564d",
"ac c #5a753f",
".D c #5b5449",
"fq c #5b554b",
"bu c #5b564b",
"fL c #5b564d",
".M c #5b574e",
"dz c #5b5b41",
"aJ c #5b5c50",
".3 c #5b614e",
"cG c #5b616c",
"cE c #5b6334",
"b0 c #5b7d41",
"d9 c #5c554b",
".C c #5c564b",
"f# c #5c564d",
"fS c #5c574c",
"aM c #5c624e",
"bb c #5c6434",
"d3 c #5c668c",
"a2 c #5c6994",
"d4 c #5d5951",
"cM c #5d6076",
"bz c #5d6450",
"eQ c #5e554a",
"eY c #5e5647",
"dR c #5e564d",
"eN c #5e5749",
"f5 c #5e584c",
"fE c #5e5951",
"#O c #5e5a52",
"#t c #5e5a53",
"cX c #5e6735",
"f4 c #5f5849",
".T c #5f5c55",
"dh c #5f5d46",
"#m c #5f5f49",
"eD c #60584b",
"fl c #60594c",
"fB c #605a4d",
"fR c #605b51",
"ak c #605d46",
"#i c #606454",
"aR c #60974e",
"fo c #61594d",
"fr c #615a50",
".2 c #615a52",
"fC c #615b4d",
"ff c #615b4f",
"aZ c #615e61",
"#z c #615f5a",
"aH c #616269",
"aF c #61677f",
"f2 c #62594c",
"e0 c #625b52",
"fD c #625d53",
"c# c #625f49",
"ca c #62604a",
"bO c #626d47",
"aQ c #628b46",
"f. c #635949",
"fM c #635c4e",
"em c #635d51",
"fy c #635e56",
"d5 c #635f56",
"at c #63605c",
"fw c #63615c",
"#c c #63615d",
"fm c #645d50",
"ei c #645f56",
"ez c #64615d",
"#A c #64625e",
"cH c #646464",
"dS c #655c4c",
".N c #655d51",
"f3 c #655e53",
"bx c #655f53",
"aI c #65634e",
"#u c #656360",
"b2 c #658845",
"#h c #66625a",
"#g c #666462",
".A c #666562",
"cV c #676259",
"cg c #676350",
"fG c #676563",
"#N c #676664",
"dx c #685f4f",
"fn c #685f50",
"d8 c #685f51",
"dw c #686257",
"df c #68625a",
"dC c #68644b",
".0 c #686765",
"cc c #686766",
"bw c #686867",
"eV c #69604e",
"e5 c #696051",
"dO c #696358",
".S c #69655f",
"cs c #696663",
"cw c #696968",
".x c #697b6e",
"al c #6a604e",
"cd c #6a6866",
"f6 c #6a6969",
"bT c #6a6a6a",
"#. c #6b6150",
"#r c #6b6251",
"#0 c #6b6252",
".F c #6b6a6a",
"bR c #6b6b6b",
"a8 c #6b6b6c",
".4 c #6b6c5d",
"#I c #6c6353",
"#M c #6c6455",
"fN c #6c6658",
"c8 c #6c676e",
"#b c #6c6b6a",
"#S c #6c6c6c",
"cF c #6c7438",
".9 c #6d6455",
"#p c #6d6556",
"#3 c #6d6557",
"fA c #6d6759",
"g. c #6d675e",
"cx c #6d6a67",
"b. c #6d6d6f",
"bv c #6d6e6f",
"bC c #6d964a",
"aA c #6d9b4d",
"bE c #6da151",
"#2 c #6e6657",
"#1 c #6e6658",
"el c #6e6759",
"ap c #6e6a62",
"fZ c #6e6b65",
"fu c #6e6d6d",
"eg c #6e7486",
"ex c #6e768c",
"e7 c #6f624a",
"e4 c #6f6758",
"## c #6f675a",
".5 c #6f685a",
"dy c #6f685b",
"d7 c #70685c",
"an c #70695c",
"#J c #70695d",
"cU c #707174",
"#5 c #716a5e",
"#q c #716b5f",
"bt c #717065",
"aL c #717276",
"bg c #717738",
"#K c #726b60",
"#4 c #726c61",
"g# c #726f6a",
".W c #72847e",
"dl c #736940",
"fk c #736c61",
"cf c #736c62",
"eB c #736d63",
"am c #736e64",
"aK c #73757a",
"fj c #746e63",
"d6 c #746e65",
"#o c #746f65",
"fQ c #747370",
"bQ c #747372",
"e3 c #756f64",
"#L c #757067",
"eP c #757068",
"a. c #75787f",
".8 c #767168",
".U c #767a81",
"e2 c #77726a",
"dQ c #77726b",
"#n c #77736c",
"bZ c #77883f",
"fi c #78736b",
"ao c #78746d",
"ek c #78746e",
"eJ c #796843",
".Q c #79756f",
"ej c #797570",
"de c #797d84",
"bS c #797d86",
"bi c #798740",
"ae c #799345",
"dM c #7a6f60",
"fO c #7a7773",
"dg c #7a7873",
"bc c #7a9244",
"en c #7b6949",
"eC c #7b7875",
"by c #7b7975",
"bp c #7b797a",
"aU c #7ba650",
"e8 c #7c6b4c",
"cy c #7c7975",
"#a c #7c7a77",
"dP c #7d7c7a",
"#P c #7d828c",
"#V c #7d843c",
"cD c #7d8e41",
"cb c #7e838f",
"#x c #7e9295",
".6 c #7f7d7c",
"fP c #7f7e7d",
"#s c #7f7e7e",
".K c #7f848f",
"#6 c #807f7f",
"#8 c #808692",
"cI c #817250",
".R c #818182",
"b# c #818183",
"#7 c #818794",
"af c #81ab51",
"eR c #826e48",
"eE c #826e49",
"e1 c #828284",
"fh c #838487",
"e9 c #84704a",
".P c #848588",
".7 c #85878a",
"as c #858d9c",
".v c #85989f",
"dU c #86724b",
"eu c #867454",
"ce c #86888d",
"dF c #877248",
"eA c #878a90",
"#y c #8790a1",
"#v c #879ba4",
"eT c #887248",
"e. c #887249",
"bU c #888b92",
"c5 c #897348",
"eO c #898c94",
"eU c #8a7248",
"ds c #8a7349",
"c1 c #8a7543",
"cn c #8a9744",
"dG c #8b744b",
"c6 c #8b7548",
"a9 c #8b94a6",
"dJ c #8c7348",
"do c #8c7448",
"dD c #8c744b",
"dY c #8c7544",
"ed c #8c7548",
"er c #8c764a",
"f0 c #8c8c8d",
"fg c #8c919a",
"bX c #8c9b45",
"eq c #8d764b",
".O c #8d929b",
"aP c #8d9542",
"eS c #8e744a",
"eH c #8e7548",
"c4 c #8e7549",
"dq c #8e7648",
"dW c #8e7649",
"ec c #8e764b",
"d0 c #8e784d",
"fz c #8e929d",
"eG c #8f7549",
"c3 c #8f7648",
"eb c #8f7649",
"dX c #8f7748",
"dH c #8f7749",
"fU c #8f99ae",
"cK c #90764a",
"dZ c #907744",
"dE c #907749",
"es c #90784a",
"dI c #917748",
"cL c #917749",
"c7 c #91774a",
"dL c #917843",
"dV c #917849",
"dp c #91784b",
"eF c #92774a",
"eI c #927847",
"e# c #927849",
"dT c #927949",
".V c #929db4",
"c2 c #937847",
"ep c #937849",
"dr c #93784a",
"eo c #94784b",
"dK c #947942",
"cJ c #947943",
"ee c #947948",
"dm c #947949",
"ea c #947a47",
"cC c #949d43",
"bH c #94ae4e",
"et c #957a44",
"dn c #957a47",
"ad c #96ab4c",
"bh c #96ae4e",
"az c #979b41",
"ey c #98a5be",
"bd c #99b44f",
"aB c #9daf4d",
"bD c #9eb04b",
"aV c #9faf4b",
"gi c #a4b1cd",
"be c #a4b34c",
"bP c #a69c82",
"ax c #a7b14b",
"bY c #a7bd51",
"gh c #a8b0bc",
"fK c #a8b2c6",
"ga c #a9b1c0",
".z c #a9bfe0",
"#9 c #acc2e5",
"br c #aea686",
".X c #aec4e9",
"bq c #b0a88a",
"fV c #b0c2e9",
"b1 c #b1bf50",
"gm c #b3c3e6",
".H c #b3c6e1",
".h c #b3c8eb",
".g c #b3c9f2",
"ct c #b4ac91",
"a5 c #b5ab8c",
"a3 c #b7ad8f",
"gd c #b9d1ff",
".c c #bad1ff",
".a c #bbd1ff",
".b c #bbd2ff",
".n c #bcd2ff",
".d c #bcd3ff",
".# c #bdd3ff",
"gf c #bec8de",
"fd c #bed2ff",
".o c #bed3ff",
".j c #bed4ff",
".e c #bfd4ff",
".r c #bfd5ff",
".q c #c0d4ff",
".m c #c0d5ff",
"#f c #c1d5ff",
"Qt c #c1d6ff",
".p c #c2d6ff",
"eM c #c2d7ff",
"eh c #c3d6ff",
".w c #c3d7ff",
"gk c #c3d8ff",
"gg c #c4cfe7",
".G c #c4d7ff",
"f1 c #c4d8ff",
"a4 c #c5bb98",
"f7 c #c5cfe7",
"f8 c #c5d1e8",
".f c #c5d8ff",
".Y c #c6d9ff",
".i c #c7d9ff",
".k c #c7daff",
".Z c #c8daff",
".t c #c9dbff",
"eZ c #cadbff",
".l c #cadcff",
"gb c #cbdcff",
"gc c #ccddff",
".s c #cdddff",
"gj c #cfdeff",
"fv c #cfdfff",
"gl c #d0dfff",
"ge c #d1dffa",
"Qt.#.a.b.c.b.b.b.b.c.c.c.c.c.c.c.b.c.c.c.c.c.d.e.b.c.f.e.g.h.i.j",
".c.c.k.l.m.n.b.b.b.j.o.c.c.c.b.b.m.p.c.c.c.m.q.l.r.s.t.c.u.vQt.e",
".c.b.n.#.r.r.p.b.w.c.c.c.c.c.b.b.c.m.t.c.c.c.c.c.b.#.#.x.y.z.s.c",
".c.b.c.e.e.b.c.b.c.c.c.A.B.C.D.E.F.b.b.b.c.b.b.b.b.G.H.I.J.c.b.c",
".b.b.#.b.e.c.c.K.L.B.M.N.O.P.Q.R.S.L.T.U.V.c.c.e.e.c.W.I.X.Y.Z.c",
".c.b.nQt.c.c.0.1.2.3.4.5.6.7.8.9#.###a#b.B#c.c.b.c.c#d#e.c#f.c.c",
".b.c.i.c.c#g#h#i#j#k#l#m#n#o###p#q###r#r#s#t#u.b.c#v#w#x.c.c.c.c",
".#.b.c#y#z#A#B#C#D#E#F#G#H#o#I#J#K#q#L#M#M#s#N#O#P#Q#R.b.c.b.c.c",
".c.c.c.0#S#T#U#E#E#V#W#X#Y#Z#0#1#2#3#2#2#4#5#6#7#8#w#9.c.b.j.#.c",
".c.ca.a#aaabacadaeafagahaiajakal#J#4amamanao#Iapaqar.c.c.c.n.b.b",
".casatauavawaxayazaAaBaCahaDaE#0#naFaGaHam###IaIaraJ.c.c.c.e.c.c",
".caKaLaMaNaOaPaQaRaSaTaUaVaWaXaYaZa0a1a2a3a4a5a6a7a8a9.c.c.m.e.c",
".cb.#zb#babbbcbdbebfbgbhbibjbkblbmbna1bobpbqbrbsbtbubv.c.c.c.w.c",
".cbwbxbybzbA#EbBbCbDbEbFbGbHbIbJbKbLbLbobM#.bNbObPbQbR.c.c.b.Y.c",
"bSbTbUao#3bVbWbXbYbZb0b1b2b3b4b5b6b7b8b9c.c#bNcaa4a4cbcc.c.c.c.c",
"#tcdcecf#0cgchcicjckclcmcncocpb8bLbLbncqbLb8crcscta4cucv.c.c.c.c",
"cwcxcy#1.9##czcAcBcCcDcEcFcGcHcIcJcKcLcMcNbLcOcPcQcRcScT.c.c.c.c",
"cUcV#4am#1an#rcWcicXcYcZc0c1c2c3c4c5c6c7c8c9d.d#dadbdcdd.c.b.c.b",
"dedfdg###2#2amdhdidjdkaXdldmdndodmdpdqcLdrdsdtbLdtbLdudv.c.G.c.b",
".bdwdxdy#M#M#IaldzdAdBdCdDdEdmdFdGdHdIdJdKdLdMbLbLb8dN.b.c.r.b.c",
".c#SdOdP#Jan#5.9.9dQdRdSdTcLdqdUdVdWdmdXdYdZd0bLd1d2d3.c.b.r.c.a",
".bd4d5d6###2d7#5andyd8d9e.e#cLdIeaebecdVeddZeebLb4efeg.a.c.ceh.c",
".#.c#Nei#qejcfdyekaoelemeneoeoepeqereseedreteuevewexey.b.c.c.j.c",
".#.aaKezeA#oeBeC#6#q#ManeDeEeeeedmepeFeGeHeIeJeKeLbv.c.e.c.m.j.c",
".aeM.c.BeNeOekeP#5ePeB#J#IeQeRdmepeSeTeUc6eVeWeXeY.c.ceZ.cQt.c.c",
".c.e.c.cbwe0e1e2e3#Ie4#2#0e5e6e7e8e9dEe.f.f#fafbfc.k.f.c.#.#.b.c",
".cfd.c.c.cfefffgfh#qfi#5fjfkfleNfmfnfofpe6fqfrfsftfu.cfv.s.e.c.c",
".c.c.cQt.c.cfwfxfyfz#6dy.5#MfAfBfCfDfE.BfFfG.bfHfIfJfK.m.m.p.b.c",
".c.Y.GQt.b.b.c.cfL.EfMfNfOfP#sfQfRfSfTfLfU.bfVfWfXfYfZf0.n.t.b.b",
".c.b.b.of1.m.n.c.c.c.cbRf2f3f4f5f6.d.d.c.b.wf7f8f9g.g#gagbgc.#.#",
".c.c.c.e.b.c.b.c.w.e.G.bgd.c.c.c.c.c.m.#.n.lgegfggghgigjgk.w.p.c",
".c.c.c.c.o.p.r.w.c.c.c.c.c.c.c.c.c.Z.q.q.n.c.Zglgm.p.w.n.n.b.cgd"};
