/* XPM */
static char *dummy[]={
"32 32 255 2",
"b0 c #9ef1e3",
"bN c #a1f1e7",
"ar c #a1f1ed",
".x c #a2f1ee",
"aq c #a3f2eb",
"ap c #a3f3eb",
".A c #a4eeee",
"bZ c #a4f2e9",
"#v c #a4f2ed",
"bQ c #a4f2ef",
"bF c #a4f2f1",
"#k c #a4f3f1",
"bP c #a5f2ec",
".6 c #a5f2f3",
"#9 c #a5f3ef",
"a. c #a5f4f0",
".I c #a5f8df",
"b# c #a6ede6",
"aE c #a6f1f6",
"bf c #a6f1f9",
"ak c #a6f5eb",
"au c #a7f4ea",
"#. c #a7f4ef",
".J c #a7f6e8",
".Y c #a8f2e6",
"bE c #a8f2ea",
"bw c #a8f2f1",
"ab c #a8f3e6",
"b6 c #a9eae1",
"av c #a9f0e6",
"b1 c #a9f1e9",
"bI c #a9f2f0",
"al c #a9f3e9",
"## c #aaeddb",
"ax c #aaeddc",
"bJ c #aaf0f0",
"aF c #aaf3f0",
"aA c #aaf5e6",
"#6 c #abf0df",
"bn c #abf2e7",
".1 c #abf3eb",
".M c #abf4df",
"bM c #ace4f2",
"a# c #aceded",
".y c #acf1e9",
"ao c #acf2e1",
"#w c #acf3d7",
".V c #acf4df",
"#j c #acf4e8",
"be c #acf4eb",
"#Q c #ade4f1",
"bW c #ade5f8",
"ay c #adede3",
".0 c #adf2e2",
".S c #adf3ef",
"#U c #adf4e6",
"ac c #adf5e4",
".5 c #adf7e3",
"#C c #aee9e2",
"#P c #aef3e7",
"#8 c #aef5e0",
"aO c #afd5ff",
"aD c #afd9ff",
"a0 c #afdcfa",
"by c #afe6e3",
"bT c #afede1",
".O c #aff2da",
"ba c #aff3db",
"bv c #aff3e7",
"bG c #aff4e3",
"#4 c #aff5dc",
"b2 c #b0e3e9",
"#x c #b0e5e8",
"bC c #b0f5da",
"aB c #b0f5dc",
"#K c #b1def8",
"aQ c #b1e1eb",
"bU c #b1e2e9",
"#J c #b1e2fb",
"bb c #b1e5e9",
"#Y c #b1f1dd",
"#n c #b1f3e0",
"#1 c #b1f5df",
"#0 c #b1f7df",
".R c #b2dff7",
"#z c #b2e1ea",
"#A c #b2eada",
"#d c #b2f3e1",
".N c #b2f5da",
"#7 c #b2f5de",
".9 c #b2f6d9",
"#l c #b2f6dd",
"#u c #b2f7d1",
"bK c #b3dbf3",
"br c #b3dbf8",
"b7 c #b3deee",
"bi c #b3e0eb",
"#5 c #b3e7eb",
"bA c #b3ede5",
"bR c #b3f4dd",
"#W c #b3f5dc",
"ai c #b3f7cb",
"#t c #b3f7d0",
"#s c #b3f8cf",
"bL c #b4d3ff",
".u c #b4d7fa",
"#a c #b4dcf1",
".4 c #b4dcf5",
"#o c #b4ddef",
"aa c #b4f2d3",
"bp c #b4f3d6",
"#O c #b4f5da",
"bS c #b4f6d4",
"az c #b4f6d9",
"aw c #b4f7d7",
"bz c #b5d7fe",
"#H c #b5daf3",
"#D c #b5dbf1",
"b4 c #b5e7ea",
"a8 c #b5e9da",
"#h c #b5eaf4",
"a4 c #b5eed8",
"#B c #b5efd0",
"bd c #b5f1e0",
"bs c #b5f2df",
".Z c #b5f5d9",
"ad c #b5f6d8",
"#2 c #b5f6d9",
"a5 c #b6d3fe",
"#y c #b6d9f4",
"as c #b6dcf2",
"bq c #b6e2e7",
"aN c #b6e4ea",
"#X c #b6f4da",
"bB c #b6f4db",
"bx c #b6f5d3",
"bX c #b6f5da",
"bg c #b6f6d6",
".7 c #b6f6da",
"#3 c #b6f7d3",
".L c #b6f7d5",
"ae c #b6f7d6",
"af c #b6f8d8",
"bV c #b7d2ff",
"#G c #b7d7f6",
"bk c #b7d7f7",
"ah c #b7d8f5",
"aX c #b7e1f4",
".w c #b7eef1",
"bm c #b7f0da",
"a1 c #b7f4da",
".B c #b7f5d1",
"a2 c #b7f5d5",
"bu c #b7f6d4",
".W c #b7f6d5",
"#i c #b7f6d6",
"aj c #b7f6d7",
".K c #b7f7d5",
"#m c #b7f7d7",
"aR c #b7f8cd",
".U c #b7f8d0",
"#q c #b8d1ff",
"aP c #b8d2ff",
"bj c #b8d5fa",
"an c #b8e7e0",
"b5 c #b8e8da",
".z c #b8f4de",
"bh c #b8f5d0",
"#N c #b8f5d4",
"#T c #b8f5d5",
".8 c #b8f6d3",
"bY c #b8f6d4",
"bo c #b8f6d5",
".T c #b8f6d7",
"bD c #b8f7d4",
"#V c #b8f7d5",
".d c #b9d1ff",
"#b c #b9d2fd",
"am c #b9d2ff",
"#F c #b9d3fc",
"#c c #b9d3ff",
".o c #b9d5f9",
"#r c #b9dbf5",
"#e c #b9eed2",
".C c #b9efd2",
".2 c #b9f0d2",
"a3 c #b9f3d2",
"bt c #b9f5d5",
"bH c #b9f6d4",
"bO c #b9f6d6",
"Qt c #bad1ff",
".Q c #bad2fd",
"#E c #bad2fe",
"#p c #bad2ff",
"b3 c #bad4fd",
"ag c #bad5fb",
"at c #bad5fe",
"bc c #badee8",
".X c #baf5d5",
".# c #bbd1ff",
"aV c #bbd2fc",
"aW c #bbd2fd",
".b c #bbd2ff",
"aL c #bbd3fb",
"#f c #bbe0e4",
".v c #bbe1f8",
"b. c #bbebd4",
"aG c #bbf6d4",
".i c #bcd2ff",
".3 c #bcd3fd",
".a c #bcd3ff",
"aJ c #bcd4f8",
".D c #bcd4fb",
"aC c #bcd6f5",
".P c #bceadb",
".c c #bdd3ff",
".E c #bdd4ff",
"aI c #bdd5f7",
"bl c #bdd9f5",
"a7 c #bdeecb",
"#g c #bed3ff",
".k c #bed4ff",
".h c #bfd4ff",
".F c #bfd5ff",
"#I c #bfd9fe",
"aZ c #bfdfe4",
".s c #c0d4ff",
".e c #c0d5ff",
"b8 c #c0d6ff",
"aT c #c0daf1",
"aH c #c0e8d5",
".m c #c1d5ff",
".l c #c1d6ff",
"a6 c #c1daeb",
"aM c #c1dbea",
"aS c #c1f2d3",
".g c #c2d6ff",
"#R c #c2d7ff",
"aU c #c2dbe9",
".H c #c2eaec",
"#M c #c2ecd5",
".n c #c3d7ff",
"a9 c #c3dde5",
"aY c #c3f3c7",
".f c #c4d7ff",
".p c #c4d8ff",
"#Z c #c4dfed",
"#S c #c4e3e8",
".j c #c5d8ff",
"#L c #c5d9ff",
".q c #c6d9ff",
".t c #c6daff",
".r c #c7daff",
"aK c #cae6cf",
".G c #cddeff",
"QtQt.#.aQtQtQtQtQtQtQtQtQtQtQtQt.bQtQtQtQtQt.b.cQtQtQtQtQtQtQt.d",
"QtQtQt.bQt.e.e.f.gQtQtQtQtQt.a.h.iQtQt.h.jQt.#.b.k.e.i.aQtQtQtQt",
"Qt.k.g.l.m.n.g.l.eQtQtQtQtQt.c.eQtQt.o.iQtQtQtQt.e.g.p.q.r.s.bQt",
"Qt.b.m.t.q.bQt.bQtQt.u.v.w.x.y.z.A.B.C.DQt.E.l.i.bQtQt.q.g.a.iQt",
".b.bQtQtQtQtQt.F.G.H.I.J.K.L.M.K.N.O.P.QQtQtQtQtQtQt.b.n.#QtQtQt",
"QtQt.#QtQtQtQt.R.S.T.U.V.W.X.Y.Z.0.1.2.3QtQtQt.bQtQt.iQtQtQtQtQt",
"QtQtQtQtQtQt.4.5.6.7.8.9#.###a#b#c#d#e#fQtQt.a.bQt#g.f.cQtQtQtQt",
"QtQtQt.dQt.j#h#i#j#k#l#m#n#oQtQtQt#p.d#qQtQt.b.n.c.b.e.aQtQtQtQt",
"QtQtQtQtQt.a#r#s#t#u#v#w#xQtQtQtQtQtQt.#QtQt.b.l.bQtQt.e.bQtQtQt",
"QtQtQtQt.#.c#y#z#A#B#C#D#bQtQtQtQtQtQtQtQtQtQtQtQtQt.e.cQtQt.b.b",
"QtQt.iQtQtQt#E#F#G#H#FQtQt.cQtQtQtQt.#QtQt#I#J#KQtQt.g.n.bQtQtQt",
"Qt.a#LQtQtQtQtQtQtQt.k.n.g.iQtQtQtQtQtQt#M#N#O#P#QQt.b.hQtQtQtQt",
"Qt.k.eQtQtQtQtQtQt.i#L#RQtQtQtQtQt.iQt#S#T#U#V#W#X#Y#HQt.c.c.iQt",
"QtQt.bQtQtQtQtQtQt.b.FQtQtQtQtQt.n.gQt#Z.9#0#1#2#3#4#5Qt.l.n.kQt",
"QtQtQtQtQtQtQtQtQtQtQtQtQtQtQtQt.k.jQtQt#6#7#7#8#9a.a#QtQtQtQtQt",
"QtQtQtQtQtQtQtQtQtQtQtQtQtQtQtQtQtQtQtQt#HaaabacadaeafagQtQtQtQt",
".dQtQt.c#R.aQt.#.#QtQtQtQtQtQtQt#gQtQtQtQtahai.KajakalamQtQtQtQt",
"Qt.b.bQt#L.F.i.#QtQtQtQt.iQtQt.i.nQtQtQtQtQtanaoapaqarasQt.#QtQt",
"Qt.m.nQt.r.i.#Qt.bQt.k.e.l.e.h.i.bQtQt.#.i.g.katauavawax.cQtQtQt",
"Qt.h.j.#.c.iQtQtQtQtQtQt.i.l.lQtQt.#QtQtQt.c.bQtayazaAaBaCQtQtQt",
"Qt.i.hQtQtQtQtQtQtQtQtQtQtQtQtQtQtQtQtQtQtQtQtQtaDaEaFaGaHaIQtQt",
"QtQtQtQtaJaKaLQt.bQtQtaMaNaOaPQtQtQtQtQtQtQtQt.baQaRaSaTaUaVQtQt",
"QtQtaWaJaXaYaZ.b.cQta0a1a2a3a4a5QtQt.h.e.cQtQtQta6a7a8QtQtQt.bQt",
"QtQta9b.b#babbQtQtbcbdbebfbgbhbi.bQt.m.m.cQtQtQtQtbjbkQtQt.g.gQt",
"QtQtblbmbnbobpbqbrbsbtbubvbwbxbyQtQtQtQtQtQtQtQtQtQtQtQt.i.q.bQt",
"QtQtQtbzbAbBbCbDbEbFbGbH.WbIbJbKQtQtQtQtQtQtQtQtQt.bQtQtQt.b.bQt",
"QtQtQtQtbLbMbNbDbObPbQbRbSbTbU.dQtQtQt.bQtQt.#QtQt.eQtQtQtQtQtQt",
"QtQtQt.#.ibVbWbXbYbZb0b1b2bkQtQtQtQtQt.iQtQt.k.#QtQtQtQtQtQtQtQt",
"Qt.#QtQt.iQtb3b4b5b6b7.#QtQtQt.cQt.e.n#R.hQtQt.h.l.lQtQtQtQtQtQt",
".b.b.e.n.lQtQtQtQtQtQtQtQt.#Qt.#.b.n.fQt#g.n#L.j.nb8QtQtQtQtQtQt",
"QtQtQt.k.hQtQtQtQt.#.cb8.dQtQtQtQtQtQtQtQt.e.F.kQtQtQtQtQtQtQtQt",
"QtQtQtQtQtQtQtQtQtQtQtQtQtQtQtQtQtQtQtQtQtQtQtQtQtQtQtQtQtQtQt.d"};
