/* XPM */
static char *dummy[]={
"32 32 28 1",
". c #b9d1ff",
"# c #bad1ff",
"v c #bad2ff",
"g c #bbd1ff",
"a c #bbd2ff",
"f c #bcd2ff",
"b c #bcd3ff",
"h c #bdd3ff",
"z c #bed3ff",
"j c #bed4ff",
"i c #bfd4ff",
"e c #bfd5ff",
"c c #c0d5ff",
"t c #c1d5ff",
"k c #c1d6ff",
"d c #c2d6ff",
"u c #c2d7ff",
"m c #c3d7ff",
"y c #c3d8ff",
"x c #c4d7ff",
"l c #c4d8ff",
"s c #c5d8ff",
"p c #c5d9ff",
"o c #c6d9ff",
"n c #c7daff",
"q c #c8daff",
"r c #c8dbff",
"w c #c9dbff",
"..###############.....########..",
".##########..#####....########.#",
".######a####...####...##########",
"#######a####..bc###..##dc#######",
".######e####.....###.###########",
"#######f########..##.#####g#####",
"#######f########################",
"#####.#h#####aijkcf######acl####",
"####ckmjj##imennnnomidhcmpqqd###",
"###afia###ennnrnropqsmnoonpldg##",
"####f#####elnokkctpnnronslmjg###",
"###########idb###auoodckj#######",
"###############..##########hh###",
"###.#######......###f#ell##j####",
"########f##......##agafj#####a##",
"##########.........#############",
".#########.........#############",
"########ab...#c....#f###########",
"########ha.....###########a#####",
"#######ihjav..##################",
"#######h##v..###################",
"#######eja######..####jdh#######",
"####ibuwnmskhffjcupljjqrm#######",
"###hlorrnqrrnonnnqromrqmi#jj####",
"#a#conrnmnqnqrnnnosnqwoxfaelmh##",
"###flsk#fdoolysmmjhllkcaaaa#djh#",
"#######ao###a#..############a###",
"#######ah####....###va#j##fjzf##",
".#######av#..be.###.v#b#########",
"...#####a#....#####h...###a#####",
"......#jb########.........######",
".......qm########.........hg###."};
