/* XPM */
static char *dummy[]={
"32 32 115 2",
"Qt c #b9d1ff",
".f c #bad1ff",
".3 c #bbd1ff",
"## c #bbd2ff",
"#x c #bcd1ff",
".2 c #bcd2ff",
".4 c #bcd3ff",
"#O c #bcd4ff",
"#B c #bdd1ff",
"#G c #bdd2ff",
".5 c #bdd3ff",
"#. c #bdd4ff",
"#y c #bed2ff",
".p c #bed3ff",
".# c #bed4ff",
".6 c #bed5ff",
"#w c #bfd3ff",
"#q c #bfd4ff",
".Z c #bfd5ff",
"#j c #bfd6ff",
".l c #c0d5ff",
"#L c #c0d6ff",
"#f c #c1d5ff",
".a c #c1d6ff",
"#U c #c1d7ff",
"#a c #c1d8ff",
"#V c #c1d9ff",
"#M c #c2d4ff",
"#c c #c2d5ff",
".o c #c2d6ff",
"#g c #c2d7ff",
"#A c #c2d8ff",
".D c #c2d9ff",
".C c #c3d6ff",
".M c #c3d7ff",
".N c #c3d8ff",
".S c #c4d6ff",
".P c #c4d7ff",
"#b c #c4d8ff",
"#r c #c4d9ff",
"#d c #c5d7ff",
".s c #c5d8ff",
".e c #c5d9ff",
".Y c #c6d7ff",
".E c #c6d8ff",
".X c #c6d9ff",
".b c #c6daff",
".n c #c6dbff",
"#m c #c7d8ff",
"#u c #c7d9ff",
".A c #c7daff",
".T c #c7dbff",
"#T c #c8d9ff",
".g c #c8daff",
".0 c #c8dbff",
"#l c #c8dcff",
".O c #c9daff",
".m c #c9dbff",
"#i c #c9dcff",
".j c #cadbff",
"#h c #cadcff",
".7 c #caddff",
"#e c #cbdcff",
".i c #cbddff",
"#I c #cbdfff",
"#C c #ccdaff",
".t c #ccdbff",
"#s c #ccdcff",
".Q c #ccddff",
".c c #ccdeff",
".k c #ccdfff",
"#k c #cddcff",
".L c #cdddff",
".W c #cddeff",
".h c #cddfff",
"#P c #cde0ff",
"#S c #cedcff",
"#N c #ceddff",
".w c #cedeff",
"#H c #cedfff",
".B c #cee0ff",
".I c #cfdeff",
"#F c #cfdfff",
".u c #cfe0ff",
"#J c #cfe1ff",
"#t c #d0dcff",
"#R c #d0deff",
"#K c #d0dfff",
".r c #d0e0ff",
".J c #d0e1ff",
"#z c #d1deff",
".y c #d1dfff",
".z c #d1e0ff",
".R c #d1e1ff",
".H c #d1e2ff",
".v c #d2dfff",
".8 c #d2e0ff",
".9 c #d2e1ff",
".U c #d2e2ff",
"#W c #d3dfff",
".x c #d3e1ff",
".K c #d3e2ff",
".V c #d3e3ff",
"#Q c #d4e3ff",
"#o c #d4e4ff",
"#p c #d5e2ff",
".G c #d5e3ff",
".d c #d5e4ff",
".1 c #d7e2ff",
".F c #d7e4ff",
"#E c #d7e5ff",
".q c #d8e4ff",
"#n c #d8e5ff",
"#D c #d9e4ff",
"#v c #dae5ff",
"QtQt.#.a.#.b.c.d.e.f.f.g.h.h.i.j.j.i.k.h.gQt.f.e.d.c.b.#.a.#QtQt",
"Qt.l.m.n.o.p.q.r.s.t.u.v.g.w.x.y.z.x.w.A.v.B.t.s.r.q.p.o.n.m.l.f",
".C.D.E.m.b.F.G.H.I.h.J.K.L.M.N.O.O.N.P.Q.K.J.h.I.R.G.F.b.m.E.D.S",
".l.T.m.U.V.Q.W.X.Y.m.e.a.Z.s.s.a.Z.N.s.Z.a.e.m.Y.X.W.Q.V.U.m.T.l",
".0.1.V.M.2.3.f.4.f.f.2.5.6.E.7.8.8.7.E.6.4.2.f.f.f.f.3.2.M.V.1.0",
".9.l.M.W.C.C#.##.f#a#b#c.Z.##d#e#e#d.#.Z#f#b#a.f.f#..C.C.W.M.l.9",
".W#g.X.a.#.P#h#i.0#j.f.f.p#k.x.I.I.x#k.p.f.f#j.0#l#h.P.#.a.X#g.W",
"#m.W#n#o#p.j.a.p#q#r.A.w.Q#s.P#t#t#r.L.Q.w.A#r#q.p.a.j#p#o#n.W#m",
".P.s#i.M.s.A.X.j#u.w.B.c#q.4.Z.O.b.#.4#q.i.r.w#u.j.s#b.a#b#i.s.P",
".M.M.p##.2.P.G#n#v.k.l.2#.##.4#..6#.##.4.f.l.B#v#v.G#f##.f#w.M.M",
".f.f#x.f#y.f.M.W#z.O.m#A.#.f.f.f.f.f.f.Z#A.T.O#z.w.e###B.f#x.f.f",
".f.4.2.s.m.w#C#D#D#E.8.l#..f##.3.3.4.f#..Z.8#E#D#D#C.w.m.s.2.4.f",
".4.5#e.F#F.b#b.f#x#G.J.O#..a.2.f.f.2.a#..O.J#G#x.f#b.b.r.F#e.5.4",
"#H#I#F#.##.#.f.f#B.Z.f.A#J#K.B#j#L.B#K#J.m.f#r#y.3.f.#.4#.#F#I#H",
".m#e.A.2#q#.#j.3.2#x.3.m#i.n#d.p.p.Y.T#h.m.2#G.#.3#j#.#q.2.0#e.m",
".T.5#M.2.4#x.f.f.f.f.6.o.w#F#N#e#h#N#F.w.o.Z.f.f.f.f#x.4.2#M.5.T",
".A.5#M.2.4#x.f.f.f.f.6.a.w#F#N#h#h#N#F.w.o.Z.f.f.f.f#x.4.2#M.5.A",
".m#e.A.2#q#.#j.3##.5.f.m#h.T.E#w.p#d.n#h#h.3#x.f.3#j#.#q.2.A#e.m",
"#H#I#F#.##.#.f.f#w#LQt.A#J#K.B#L#L.B#K#J.g.f.Z#B.f.f.Z###.#F#I#H",
".4.5#e.F#F.b#b#q#w.l.J.m#O#L.2.f.f.2.a#..O.J#G#x.f#b.b#F.F#e.5.4",
".f.4.2.s.m.w#C#D#D#E.8#q#O.f##.3.3##.f#.#q.8#E#D#D#C.w.m.s.2.4.f",
".f.f#x.f#B.f.M.w#z.j.T#A.4.f.f.f.fQt.f.4#A.T.O#z.W.M.f#B.f#x.f.f",
".M.M.p.f#q.l.G#n#v#J.l.4#..4.##.#.#..2.4.f#q#P#v#n#Q.l.f.f.p.M.M",
".P.s#i.M#L#b.s.j#u#H.z.w.l#..l.A.b.Z.#.l.i.R.w.0.j.N#r#L.M#i.s.P",
"#m.W#n#o#p.j.a.##q.e.A.w.Q#s#b#t#t#b.Q.Q.r#e.0.l.p#g.j#p#o#n.W#m",
".W#g.X.M.M.P#h#l.0#j#q.l#w#k.x#R.I.x#S#q.5###A.0#i.i#d.#.a.O#b.W",
".9.l.M.W.C.C#..f.4#a#b#c.Z.##d#e#e#d.#.Z#c#b#a.f.f#..C.C.W.M.l.9",
".0.1.V.M.2.3.f##.f.f.2.5.6.s.7.8.8.7.E.6#..2.f##.f.f.2.l#m#Q.1.0",
".Z.T.m.U.V.Q.W.E#m#i.e.a.Z.A#T.6.Z.N.s.Z#U.e#h.Y.E.W.Q.V.U.m.T.l",
".C#V.s.m.b.F.G.R.I.h.J.K.Q.M.N.O.O.N.P.I.K.J.h.I.R.G.F.b.m.E.D.S",
"Qt.l.m.n.o.5.q.J.X.t.u#W.g.w.x.z.y.9.w.A.v.B.t.s.r.F.p.o.n.m.l.f",
"QtQt#.#L.#.b.c.d.X.f.f.g.h.h.i.j.j.i.k.h.gQtQt#r.d.c.T#q.a.#.fQt"};
