/* XPM */
static char *dummy[]={
"32 32 115 2",
"Qt c #b9d1ff",
".h c #bad1ff",
".W c #bbd1ff",
".M c #bbd2ff",
".D c #bcd1ff",
".E c #bcd2ff",
".i c #bcd3ff",
"#D c #bcd4ff",
".U c #bdd1ff",
"#p c #bdd2ff",
".s c #bdd3ff",
".H c #bdd4ff",
".S c #bed2ff",
".C c #bed3ff",
".w c #bed4ff",
"#u c #bed5ff",
"#h c #bfd3ff",
".T c #bfd4ff",
".n c #bfd5ff",
".5 c #bfd6ff",
".a c #c0d5ff",
".O c #c0d6ff",
"#S c #c1d5ff",
".I c #c1d6ff",
"#T c #c1d7ff",
"#k c #c1d8ff",
".v c #c1d9ff",
".G c #c2d4ff",
"#z c #c2d5ff",
".P c #c2d6ff",
".q c #c2d7ff",
"#A c #c2d8ff",
".o c #c2d9ff",
".# c #c3d6ff",
".g c #c3d7ff",
"#J c #c3d8ff",
"#W c #c4d6ff",
".f c #c4d7ff",
".Z c #c4d8ff",
"#l c #c4d9ff",
"#L c #c5d7ff",
".r c #c5d8ff",
"#b c #c5d9ff",
"#d c #c6d7ff",
".x c #c6d8ff",
".z c #c6d9ff",
".Q c #c6daff",
".J c #c6dbff",
".e c #c7d8ff",
"#e c #c7d9ff",
".m c #c7daff",
".l c #c7dbff",
"#N c #c8d9ff",
"#w c #c8daff",
".b c #c8dbff",
"#. c #c8dcff",
"#n c #c9daff",
".k c #c9dbff",
".B c #c9dcff",
".X c #cadbff",
".3 c #cadcff",
"#K c #caddff",
".u c #cbdcff",
"#H c #cbddff",
".t c #cbdfff",
".4 c #ccdaff",
"#i c #ccdbff",
"#F c #ccdcff",
".V c #ccddff",
".0 c #ccdeff",
"#m c #ccdfff",
"#E c #cddcff",
"#C c #cdddff",
".d c #cddeff",
"#j c #cddfff",
"#U c #cde0ff",
"#R c #cedcff",
"#M c #ceddff",
".Y c #cedeff",
".j c #cedfff",
"#s c #cee0ff",
"#c c #cfdeff",
".F c #cfdfff",
"#r c #cfe0ff",
"#q c #cfe1ff",
"#P c #d0dcff",
"#Q c #d0deff",
"#G c #d0dfff",
".7 c #d0e0ff",
"#a c #d0e1ff",
"#g c #d1deff",
"#O c #d1dfff",
"#v c #d1e0ff",
"## c #d1e1ff",
".8 c #d1e2ff",
"#x c #d2dfff",
"#t c #d2e0ff",
".c c #d2e1ff",
".K c #d2e2ff",
"#B c #d3dfff",
"#I c #d3e1ff",
"#y c #d3e2ff",
".y c #d3e3ff",
"#V c #d4e3ff",
".L c #d4e4ff",
".R c #d5e2ff",
".2 c #d5e3ff",
".6 c #d5e4ff",
".p c #d7e2ff",
".N c #d7e4ff",
"#o c #d7e5ff",
".1 c #d8e4ff",
".A c #d8e5ff",
".9 c #d9e4ff",
"#f c #dae5ff",
"QtQt.#.a.b.c.d.e.f.g.h.h.i.j.k.l.m.k.j.i.h.h.g.f.e.d.c.b.n.#QtQt",
"Qt.a.o.l.p.a.q.d.r.g.h.i.s.t.u.s.s.u.t.s.i.h.g.r.d.q.a.p.l.v.aQt",
".w.k.x.k.y.g.z.A.B.C.D.E.u.F.m.G.G.m.F.u.E.D.C.B.A.z.g.y.k.r.k.H",
".I.J.k.K.g.d.I.L.g.M.h.r.N.H.E.E.E.E.H.N.r.h.h.g.L.g.d.g.K.k.J.O",
".w.P.Q.y.E.#.w.R.r.E.S.k.F.M.T.i.i.T.M.F.k.U.T.O.R.g.#.E.y.Q.P.w",
".Q.C.N.V.W.#.f.X.m.f.h.Y.Q.w.H.D.D.H.w.Q.Y.h.a.Z.X.f.#.W.V.N.s.Q",
".0.1.2.d.h.H.3.I.z.2.g.4.Z.h.5.h.h.5.h.Z.4.g.2.r.I.3.H.h.d.2.1.0",
".6.7.8.z.i.M.B.C.X.A.d.9.h.h.W.h.h.W.h.T.9.Y.A.X.w#..h.M.x###a.6",
"#b.r#c#d.h.h.b.T#e#f#g.9.D.U.E.h.h.M#h#h.9#g#f#e.T.b.i.h.e#c.z.z",
".h#i#j.k.h#k.5#l.Y#m#n#o#p.n.D.h.h.s.O.a#o.X#q.j#b.5#k.h.B#j#i.h",
".h#r#a#b.E.Z.h.m#s.a.k#t#a.h.W#u#u.hQt#a#t.l.a#v.m.T.Z.E#b#a#r.h",
"#w#x#y.I.s#z.h.Y.0.E#A.a#n.m.k.P.I.k.m.k.T#A.i.Y.Y.a#z.s.I#y#B#w",
"#j#w#C.n#u.n.C.V.T.H.w.H.H#q.B.Y.Y.3#q#D#D.i.H.a.V#h.n#u.n.V#w#j",
"#j.Y.g.r.x.w#E#F.i.M.h.h.I#G.J.F.F.l#G.O.h.h.i.H#F#E.w.r.m.g.Y#j",
"#H#I#J.r#K#L#I.f.n.i.h.M.E#s#L#M#M.x#s.E.M.h.w.a.Z#I#L#K#N#J#I#H",
".X#O#n.I#t.u#c#P#n.H.h.W.h.5.C.u.3#h.O.h.W.h.H.m#P#Q.u#t#u#n#v.X",
".X#v#n.n#t.u#c#P.Q#u.h.W.h.O.C.3.3.C.O.h.W.h.H.Q#P#c.u#t.n#n#O.X",
"#H#I#J#J#K#L#I#l.w.H.h.i.E#s#d#M#M#L#s.E.MQt.H.n.Z#I#L#K#J#J.c#H",
"#m.Y.f.r.x.w#E#C.i.M.h.h.I#G.l.F.F.J#G.I.h.h.E.w.V#R.w.x.r.f.Y#m",
"#j.m.V.n#u.n.C.V.T.i.n.H.H#q.3.Y.Y.3#q.H.H.i.i.a.V.T.n#u.n#c.m#j",
"#w#x#y.I.i#S.h.Y#H.h#A.n#n.k.k.P.P.3#w#n.T#A.h#H.7.s#z.H#T#y#x#w",
"Qt#s#a#b.E.Z.h.m.7.a.l#t#a.h.E.n.n.W.h#a#t.l.T##.u.M.Z.E#b#a#sQt",
".h#i#j.k.h#k.5#l.Y#s#n#o#p#l#p.h.h.D.n#p#o#n#U.Y.b#A#k.h.3#j#iQt",
"#b.r#c#d.h.h.b.T#e#f#g.9.D.S.w.h.h.h.U.D.9#g#f.b.a.b.h.M#d#c.r#l",
".6.7##.z.h.h#..C.X#f.Y.9.h.W.W.h.h.W.h.h.9.d.A.X.C.B.h.h.x##.7.6",
".0.1.2.d.h.H.3.I.r.2#b.4.Z.h.5.h.h.5.h.Z.4.g#V#J.q#H.H.h.d.2.N.0",
".Q.C.N.V.W.#.f.X.Z#S.M.Y.Q.w.H.D.D.H.n.Q.Y.h.a#l.X#L.#.E.V.N.C.l",
".w.P.Q.y.E.#.w.R.I.M.U.k.7.i.T.i.i.T.M.F.k.U.h.O.R.w.#.a.y.Q.P.T",
".I.J.k.K.g.d.I.L.Z.h.h.r.N.H.E.E.E.E.H.N.r.h.h.g.L.I.d.e.K.k.J.I",
".w.k.x.k.y.g.z.A.B#h.D.E.u.F.b.G.G.m.F.u.E.D.C.B.A#n.g#V.k.x.k.w",
"Qt.a.o.l.p.a.q.d.r.g.h.i.s.t.u.s.s.u.t.s.i.h.g.r.d.Z.a.p.l.o.a.h",
"Qt.h#W.a.b.c.d.e.f.g.h.h.i.j.k.l.m.k.j.i.h.h.g.f.e.d.c.b.a#W.hQt"};
