/* XPM */
static char *dummy[]={
"32 32 51 1",
". c #b9d1ff",
"# c #bad1ff",
"L c #bad2ff",
"D c #bbd1ff",
"e c #bbd2ff",
"g c #bcd2ff",
"H c #bcd3ff",
"f c #bdd3ff",
"I c #bdd4ff",
"V c #bed3ff",
"d c #bed4ff",
"l c #bfd4ff",
"v c #bfd5ff",
"c c #c0d5ff",
"E c #c0d6ff",
"a c #c1d6ff",
"J c #c2d6ff",
"x c #c2d7ff",
"b c #c3d7ff",
"y c #c3d8ff",
"m c #c4d7ff",
"u c #c4d8ff",
"O c #c4d9ff",
"K c #c5d8ff",
"P c #c5d9ff",
"B c #c6d9ff",
"p c #c6daff",
"s c #c7daff",
"Q c #c8daff",
"F c #c8dbff",
"o c #c9daff",
"n c #c9dbff",
"C c #c9dcff",
"q c #cadcff",
"G c #caddff",
"R c #cbdcff",
"A c #cbddff",
"r c #ccddff",
"W c #ccdeff",
"S c #cdddff",
"k c #cddeff",
"N c #cddfff",
"h c #cedeff",
"z c #cedfff",
"M c #cfdfff",
"U c #cfe0ff",
"j c #d0e0ff",
"i c #d1e0ff",
"w c #d1e1ff",
"t c #d2e1ff",
"T c #d3e2ff",
"..###############.....########..",
".###abc####..#####....##de####.#",
".###fege###############ehijk####",
"e######e####lbcmnopqrsjttiti####",
"uc#####vktwtiiinxuyubspru#nze###",
"lf#####emAksquuBqhkzCAbxv#D#####",
"######.####.#.####EaBFpa########",
"###..nGs#########.......###H####",
"####fIa############D####Jqsad###",
"###egf###########g######gld#DD##",
"####g############cKu############",
"#################fudD###########",
"################################",
"###.############################",
"#############################e##",
"###############################D",
".###.ypnrI####################bd",
"#uaHcuqzr#LHuuuuaJExL######dKdf#",
"#MMjNOPQbsRzxEFnKsPPBsBSc##gJg##",
"##xQRjFd###...tzATUpFnK#########",
"###########.##cV#nBBRR##########",
"#######dde#############ge#######",
"####lHaff##ae####e#e############",
"###D#######ae##gHg#D############",
"#e##############################",
"###########################pV#g#",
"###############..#uzzQcg###WWu##",
"###gV###########..HjTijc.###B###",
"###cPg#####buf#E#fxQQVaFnsF#####",
"####H#####ckkWfPkjiMhacMthu#####",
"###########L..e#e#dgD##bl#######",
"###############################."};
